<?xml version="1.0" encoding="utf-8"?>
<!-- Generator: Adobe Illustrator 16.0.0, SVG Export Plug-In . SVG Version: 6.00 Build 0)  -->
<!DOCTYPE svg PUBLIC "-//W3C//DTD SVG 1.1//EN" "http://www.w3.org/Graphics/SVG/1.1/DTD/svg11.dtd">
<svg version="1.1" id="Layer_1" xmlns="http://www.w3.org/2000/svg" xmlns:xlink="http://www.w3.org/1999/xlink" x="0px" y="0px"
	 width="2367.283px" height="486.84px" viewBox="0 0 2367.283 486.84" enable-background="new 0 0 2367.283 486.84"
	 xml:space="preserve">
<path fill-rule="evenodd" clip-rule="evenodd" fill="#FFFFFF" stroke="#000000" stroke-width="4" stroke-miterlimit="10" d="
	M1650.989,209.397c0.112,1.67,0.159,3.248,0.334,4.811c0.688,6.159,1.396,12.315,2.134,18.469c0.567,4.73,1.231,9.449,1.767,14.182
	c0.25,2.214,0.324,4.449,0.422,6.676c0.039,0.9,0.166,1.623,0.871,2.35c0.535,0.551,0.848,1.543,0.859,2.346
	c0.14,9.432,0.232,18.865,0.275,28.298c0.023,4.931-0.089,9.86,0.924,14.729c0.129,0.615,0.045,1.275,0.046,1.916
	c0.002,5.839-0.032,11.68,0.011,17.519c0.038,5.272-0.02,10.555,0.299,15.812c0.25,4.113,0.354,8.279,1.541,12.296
	c0.166,0.559,0.184,1.313-0.064,1.81c-0.5,0.996-2.032,0.84-2.434-0.274c-0.482-1.34-0.885-2.742-1.065-4.15
	c-0.335-2.603-0.642-5.228-0.683-7.847c-0.19-12.068,0.275-24.176-0.56-36.196c-0.999-14.386-0.254-28.747-0.636-43.112
	c-0.015-0.557,0.062-1.162-0.125-1.662c-1.181-3.185-1.145-6.557-1.566-9.852c-0.494-3.857-0.891-7.727-1.303-11.594
	c-0.572-5.375-1.1-10.753-1.683-16.125c-0.334-3.075-0.755-6.141-1.095-9.214c-0.049-0.443-0.019-1.073,0.25-1.337
	c0.543-0.533,0.557-0.861,0.25-1.579c-0.439-1.034,0.529-1.739,1.273-1.997c1.554-0.537,3.221-1.14,4.82-1.086
	c6.386,0.212,12.5-1.204,18.619-2.689c0.213-0.051,0.39-0.249,0.823-0.539c-1.157-0.928-2.2-1.826-3.306-2.64
	c-6.301-4.631-11.416-10.411-16.083-16.614c-0.854-1.135-1.427-2.489-2.065-3.774c-1.275-2.564-2.439-5.188-3.78-7.717
	c-0.983-1.854-1.843-3.692-1.929-5.84c-0.031-0.778-0.282-1.569-0.546-2.315c-1.431-4.049-1.271-8.121-0.281-12.221
	c0.093-0.384,0.255-0.799,0.19-1.166c-0.555-3.193,0.906-5.977,1.916-8.789c2.828-7.877,5.925-15.657,8.782-23.524
	c3.433-9.448,6.755-18.938,10.072-28.428c2.158-6.174,3.897-12.516,6.408-18.538c3.216-7.717,4.513-15.912,6.698-23.88
	c0.701-2.556,0.439-5.378,0.584-8.079c0.053-1.004,0.008-2.014,0.008-3.02c0.175-0.023,0.35-0.047,0.523-0.07
	c0.125,0.367,0.364,0.738,0.357,1.104c-0.034,1.672-0.137,3.344-0.216,5.016c-0.011,0.239-0.072,0.486-0.032,0.717
	c0.686,3.914-0.412,7.766-0.408,11.656c0,0.644,0.029,1.158-0.699,1.764c-0.719,0.598-0.746,2.01-1.113,3.051
	c-0.419,1.188-0.875,2.363-1.322,3.541c-0.168,0.447-0.411,0.872-0.526,1.33c-2.292,9.135-5.513,17.982-8.559,26.867
	c-4.993,14.564-10.397,28.988-15.624,43.473c-1.139,3.154-2.255,6.314-3.387,9.471c-0.135,0.375-0.205,0.851-0.475,1.086
	c-2.096,1.834-1.97,4.393-2.222,6.796c-0.419,3.991-0.202,7.886,0.985,11.821c1.721,5.703,4.187,11.01,7.211,16.094
	c0.568,0.954,1.174,1.93,1.945,2.713c4.59,4.661,9.213,9.291,13.875,13.878c1.129,1.109,2.439,1.751,4.187,1.948
	c1.74,0.195,3.467,1.164,5.044,2.066c12.68,7.254,25.303,14.596,37.654,22.411c3.6,2.278,7.753,3.735,11.756,5.308
	c3.638,1.428,7.412,2.512,11.135,3.725c2.051,0.668,4.106,1.326,6.181,1.916c2.298,0.655,4.718,0.946,6.743,2.373
	c0.126,0.09,0.29,0.147,0.443,0.17c6.303,0.916,11.855,4.189,17.966,5.705c0.924,0.229,1.856,0.435,2.796,0.581
	c3.402,0.53,6.64,1.562,9.867,2.777c5.363,2.021,10.839,3.744,16.267,5.595c0.604,0.206,1.233,0.367,1.798,0.652
	c5.017,2.541,10.501,2.984,15.945,3.678c1.882,0.24,3.709,0.88,5.572,1.294c2.014,0.447,4.043,0.823,6.057,1.27
	c1.088,0.241,2.182,0.491,3.229,0.863c2.122,0.756,4.297,1.032,6.531,1.302c3.37,0.409,6.674,1.369,10.003,2.107
	c0.932,0.207,1.858,0.672,2.778,0.65c2.291-0.055,4.369,0.718,6.537,1.228c2.463,0.579,5.022,0.743,7.539,1.101
	c1.336,0.189,2.674,0.381,4.001,0.623c0.737,0.134,1.529,0.492,1.301,1.352c-0.099,0.369-1.011,0.805-1.493,0.742
	c-4.167-0.536-8.438-0.039-12.526-1.492c-1.839-0.654-3.885-0.722-5.831-1.085c-0.938-0.175-1.891-0.337-2.787-0.646
	c-3.866-1.333-7.843-2.04-11.918-2.247c-0.317-0.016-0.643-0.033-0.949-0.107c-4.712-1.146-9.41-2.348-14.135-3.432
	c-2.235-0.514-4.525-0.779-6.781-1.205c-4.354-0.822-8.912-0.812-12.907-3.127c-0.341-0.197-0.729-0.32-1.106-0.447
	c-4.672-1.57-9.35-3.121-14.016-4.71c-1.962-0.669-3.875-1.489-5.854-2.104c-2.121-0.66-4.295-1.152-6.441-1.732
	c-3.611-0.975-7.355-1.626-10.791-3.03c-3.717-1.52-7.58-2.425-11.347-3.69c-4.6-1.547-9.053-3.521-13.63-5.141
	c-3.218-1.14-6.525-2.031-9.812-2.968c-3.291-0.937-6.518-1.946-9.685-3.335c-3.541-1.553-7.446-2.265-11.181-3.387
	c-5.571-1.676-11.158-3.307-16.689-5.112c-5.477-1.788-11.08-2.882-16.768-3.708c-2.584-0.375-5.094-1.244-7.666-1.742
	c-3.66-0.707-7.338-1.326-11.024-1.887C1655.93,209.86,1653.563,209.681,1650.989,209.397z M1711.558,220.104
	c0.051-0.141,0.102-0.282,0.152-0.424c-0.646-0.447-1.271-0.931-1.943-1.335c-5.324-3.202-10.639-6.421-15.994-9.571
	c-4.12-2.426-8.293-4.762-12.453-7.121c-0.153-0.087-0.414,0.014-0.674,0.029c0.415,0.649,0.777,1.216,1.447,2.264
	c-1.25-0.238-2.072-0.214-2.703-0.551c-1.422-0.76-2.703-0.453-4.108,0.033c-6.054,2.093-12.269,3.326-18.706,3.264
	c-0.584-0.006-1.17,0.1-2.019,0.178c1.521,0.822,1.521,0.825,2.856,0.779c4.17-0.142,8.238,0.448,12.238,1.615
	c1.754,0.512,3.515,1.092,5.313,1.332c9.259,1.232,18.21,3.679,27.058,6.588C1705.179,218.223,1708.378,219.135,1711.558,220.104z"
	/>
<path fill-rule="evenodd" clip-rule="evenodd" fill="#FFFFFF" stroke="#000000" stroke-width="4" stroke-miterlimit="10" d="
	M1685.377,66.493c1.868,0.818,3.733,1.646,5.606,2.457c2.082,0.9,4,2.441,6.527,1.625c0.22-0.071,0.557,0.255,0.849,0.371
	c2.942,1.17,5.947,1.741,9.109,1.016c0.442-0.102,0.941,0.009,1.409,0.064c3.549,0.42,7.092,0.896,10.646,1.268
	c4.98,0.52,9.969,0.977,14.957,1.436c4.04,0.371,8.139,0.408,12.113,1.132c4.998,0.909,10.156,0.699,15.05,2.344
	c1.554,0.522,3.299,0.46,4.95,0.712c2.511,0.383,5.012,0.837,7.525,1.207c3.299,0.487,6.654,0.703,9.898,1.428
	c5.508,1.232,10.936,2.82,16.42,4.164c4.708,1.154,9.425,2.264,14.304,2.522c1.489,0.079,2.952,0.614,4.431,0.923
	c5.446,1.133,10.897,2.242,16.34,3.396c2.021,0.428,4,1.131,6.039,1.402c3.699,0.492,7.433,0.732,11.147,1.121
	c2.922,0.305,5.83,0.756,8.757,0.986c1.649,0.13,3.361,0.152,4.979-0.143c4.219-0.766,8.505-1.417,12.559-2.742
	c2.312-0.756,4.441-2.509,6.258-4.229c2.594-2.457,4.849-5.276,7.205-7.979c1.516-1.737,2.954-3.543,4.635-5.246
	c-0.211,0.521-0.389,1.057-0.637,1.561c-2.193,4.447-4.558,8.797-8.141,12.312c-1.531,1.502-3.195,2.886-4.91,4.175
	c-0.805,0.604-1.855,1.156-2.826,1.213c-2.773,0.162-5.097,1.721-7.668,2.271c-3.911,0.837-7.822,1.802-12.006,1.078
	c-4.447-0.77-9.019-0.814-13.535-1.183c-3.73-0.305-7.393-0.963-11.042-1.823c-5.179-1.223-10.413-2.208-15.62-3.312
	c-1.403-0.297-2.779-0.742-4.191-0.969c-1.879-0.301-3.814-0.295-5.666-0.697c-5.59-1.217-11.158-2.541-16.724-3.869
	c-5.106-1.218-10.199-2.5-15.302-3.739c-0.457-0.111-0.99-0.272-1.405-0.145c-2.747,0.849-5.364,0.011-8.015-0.499
	c-4.285-0.824-8.574-1.631-12.865-2.424c-0.273-0.051-0.58,0.078-1.011,0.146c0.208,0.316,0.284,0.574,0.452,0.666
	c7.477,4.123,14.962,8.23,22.445,12.344c9.935,5.459,19.865,10.925,29.803,16.38c6.16,3.382,12.271,6.858,18.514,10.082
	c4.605,2.378,9.38,4.435,14.094,6.601c9.359,4.301,18.715,8.609,28.101,12.852c3.346,1.514,6.765,2.865,10.168,4.247
	c0.708,0.288,1.494,0.382,2.436,0.612c0.32-0.929,0.63-1.646,0.817-2.395c1.941-7.802,3.708-15.65,5.84-23.399
	c1.774-6.446,3.968-12.776,5.987-19.154c0.554-1.749,1.118-3.495,1.735-5.222c0.592-1.654,1.188-3.312,1.902-4.916
	c3.278-7.358,6.627-14.686,9.874-22.058c0.468-1.063,0.517-2.31,0.774-3.468c0.113-0.504,0.262-1.002,0.625-1.482
	c1.043,2.016,0.977,4.067,0.136,6.075c-1.692,4.046-3.475,8.054-5.208,12.083c-1.826,4.245-3.835,8.425-5.41,12.762
	c-2.148,5.913-3.921,11.961-5.929,17.927c-2.852,8.472-4.174,17.321-6.47,25.929c-0.8,2.998-1.446,6.049-2.459,8.973
	c-1.9,5.49-4.074,10.885-6.023,16.357c-1.631,4.58-3.117,9.211-4.646,13.826c-2.078,6.277-4.208,12.538-6.163,18.854
	c-0.701,2.264-0.95,4.665-1.418,7.001c-0.109,0.544-0.207,1.104-0.417,1.612c-1.221,2.94-0.931,6.112-1.438,9.161
	c-0.18,1.081-0.352,2.163-0.967,3.354c-0.24-0.404-0.681-0.806-0.688-1.215c-0.061-3.018-0.341-6.076,0.043-9.043
	c0.456-3.527,1.342-7.025,2.337-10.449c1.624-5.584,3.438-11.114,5.262-16.638c1.95-5.903,3.985-11.779,6.02-17.655
	c1.72-4.968,3.493-9.918,5.294-15.023c-0.576-0.258-1.057-0.482-1.543-0.689c-4.992-2.13-10.05-4.119-14.963-6.414
	c-9.766-4.562-19.466-9.264-29.164-13.967c-6.443-3.125-13.309-5.289-19.618-8.717c-9.331-5.068-18.704-10.061-28.014-15.166
	c-7.771-4.261-15.463-8.664-23.218-12.955c-3.911-2.165-7.874-4.238-11.832-6.318c-4.045-2.126-8.336-3.186-12.934-3.408
	c-4.915-0.237-9.807-0.938-14.715-1.364c-3.486-0.304-6.985-0.47-10.477-0.735c-1.187-0.09-2.365-0.285-3.546-0.451
	c-2.28-0.32-4.561-0.637-6.835-0.988c-1.172-0.182-2.331-0.437-3.496-0.656c-0.702-0.134-1.401-0.354-2.107-0.382
	C1693.928,73.011,1688.403,70.418,1685.377,66.493z"/>
<path fill-rule="evenodd" clip-rule="evenodd" fill="#FFFFFF" stroke="#000000" stroke-width="4" stroke-miterlimit="10" d="
	M1976.924,376.929c1.988-0.219,1.96-0.206,3.112,2.521c0.593,1.403,1.182,2.773,0.49,4.346c3.339,3.054,7.142,5.168,11.264,6.768
	c4.315,1.675,8.702,1.702,13.155,0.67c0.613-0.143,1.268-0.144,1.902-0.147c2.56-0.016,5.12,0.039,7.678-0.021
	c2.53-0.059,5.058-0.226,7.654-0.779c-0.66-0.285-1.321-0.57-2.493-1.076c2.709-0.544,4.925-0.992,7.142-1.432
	c0.938-0.187,1.883-0.335,2.816-0.538c0.738-0.159,1.467-0.139,1.961-1.061c0.271-0.507,1.348-0.749,2.087-0.812
	c3.479-0.299,6.694-1.521,9.805-2.933c10.104-4.583,20.151-9.293,30.222-13.951c1.433-0.663,2.869-1.318,4.305-1.977
	c0.109,0.12,0.219,0.24,0.329,0.36c-0.561,0.56-1.042,1.242-1.694,1.657c-2.887,1.832-5.737,3.75-8.762,5.329
	c-3.959,2.068-8.072,3.841-12.111,5.757c-0.564,0.268-1.086,0.626-1.547,1.243c0.467-0.081,0.939-0.138,1.398-0.249
	c2.55-0.62,5.09-1.284,7.649-1.861c0.688-0.155,1.484-0.238,2.142-0.047c2.039,0.593,3.714-0.288,5.394-1.15
	c4.337-2.229,8.667-4.575,13.455-5.586c5.917-1.248,10.937-4.369,16.17-7.062c6.604-3.4,13.135-6.94,19.714-10.389
	c4.379-2.297,8.787-4.5,13.422-6.299c2.932-1.139,5.485-3.228,8.255-4.81c5.958-3.403,11.941-6.761,17.925-10.118
	c0.622-0.35,1.334-0.535,1.968-0.867c1.46-0.764,2.895-1.516,4.282-2.473c3.885-2.679,8.184-4.632,12.861-5.598
	c0.387-0.078,0.792-0.1,1.187-0.085c0.208,0.008,0.413,0.149,0.847,0.319c-0.459,0.473-0.814,0.844-1.178,1.209
	c-0.053,0.054-0.137,0.082-0.211,0.109c-6.037,2.132-10.667,6.627-16.188,9.633c-5.885,3.205-11.66,6.611-17.551,9.805
	c-1.8,0.977-3.802,1.602-5.75,2.278c-0.959,0.333-1.656,0.765-2.156,1.708c-0.378,0.716-1.012,1.433-1.714,1.815
	c-2.658,1.447-5.39,2.761-8.095,4.12c-8.273,4.16-16.612,8.196-24.805,12.512c-7.781,4.099-15.582,8.06-24.106,10.455
	c-2.587,0.727-5.066,1.917-7.497,3.099c-3.818,1.856-7.709,3.464-11.857,4.417c-1.005,0.231-2.025,0.48-2.966,0.891
	c-7.271,3.174-14.901,5.146-22.617,6.839c-6.461,1.419-12.94,2.751-19.605,2.487c-2.622-0.104-5.243-0.392-7.847-0.725
	c-0.917-0.117-1.994-0.398-2.628-0.997c-1.119-1.054-2.333-1.247-3.721-1.154c-0.159,0.011-0.321-0.014-0.479,0.004
	c-7.87,0.853-14.027-2.959-19.786-7.528c-2.03-1.61-3.667-3.806-2.92-6.843C1977.348,378.23,1977.059,377.647,1976.924,376.929z"/>
<path fill-rule="evenodd" clip-rule="evenodd" fill="#FFFFFF" stroke="#000000" stroke-width="4" stroke-miterlimit="10" d="
	M2367.283,222.098c-0.609,0.46-1.17,1.017-1.839,1.356c-1.206,0.612-2.449,1.173-3.726,1.617c-4.929,1.715-9.399,4.225-13.792,7.057
	c-7.375,4.755-14.991,9.14-22.567,13.576c-6.744,3.949-13.558,7.782-20.367,11.621c-5.632,3.174-11.376,6.156-16.938,9.447
	c-9.485,5.611-18.555,11.826-26.836,19.147c-5.434,4.804-10.945,9.52-16.438,14.257c-2.295,1.979-4.85,3.704-6.898,5.906
	c-3.63,3.904-6.994,8.059-10.396,12.169c-0.665,0.804-0.998,1.884-1.549,2.964c-1.098-0.221-1.234-0.991-0.802-1.891
	c0.446-0.928,0.987-1.83,1.61-2.65c1.541-2.025,3.152-3.996,4.949-6.258c-2.033,0.355-2.942,2.509-5.27,2.342
	c4.092-4.521,9.167-7.369,13.291-11.304c4.15-3.96,8.184-8.045,12.268-12.075c0.134,0.102,0.269,0.203,0.402,0.305
	c-0.541,0.881-1.082,1.76-1.624,2.641c0.073,0.072,0.146,0.146,0.22,0.22c1.29-1.101,2.58-2.202,3.869-3.303
	c4.182-3.572,8.582-6.923,12.495-10.769c6.004-5.899,13.342-9.756,20.46-13.897c16.765-9.755,33.708-19.204,50.572-28.79
	c0.959-0.545,1.855-1.2,2.615-2.189c-1.001,0.363-2.004,0.725-3.002,1.092c-6.771,2.496-12.974,6.174-19.434,9.319
	c-7.244,3.528-14.667,6.692-21.912,10.22c-6.025,2.934-11.902,6.174-17.854,9.259c-2.412,1.25-4.782,2.618-7.292,3.636
	c-6.092,2.469-11.758,5.737-17.49,8.896c-2.863,1.577-5.752,3.134-8.736,4.456c-3.914,1.731-7.267,4.307-10.744,6.703
	c-8.21,5.658-16.198,11.648-24.971,16.459c-4.971,2.725-9.891,5.545-14.865,8.264c-0.895,0.488-1.898,1.344-3.188,0.128
	c14.471-8.745,29.561-16.312,42.809-27.225c-0.031-0.196-0.347-0.862-0.139-1.149c0.395-0.545,1.039-0.986,1.669-1.271
	c1.887-0.854,3.884-1.482,5.717-2.432c3.472-1.797,6.84-3.793,10.296-5.621c0.878-0.465,1.927-0.602,2.889-0.916
	c0.525-0.172,1.052-0.364,1.546-0.61c5.286-2.632,10.592-5.226,15.842-7.929c8.519-4.384,16.979-8.882,25.509-13.244
	c2.768-1.414,5.713-2.477,8.514-3.831c5.603-2.712,11.14-5.558,16.744-8.265c4.525-2.186,9.072-4.336,13.679-6.342
	c6.072-2.643,12.222-5.111,18.317-7.701c1.169-0.498,2.229-1.248,3.368-1.822c0.923-0.464,1.651-1.184,3.01-0.727
	c0.856,0.289,2.079-0.58,3.157-0.855c0.865-0.221,1.759-0.328,2.64-0.486C2367.142,221.767,2367.212,221.932,2367.283,222.098z"/>
<path fill-rule="evenodd" clip-rule="evenodd" fill="#FFFFFF" stroke="#000000" stroke-width="4" stroke-miterlimit="10" d="
	M2134.219,200.335c-3.626-0.812-6.7-2.645-9.622-4.729c-4.021-2.869-7.86-6.008-11.979-8.725
	c-6.808-4.49-14.102-8.111-21.519-11.504c-3.839-1.756-7.514-3.876-11.247-5.861c-4.369-2.322-8.654-4.818-13.1-6.984
	c-6.195-3.02-11.965-6.699-17.602-10.625c-14.077-9.807-28.258-19.465-42.21-29.445c-6.663-4.766-13.663-8.924-21.034-12.331
	c-10.061-4.649-19.079-10.933-28.395-16.78c-4.591-2.881-9.376-5.451-14.069-8.171c-5.24-3.038-10.537-5.989-15.688-9.173
	c-2.703-1.67-5.012-3.988-7.745-5.594c-3.457-2.03-5.922-5.046-8.689-7.773c-0.438-0.43-0.707-1.029-1.033-1.52
	c1.205-1.406,1.494-1.547,2.494-0.639c1.475,1.34,2.801,2.841,4.213,4.25c0.727,0.725,1.447,1.475,2.266,2.084
	c2.555,1.902,5.154,3.743,7.738,5.605c0.322,0.232,0.644,0.471,0.983,0.676c3.481,2.103,6.939,4.246,10.456,6.287
	c8.209,4.763,16.568,9.256,24.552,14.422c6.353,4.11,12.516,8.598,19.449,11.73c6.783,3.063,13.311,6.598,19.648,10.459
	c4.281,2.607,8.291,5.663,12.422,8.52c7.938,5.488,15.884,10.968,23.814,16.469c6.292,4.363,12.512,8.832,18.872,13.095
	c2.909,1.95,6.057,3.554,9.133,5.247c5.522,3.038,11.044,6.08,16.62,9.018c3.811,2.007,7.674,3.925,11.582,5.732
	c8.056,3.728,15.812,7.986,23.159,12.959c2.302,1.557,4.285,3.58,6.563,5.178c2.932,2.057,6.006,3.914,9.038,5.824
	C2134.072,198.53,2134.848,198.948,2134.219,200.335z"/>
<path fill-rule="evenodd" clip-rule="evenodd" fill="#FFFFFF" stroke="#000000" stroke-width="4" stroke-miterlimit="10" d="
	M2075.979,227.144c-1.477,0.508-2.485,0.938-3.535,1.2c-4.556,1.142-9.123,2.233-13.685,3.349c-0.305,0.075-0.67,0.129-0.881,0.327
	c-2.181,2.039-5.048,2.31-7.736,2.858c-7.864,1.605-15.787,2.928-23.647,4.551c-9.189,1.896-18.335,3.998-27.502,5.996
	c-4.043,0.881-8.095,1.719-12.139,2.594c-0.686,0.148-1.354,0.383-2.132,0.607c0,0.896-0.001,1.691,0,2.484
	c0.007,10.715-0.005,21.43,0.03,32.145c0.01,3.114,0.156,6.228,0.228,9.342c0.013,0.556,0.13,1.185-0.079,1.658
	c-1.131,2.564,0.772,4.023,2.087,5.605c0.405,0.488,1.448,0.459,2.205,0.641c0.761,0.183,1.544,0.285,2.283,0.528
	c0.192,0.063,0.383,0.54,0.343,0.79c-0.04,0.247-0.332,0.551-0.584,0.65c-1.967,0.776-4.944-0.062-6.325-1.709
	c-1.491-1.779-2.233-3.748-2.224-6.137c0.062-14.233,0.029-28.467,0.029-42.7c0-0.86,0-1.722,0-2.792
	c-1.197,0.154-2.129,0.202-3.027,0.4c-9.788,2.154-19.546,4.455-29.365,6.459c-6.3,1.285-12.677,2.209-19.04,3.156
	c-2.433,0.361-4.921,0.393-7.387,0.463c-0.777,0.021-1.564-0.318-2.565-0.541c1.179-1.713,2.767-1.562,4.084-1.8
	c7.663-1.387,15.389-2.458,23.015-4.021c12.074-2.475,24.078-5.295,36.128-7.891c13.84-2.982,27.683-5.954,41.555-8.78
	c6.535-1.331,13.16-2.22,19.707-3.498c2.724-0.532,5.327-1.649,8.026-2.339c6.245-1.596,12.515-3.091,18.773-4.629
	C2073.682,225.851,2074.629,226.033,2075.979,227.144z"/>
<path fill-rule="evenodd" clip-rule="evenodd" fill="#FFFFFF" stroke="#000000" stroke-width="4" stroke-miterlimit="10" d="
	M1870.782,431.737c-0.841,1.394-1.38,1.645-2.836,1.21c-4.032-1.204-8.166-2.109-11.975-3.98c-1.216-0.597-2.394-1.271-3.586-1.914
	c-4.788-2.583-9.764-4.707-14.998-6.214c-5.201-1.497-10.378-3.077-15.592-4.525c-5.279-1.468-10.596-2.805-15.887-4.235
	c-1.15-0.312-2.252-0.794-3.386-1.172c-6.279-2.091-12.63-3.992-18.822-6.314c-5.513-2.066-11.165-3.782-16.417-6.568
	c-3.088-1.639-6.459-2.739-9.688-4.116c-8.527-3.64-17.705-5.267-26.35-8.549c-6.63-2.519-13.287-4.969-19.953-7.388
	c-3.07-1.113-6.267-1.9-9.276-3.148c-5.671-2.352-11.25-4.928-16.866-7.412c-3.346-1.479-6.693-2.955-10.035-4.443
	c-2.393-1.065-4.861-1.999-7.133-3.28c-1.341-0.757-2.355-2.085-3.531-3.141c-0.761-0.684-1.445-1.389-2.65-1.411
	c-0.891-0.017-1.452-1.16-1.144-1.972c0.351-0.92,1.06-1.202,1.92-0.727c0.827,0.457,1.687,0.932,2.359,1.578
	c1.274,1.223,2.583,2.352,4.216,3.076c5.375,2.382,10.254,5.788,15.895,7.639c1.658,0.544,3.199,1.438,4.802,2.156
	c4.44,1.989,8.843,4.07,13.342,5.916c2.646,1.085,5.478,1.704,8.17,2.688c7.64,2.79,15.212,5.768,22.885,8.46
	c5.415,1.9,10.988,3.347,16.423,5.196c5.733,1.951,11.548,3.738,16.912,6.638c7.266,3.929,15.158,6.256,22.883,9.014
	c4.579,1.635,9.159,3.271,13.771,4.81c1.803,0.602,3.694,0.936,5.543,1.398c6.406,1.604,12.786,3.287,19.074,5.32
	c3.482,1.126,7.067,1.937,10.537,3.096c5.219,1.742,10.306,3.769,15.129,6.519c3.287,1.875,6.786,3.467,10.639,4.098
	C1867.017,430.342,1868.798,431.121,1870.782,431.737z"/>
<path fill-rule="evenodd" clip-rule="evenodd" fill="#FFFFFF" stroke="#000000" stroke-width="4" stroke-miterlimit="10" d="
	M1906.765,57.638c-3.188-0.301-6.166-0.623-9.15-0.855c-5.154-0.402-10.312-0.758-15.47-1.113
	c-3.497-0.241-7.002-0.395-10.495-0.686c-3.48-0.288-6.95-0.715-10.428-1.047c-1.111-0.106-2.234-0.084-3.35-0.156
	c-3.176-0.206-6.352-0.39-9.521-0.66c-2.533-0.215-5.052-0.59-7.584-0.812c-2.931-0.257-5.871-0.398-8.804-0.632
	c-3.489-0.277-6.977-0.585-10.462-0.906c-5.543-0.51-11.094-0.959-16.622-1.596c-3.388-0.39-6.731-1.152-10.112-1.619
	c-4.483-0.621-8.979-1.154-13.479-1.657c-4.582-0.513-9.172-0.956-13.761-1.401c-3.162-0.307-6.332-0.535-9.492-0.859
	c-1.181-0.122-2.336-0.479-3.516-0.624c-4.099-0.507-8.199-1.011-12.308-1.437c-5.14-0.534-10.291-0.956-15.43-1.493
	c-3.237-0.339-6.455-0.862-9.693-1.189c-4.034-0.407-8.09-0.61-12.117-1.062c-3.707-0.417-7.389-1.048-11.082-1.582
	c-1.338-0.193-2.688-0.328-4.008-0.607c-0.362-0.076-0.875-0.566-0.889-0.885c-0.015-0.365,0.376-0.971,0.718-1.082
	c0.65-0.212,1.441-0.336,2.087-0.165c4.08,1.081,8.234,1.582,12.43,1.968c6.643,0.611,13.266,1.444,19.9,2.142
	c2.771,0.291,5.557,0.438,8.33,0.716c3.951,0.395,7.9,0.827,11.846,1.282c3.549,0.409,7.131,0.671,10.629,1.354
	c5.176,1.009,10.419,1.185,15.635,1.704c2.926,0.292,5.849,0.605,8.772,0.909c1.502,0.155,3.013,0.259,4.505,0.479
	c7.066,1.042,14.123,2.163,21.195,3.158c3.223,0.454,6.476,0.694,9.716,1.011c3.64,0.357,7.279,0.719,10.923,1.027
	c3.41,0.289,6.827,0.484,10.237,0.771c3.563,0.302,7.12,0.697,10.685,0.992c3.492,0.291,6.993,0.471,10.484,0.766
	c3.641,0.309,7.272,0.704,10.91,1.044c1.428,0.134,2.859,0.22,4.289,0.325c5.71,0.424,11.42,0.846,17.13,1.271
	c4.676,0.349,9.354,0.686,14.027,1.061C1904.945,55.611,1906.201,56.183,1906.765,57.638z"/>
<path fill-rule="evenodd" clip-rule="evenodd" fill="#FFFFFF" stroke="#000000" stroke-width="4" stroke-miterlimit="10" d="
	M2032.333,306.735c0.752-0.12,1.502-0.324,2.257-0.346c5.108-0.147,10.217-0.282,15.326-0.368c4.229-0.071,8.467-0.203,12.545,1.313
	c0.641,0.238,1.425,0.129,2.142,0.116c6.544-0.114,13.088-0.323,19.632-0.34c4.709-0.012,9.421,0.19,14.128,0.38
	c1.345,0.055,2.683,0.366,4.013,0.617c3.277,0.615,6.549,1.258,9.818,1.91c0.382,0.076,0.744,0.274,1.09,0.463
	c0.024,0.014-0.162,0.415-0.324,0.82c0.66,0.039,1.406,0.113,2.154,0.123c3.98,0.057,7.932,0.125,11.917,0.658
	c4.551,0.607,9.214,0.371,14.002,0.506c0.065-0.963,0.151-1.656,0.153-2.348c0.014-5.039,0.04-10.078,0.006-15.117
	c-0.079-11.35,0.043-22.706-0.367-34.044c-0.287-7.894-0.803-15.78-0.637-23.683c0.1-4.771,0.512-9.525,1.318-14.24
	c0.16-0.936,0.135-1.914,0.1-2.869c-0.062-1.729,0.625-3.213,1.324-4.85c0.885,0.403,1.113,1.031,1.049,1.771
	c-0.331,3.803-0.727,7.601-1.025,11.406c-0.305,3.882-0.689,7.768-0.739,11.656c-0.058,4.545-0.02,9.114,0.378,13.638
	c1.115,12.688,0.429,25.396,0.664,38.092c0.072,3.908,0.24,7.815,0.357,11.722c0.017,0.56,0.165,1.194-0.041,1.668
	c-0.995,2.294-0.293,4.494,0.283,6.979c0.769,0.042,1.615,0.126,2.461,0.128c5.999,0.012,12.008-0.207,17.993,0.086
	c3.69,0.182,7.325,0.025,10.948-0.426c3.859-0.48,7.678-1.29,11.525-1.877c1.551-0.238,3.135-0.266,5.019-0.414
	c-0.683,1.219-1.591,1.27-2.387,1.436c-1.247,0.258-2.51,0.443-3.771,0.63c-0.916,0.136-1.873-0.024-2.399,1.151
	c-0.179,0.398-1.112,0.567-1.726,0.641c-1.815,0.219-3.645,0.486-5.467,0.471c-9.181-0.081-18.371-0.035-27.539-0.447
	c-7.25-0.326-14.475,0.445-21.709,0.062c-6.126-0.324-12.25-0.684-18.374-1.057c-0.418-0.025-0.822-0.286-1.738-0.623
	c1.377-0.275,2.22-0.443,3.063-0.613c-5.863-1.563-11.611-3.283-17.692-3.112c-1.815,0.052-3.638-0.339-5.46-0.406
	c-4.46-0.165-8.955-0.628-13.371-0.243c-2.59,0.227-5.179,0.745-7.805,0.662c-1.502-0.047-3.049-0.074-4.486-0.451
	c-2.51-0.658-5.029-0.716-7.587-0.727c-3.192-0.014-6.384-0.227-9.576-0.229c-3.032-0.002-6.063,0.17-9.097,0.235
	c-0.776,0.017-1.555-0.079-2.332-0.122C2032.344,306.995,2032.338,306.866,2032.333,306.735z"/>
<path fill-rule="evenodd" clip-rule="evenodd" fill="#FFFFFF" stroke="#000000" stroke-width="4" stroke-miterlimit="10" d="
	M2071.267,464.631c-0.678-0.147-1.355-0.294-2.038-0.442c-0.018-1.026,0.636-1.09,1.274-1.102c4.906-0.09,9.604-1.147,14.218-2.794
	c3-1.071,4.404-2.681,4.541-5.914c0.055-1.271,0.093-2.544,0.164-3.815c0.006-0.105,0.209-0.2,0.545-0.502
	c0.234,0.481,0.589,0.889,0.614,1.316c0.119,1.989,0.192,3.985,0.177,5.978c-0.004,0.504-0.303,1.077-0.627,1.493
	c-0.832,1.065-1.754,2.061-2.398,2.807c-1.49,0.235-2.684,0.229-3.729,0.622c-3.879,1.459-7.735,2.985-11.549,4.609
	c-3.11,1.324-6.212,2.369-9.688,2.275c-1.872-0.051-3.76,0.548-5.644,0.835c-3.689,0.561-7.38,1.108-11.071,1.662
	c-0.784,0.117-1.577,0.196-2.354,0.357c-3.806,0.785-7.604,1.607-11.413,2.382c-0.91,0.185-1.848,0.238-2.833,0.702
	c0.302,0.114,0.604,0.333,0.903,0.328c2.826-0.044,5.532,0.532,8.192,1.438c1.629,0.554,3.247,0.417,4.943,0.069
	c3.88-0.793,7.764-1.624,11.799-0.9c1.269,0.229,2.249,0.653,3.098,1.558c0.602,0.642,1.207,1.289,1.884,1.847
	c0.859,0.707,1.745,1.607,2.882,0.164c0.409,2.374,0.199,2.779-1.248,3.643c-1.243,0.741-2.256,0.271-2.951-0.65
	c-1.108-1.469-2.736-1.103-4.152-1.419c-0.916-0.205-1.91-0.062-2.87-0.073c-1.527-0.019-2.632,0.617-3.116,2.111
	c-0.468,1.443-1.461,2.011-2.925,1.892c-2.056-0.167-4.114-0.309-6.166-0.513c-0.252-0.024-0.473-0.362-0.995-0.79
	c2.891-0.864,5.633-0.014,8.188-0.562c1.834-3.377,3.89-4.336,7.66-3.691c0.998,0.171,2.02,0.203,3.419,0.336
	c-1.007-1.579-1.873-2.343-3.52-2.503c-2.394-0.232-4.642-0.399-7.046,0.344c-2.145,0.663-4.537,0.814-6.8,0.722
	c-2.11-0.086-4.188-0.825-6.293-1.213c-1.323-0.244-2.666-0.388-4.004-0.542c-1.029-0.119-2.074-0.129-3.097-0.286
	c-3.96-0.609-5.509-0.171-9.187,2.882c2.519,0.333,4.774,0.461,6.942,0.964c2.256,0.524,4.477,0.925,6.805,1.093
	c2.238,0.162,4.527-1.37,7.086,0.357c-0.771,0.361-1.266,0.765-1.795,0.814c-3.973,0.376-7.928,0.709-11.839-0.668
	c-1.478-0.521-3.14-0.519-4.719-0.753c-0.629-0.093-1.305-0.063-1.881-0.29c-1.898-0.744-3.78-1.144-5.812-0.514
	c-0.376,0.116-0.913-0.287-1.376-0.451c0.003-0.182,0.006-0.362,0.009-0.544c1.192-0.269,2.415-0.446,3.567-0.833
	c1.086-0.363,2.1-0.948,3.153-1.439c-0.71-1.009-1.353-1.923-1.996-2.837c0.102-0.074,0.203-0.149,0.305-0.225
	c0.485,0.528,0.918,1.118,1.467,1.569c0.8,0.656,1.75,0.817,2.678,0.271c3.026-1.779,5.646-2.547,8.746-2.61
	c1.029-0.021,2.07-0.141,3.078-0.348c3.961-0.815,7.907-1.701,11.868-2.521c1.007-0.208,2.049-0.24,3.068-0.396
	c4.078-0.627,8.151-1.291,12.233-1.899c1.724-0.257,3.463-0.571,5.194-0.569c2.094,0.002,3.863-0.848,5.685-1.637
	c0.368-0.16,0.715-0.371,1.071-0.559C2071.485,465.055,2071.376,464.843,2071.267,464.631z"/>
<path fill-rule="evenodd" clip-rule="evenodd" fill="#FFFFFF" stroke="#000000" stroke-width="4" stroke-miterlimit="10" d="
	M1878.502,435.462c1.401-0.319,2.296-0.709,3.185-0.695c5.039,0.077,9.728-1.63,14.489-2.86c4.703-1.214,9.302-2.829,13.96-4.221
	c8.163-2.438,16.307-4.952,24.515-7.229c9.438-2.619,18.933-5.045,28.419-7.489c2.77-0.713,5.599-1.195,8.396-1.807
	c0.534-0.117,1.042-0.349,1.788-0.604c-0.359-0.56-0.596-1.022-0.917-1.415c-3.435-4.188-6.92-8.334-10.31-12.557
	c-1.376-1.715-1.291-1.97-0.043-3.537c-1.373-4.571-3.784-8.918-3.981-13.879c-0.013-0.337,0.26-0.685,0.824-1.073
	c0.332,1.099,0.665,2.197,0.997,3.296c0.107-0.019,0.216-0.036,0.324-0.055c0-1.58,0-3.159,0-5.299
	c1.372,2.57,1.144,4.778,0.681,6.873c-0.222,1.007-0.251,1.824,0.094,2.73c0.737,1.938,1.511,3.862,2.175,5.824
	c0.346,1.024,0.41,2.144,0.746,3.173c0.392,1.203,0.73,2.507,1.457,3.502c2.533,3.47,5.264,6.796,7.838,10.237
	c1.125,1.505,2.412,1.939,4.127,1.218c0.279-0.117,0.594-0.152,0.896-0.227c0.252,1.428,0.252,1.428-1.766,2.763
	c1.583,1.891,3.128,3.791,4.731,5.641c3.342,3.854,6.67,7.723,10.086,11.51c3.281,3.639,7.008,6.772,11.446,8.914
	c2.791,1.346,5.711,2.422,8.554,3.664c1.156,0.506,2.26,1.13,3.329,2.074c-0.779-0.108-1.604-0.088-2.33-0.346
	c-6.043-2.151-11.961-4.678-16.807-8.948c-4.79-4.224-9.21-8.866-13.789-13.329c-0.228-0.222-0.536-0.446-0.614-0.725
	c-0.839-2.978-3.336-4.783-4.988-7.182c-0.74-1.075-1.54-1.182-2.659-0.908c-4.869,1.185-9.746,2.338-14.623,3.494
	c-5.266,1.248-10.561,2.38-15.793,3.754c-6.473,1.7-12.899,3.572-19.334,5.415c-6.434,1.842-12.904,3.574-19.26,5.656
	c-6.451,2.113-13.038,3.607-19.661,4.985c-1.548,0.321-3.161,0.35-4.749,0.438C1879.633,436.256,1879.312,435.916,1878.502,435.462z
	"/>
<path fill-rule="evenodd" clip-rule="evenodd" fill="#FFFFFF" stroke="#000000" stroke-width="4" stroke-miterlimit="10" d="
	M1993.507,480.447c-2.764,1.758-8.841,1.852-12.557,0.414c-1.958,0.554-3.201,1.789-3.907,3.766c-0.827,2.313-0.93,2.277-3.878,2.18
	c-0.441-1.803-0.523-3.518,0.727-5.15c0.518-0.675,0.983-1.531,1.085-2.354c0.275-2.22,1.724-3.036,3.619-3.522
	c0.643-0.165,1.238-0.513,1.963-0.823c-1.787-1.659-7.278-4.026-10.314-4.568c-1.537,1.279-3.235,2.395-4.538,3.861
	c-1.287,1.448-2.172,3.253-3.358,5.096c-0.628-1.378-0.585-2.695,0.36-3.711c1.782-1.913,3.729-3.673,5.621-5.481
	c0.559-0.533,1.164-1.016,1.818-1.583c2.62,1.079,5.403,2.216,8.176,3.374c0.883,0.369,1.846,0.662,2.589,1.229
	c1.923,1.47,4.086,1.611,6.355,1.497c0.707-0.035,1.424,0.164,2.134,0.151c0.668-0.012,1.35-0.101,1.997-0.267
	c0.994-0.256,1.959-0.848,2.947-0.875c3.746-0.106,7.496-0.043,11.621-0.043c0.853-0.918,1.978-2.135,3.109-3.345
	c0.273-0.292,0.522-0.646,0.859-0.83c3.287-1.788,6.602-3.854,10.413-3.832c5.868,0.032,11.576-0.699,17.277-1.995
	c5.646-1.283,11.339-2.373,17.044-3.368c3.281-0.573,6.623-0.822,9.945-1.148c1.064-0.104,2-0.251,2.743-1.691
	c-2.88-0.483-5.488-0.882-8.08-1.366c-2.657-0.496-5.329-0.964-7.939-1.65c-2.524-0.664-5.082-1.3-7.493-2.415
	c1.339-0.73,2.609-0.544,3.922-0.253c4.89,1.082,9.765,2.258,14.694,3.116c3.824,0.665,7.724,0.898,11.586,1.357
	c0.503,0.06,0.982,0.314,1.707,0.558c-0.37,0.316-0.54,0.575-0.667,0.556c-3.302-0.506-5.495,1.604-7.864,3.299
	c-0.194,0.14-0.366,0.309-0.649,0.55c-2.42-1.167-4.957-0.268-7.389,0.104c-6.429,0.979-12.841,2.084-19.189,3.568
	c-4.549,1.063-9.195,1.762-13.828,2.403c-2.119,0.294-4.312,0.104-6.469,0.053c-1.479-0.035-2.852,0.205-4.145,0.945
	c-0.551,0.315-1.137,0.613-1.746,0.776c-1.848,0.494-3.339,1.495-4.505,2.989c-1.832,2.347-4.242,3.156-7.167,2.992
	c-2.534-0.143-5.083-0.029-7.626-0.029c-0.132,0.244-0.265,0.488-0.397,0.732c0.365,0.094,0.729,0.188,1.279,0.328
	c-1.56,1.114-3.026,0.594-4.146,0.259c-4.69-1.403-9.141-0.246-13.621,0.855c-0.315,0.078-0.548,0.494-0.904,0.835
	c0.955,0.711,1.802,1.341,2.201,1.638c2.799,0.309,5.111,0.66,7.438,0.792C1988.613,480.547,1990.88,480.447,1993.507,480.447z
	 M1977.031,481.376c-2.499,0.939-3.124,2.213-2.026,4.198C1975.699,484.137,1976.308,482.875,1977.031,481.376z"/>
<path fill-rule="evenodd" clip-rule="evenodd" fill="#FFFFFF" stroke="#000000" stroke-width="4" stroke-miterlimit="10" d="
	M1946.654,363.644c0.931,0.409,1.86,0.817,2.79,1.227c0,1.322,0,2.586,0,3.85c-0.086,0.013-0.171,0.024-0.256,0.037
	c-0.162-0.864-0.322-1.729-0.483-2.592c-1.911-0.087-1.11,1.639-1.882,2.581c-0.786-0.493-1.555-0.977-2.419-1.519
	c-1.628,0.645-3.294,1.42-5.032,1.966c-3.941,1.238-7.9,2.437-11.896,3.481c-1.014,0.265-2.238,0.054-3.283-0.236
	c-1.01-0.279-1.76-0.166-2.303,0.659c-1.703,2.586-4.229,3.157-7.061,2.919c-1.636-0.138-2.656-1.186-2.632-2.841
	c0.039-2.593,0.906-4.856,3.339-6.152c0.847-0.451,1.331-1.035,1.667-1.901c1.202-3.096,3.099-5.716,5.45-8.061
	c2.767-2.758,5.419-5.629,8.129-8.443c0.373-0.388,0.795-0.729,1.556-1.419c-0.847,2.34-2.161,3.778-3.454,5.235
	c-2.852,3.215-5.715,6.421-8.525,9.671c-0.591,0.684-0.979,1.542-1.462,2.319c0.126,0.144,0.253,0.286,0.379,0.429
	c6.75-3.444,13.5-6.89,20.377-10.399c0.312,0.705,0.523,1.188,0.858,1.95c-2.488,2.616-4.868,5.424-7.572,7.874
	c-2.611,2.367-5.558,4.366-8.655,6.757c1.579,0.582,2.833,0.585,3.979,0.125c3.483-1.396,7.157-2.062,10.749-3.045
	c1.601-0.438,3.133-1.188,4.616-1.951c0.43-0.221,0.75-0.961,0.822-1.503c0.13-0.982,0.037-1.994,0.488-3.149
	c0.597,0.733,1.194,1.468,1.792,2.202c-0.272,0.267-0.547,0.532-0.82,0.797c0.285,0.204,0.57,0.408,1.304,0.934
	C1946.909,364.467,1946.782,364.055,1946.654,363.644z M1915.784,368.069c-1.958,1.768-2.894,4.902-2.001,6.147
	c0.876,1.223,3.856,0.998,5.94-0.47c0.168-0.118,0.237-0.377,0.348-0.562c-1.633-1.376-1.635-1.361-3.367-1.444
	c-0.544-0.026-1.092-0.12-1.617-0.26c-0.156-0.041-0.243-0.345-0.434-0.639c0.578-0.35,1.092-0.661,1.641-0.993
	C1916.132,369.285,1915.985,368.771,1915.784,368.069z M1919.877,370.646c0.497,0.911,0.94,1.397,1.956,1.006
	c1.646-0.635,2.561-1.798,3.239-3.908C1923.055,368.871,1921.489,369.746,1919.877,370.646z M1917.557,369.726
	c2.522-0.805,2.522-0.805,2.454-3.435C1917.774,367.443,1917.774,367.443,1917.557,369.726z M1937.284,356.956
	c-1.275,0.43-2.091,0.905-3.122,2.132C1935.632,358.681,1936.705,358.685,1937.284,356.956z"/>
<path fill-rule="evenodd" clip-rule="evenodd" fill="#FFFFFF" stroke="#000000" stroke-width="4" stroke-miterlimit="10" d="
	M2108.766,325.782c-0.216-0.814-0.727-1.646-0.536-2.266c0.336-1.094,1.038-2.1,1.72-3.047c0.195-0.273,0.992-0.443,1.252-0.27
	c0.475,0.32,1.111,0.986,1.045,1.408c-0.165,1.051-0.6,2.09-1.088,3.051c-0.6,1.183-1.495,2.224-2.027,3.43
	c-1.195,2.703-3.18,4.734-5.295,6.685c-2.803,2.582-5.6,5.169-8.682,8.017c1.168-0.146,1.965-0.246,3.041-0.38
	c-0.373,1.762-1.264,2.917-2.492,3.794c-2.594,1.851-5.191,3.699-7.864,5.431c-3.342,2.164-6.761,4.208-10.146,6.306
	c-0.338,0.209-0.651,0.537-1.014,0.606c-0.488,0.093-1.336,0.156-1.455-0.071c-0.245-0.461-0.354-1.328-0.076-1.67
	c0.845-1.039,1.793-2.065,2.893-2.814c3.953-2.691,7.984-5.268,11.987-7.887c0.646-0.423,1.295-0.84,1.985-1.286
	c-2.687-2.116-2.577-2.591,0.002-4.644c2.736-2.178,5.355-4.518,7.889-6.93c2.6-2.473,5.053-5.092,8.272-6.806
	C2108.436,326.302,2108.596,325.978,2108.766,325.782z"/>
<path fill-rule="evenodd" clip-rule="evenodd" fill="#FFFFFF" stroke="#000000" stroke-width="4" stroke-miterlimit="10" d="
	M2030.29,437.794c4.073,2.213,8.457,3.468,12.901,4.716c3.766,1.058,7.482,1.28,11.292,1.284c6.239,0.007,12.481,0.118,18.717-0.035
	c4.929-0.121,9.87-0.376,14.767-0.93c6.059-0.687,11.774-2.768,17.369-5.125c5.603-2.36,10.948-5.221,16.057-8.522
	c0.85-0.549,1.908-0.856,2.138-2.08c0.042-0.221,0.443-0.495,0.71-0.535c3.055-0.457,4.889-2.868,7.217-4.479
	c1.177-0.814,2.314-1.689,3.439-2.576c1.688-1.333,3.441-2.603,5.002-4.075c2.719-2.564,5.31-5.263,7.955-7.906
	c0.121,0.103,0.242,0.204,0.363,0.306c-0.989,1.267-1.928,2.577-2.977,3.793c-5.344,6.194-11.197,11.812-18.284,16.019
	c-5.009,2.975-9.91,6.15-15.05,8.878c-7.575,4.021-15.605,6.921-24.14,8.117c-2.653,0.371-5.389,0.14-8.086,0.22
	c-1.269,0.038-2.535,0.228-3.804,0.231c-7.039,0.024-14.081,0.138-21.115-0.04c-3.721-0.094-7.525-0.321-11.117-1.2
	c-4.471-1.095-8.797-2.839-12.863-5.098c-0.283-0.158-0.567-0.316-0.852-0.475C2030.05,438.119,2030.17,437.956,2030.29,437.794z"/>
<path fill-rule="evenodd" clip-rule="evenodd" fill="#FFFFFF" stroke="#000000" stroke-width="4" stroke-miterlimit="10" d="
	M2011.551,309.649c0.143,2.377,0.278,4.625,0.414,6.873c-0.197,0.02-0.395,0.041-0.592,0.061c-1.339-2.281-1.281-4.805-1.016-7.616
	c-6.135-0.84-12.273,0.116-18.451,0.657c-0.74,1.962-1.948,2.514-5.986,2.592c0.638-1.541,2.398-1.05,3.567-2.33
	c-1.106,0.125-1.902,0.111-2.639,0.314c-3.077,0.849-6.219,1.234-9.372,1.681c-3.277,0.464-6.456,1.589-9.7,2.328
	c-1.931,0.44-3.928,0.598-5.852,1.062c-1.824,0.44-3.694,0.912-5.363,1.737c-2.482,1.229-5.117,2.302-6.996,4.506
	c-0.144,0.17-0.381,0.373-0.574,0.37c-3.076-0.036-4.58,2.235-6.244,4.25c-0.392,0.475-0.648,1.06-1.262,1.298
	c1.298-2.91,2.998-5.409,6.162-6.461c0.439-0.146,0.872-0.389,1.234-0.68c6.416-5.146,13.885-8.062,21.701-10.229
	c0.439-0.123,0.941-0.016,1.993-0.016c-2.633,1.894-5.485,2.107-8.257,3.711c5.057-0.432,9.111-2.709,13.678-3.117
	c4.564-0.408,9.026-1.857,13.583-2.473c4.481-0.605,9.026-0.737,13.581-1.232c-3.373-1.819-7.294-2.283-10.587-4.232
	c0.047-0.166,0.095-0.332,0.143-0.498c2.41,0.607,4.854,1.107,7.221,1.851c2.506,0.786,4.891,1.987,7.419,2.665
	c2.282,0.612,4.679,0.859,7.041,1.092c3.563,0.352,7.138,0.61,10.713,0.795c3.421,0.176,6.849,0.195,10.272,0.31
	c0.73,0.024,1.592-0.253,2.345,0.923c-3.977,0-7.668,0-11.663,0c0.556,0.588,0.836,0.885,1.302,1.379
	c-2.265,0.334-4.15-0.352-5.987-0.893c-3.168-0.934-6.397-1.244-9.656-1.357C2013.012,308.944,2012.283,309.407,2011.551,309.649z"
	/>
<path fill-rule="evenodd" clip-rule="evenodd" fill="#FFFFFF" stroke="#000000" stroke-width="4" stroke-miterlimit="10" d="
	M2129.04,475.018c1.284-1.853,3.878,0.208,5.2-1.988c-0.978-1-2.006-1.896-3.514-2.045c-0.831-0.081-1.518-0.232-1.73-1.286
	c-0.074-0.363-0.786-0.766-1.261-0.852c-2.89-0.523-5.786-1.029-8.698-1.403c-2.124-0.273-4.277-0.321-6.414-0.512
	c-0.275-0.024-0.528-0.298-1.016-0.59c2.563-1.234,5.09-0.892,7.5-0.713c2.68,0.199,5.356,0.729,7.972,1.369
	c1.669,0.409,3.226,1.278,4.83,1.946c1.741,0.725,3.478,1.463,5.224,2.179c0.514,0.21,1.079,0.306,1.573,0.551
	c1.569,0.777,3.131,1.575,4.67,2.412c1.787,0.973,1.708,2.633-0.251,3.793c-0.176-0.223-0.437-0.431-0.531-0.698
	c-0.307-0.871-0.207-1.957-1.334-2.365c-1.56-0.564-3.109-1.163-4.692-1.656c-0.257-0.08-0.749,0.235-0.982,0.5
	c-1.171,1.327-2.45,2.161-4.378,1.855c-0.664-0.105-1.441,0.509-2.389,0.882c-2.514-2.08-5.727-2.98-8.904-4.019
	c-1.335-0.437-2.559-1.299-3.74-2.104c-2.728-1.858-5.748-1.654-8.779-1.366c-2.049,0.195-4.081,0.633-6.133,0.74
	c-2.089,0.108-4.15,0.12-5.824,1.507c-2.539-1.529-5.19-0.857-7.78-0.811c-3.589,0.064-7.178,0.208-10.765,0.164
	c-1.555-0.019-1.79-0.524-1.493-1.848c0.877,0.198,1.738,0.568,2.594,0.557c4.143-0.06,8.284-0.195,12.425-0.355
	c2.844-0.11,5.762,1.272,8.528-0.409c3.608,0.262,7.103-0.348,10.616-1.126c1.832-0.406,3.782-0.189,5.537,0.805
	c3.54,2.008,7.173,3.811,11.056,5.097C2127.102,473.541,2127.902,474.294,2129.04,475.018z"/>
<path fill-rule="evenodd" clip-rule="evenodd" fill="#FFFFFF" stroke="#000000" stroke-width="4" stroke-miterlimit="10" d="
	M2211.005,339.704c-1.1,0.278-1.772,0.448-2.779,0.703c0.599-1.25,1.553-1.493,2.359-1.748c1.822-0.574,3.215-1.684,4.48-3.054
	c1.245-1.349,2.559-2.632,3.8-3.9c0.599,0.272,1.427,0.304,2.004,0.058c-0.531-0.292-0.959-0.527-1.686-0.928
	c3.07-2.754,6.676-4.462,9.949-7.203c-1.014-0.21-1.666-0.346-2.315-0.48c0.329-1.887,0.82-2.146,2.315-1.535
	c0.838,0.343,1.77,0.457,2.768,0.701c-0.174,1.895-1.74,2.461-2.84,3.361c-1.092,0.894-2.305,1.639-3.316,2.802
	c0.648-0.214,1.297-0.429,1.946-0.642c0.095,0.129,0.188,0.26,0.282,0.39c-0.724,0.661-1.399,1.385-2.179,1.971
	c-3.31,2.489-6.746,4.817-9.942,7.441c-1.959,1.608-3.744,3.509-5.299,5.518c-3.836,4.961-8.516,9.044-13.17,13.167
	c-1.969,1.744-3.929,3.498-5.936,5.198c-0.565,0.479-1.279,0.785-1.926,1.17c-0.129-0.119-0.257-0.238-0.385-0.357
	c0.183-0.445,0.253-1.006,0.568-1.317c1.303-1.285,2.647-2.535,4.039-3.726c1.812-1.551,3.415-3.232,4.908-5.134
	c1.953-2.489,4.523-4.488,6.788-6.738C2207.236,343.639,2208.973,341.796,2211.005,339.704z"/>
<path fill-rule="evenodd" clip-rule="evenodd" fill="#FFFFFF" stroke="#000000" stroke-width="4" stroke-miterlimit="10" d="
	M1864.84,217.268c0.331,0.485,0.689,0.955,0.989,1.458c1.918,3.216,3.647,6.563,5.8,9.613c1.304,1.847,3.089,3.471,4.944,4.793
	c8.931,6.359,18.453,11.697,28.484,16.145c3.498,1.551,6.859,3.408,10.27,5.153c0.402,0.206,0.716,0.589,1.347,1.125
	c-1.993,0.348-3.509-0.29-4.973-0.868c-2.446-0.967-4.845-2.056-7.239-3.146c-6.757-3.076-13.609-6.005-19.76-10.211
	c-4.597-3.146-9.174-6.388-13.36-10.044c-3.589-3.134-5.427-7.615-7.113-12.03c-0.199-0.521-0.027-1.185-0.027-1.781
	C1864.414,217.405,1864.627,217.336,1864.84,217.268z"/>
<path fill-rule="evenodd" clip-rule="evenodd" fill="#FFFFFF" stroke="#000000" stroke-width="4" stroke-miterlimit="10" d="
	M2096.554,452.208c-0.078-1.189,0.435-1.541,1.142-1.519c8.047,0.256,15.325-2.872,22.661-5.428
	c11.064-3.854,22.032-8.015,32.89-12.416c4.776-1.936,9.182-4.785,13.757-7.217c0.718-0.382,1.447-0.743,2.282-0.929
	c-0.473,1.525-1.503,2.325-2.841,2.959c-1.565,0.741-3.046,1.682-4.498,2.634c-3.337,2.188-6.836,4.066-10.568,5.47
	c-10.45,3.929-20.861,7.971-31.399,11.646c-5.622,1.962-11.455,3.341-17.234,4.816
	C2100.77,452.73,2098.672,452.569,2096.554,452.208z"/>
<path fill-rule="evenodd" clip-rule="evenodd" fill="#FFFFFF" stroke="#000000" stroke-width="4" stroke-miterlimit="10" d="
	M2089.088,226.026c0.949-0.932,2.093-1.545,3.356-2.027c7.007-2.672,14.04-5.278,20.987-8.098c4.654-1.889,9.178-4.1,13.768-6.148
	c1.092-0.487,2.201-0.943,3.332-1.33c0.51-0.174,1.203-0.357,1.616-0.148c0.641,0.324,1.371,0.902,1.562,1.525
	c0.116,0.379-0.622,1.401-1.13,1.531c-6.396,1.629-11.992,5.146-18.036,7.602c-6.662,2.707-13.368,5.213-20.36,6.9
	c-1.6,0.386-3.243,0.594-4.866,0.883C2089.241,226.485,2089.164,226.256,2089.088,226.026z"/>
<path fill-rule="evenodd" clip-rule="evenodd" fill="#FFFFFF" stroke="#000000" stroke-width="4" stroke-miterlimit="10" d="
	M2041.739,377.191c1.19-1.388,2.822-2.187,4.472-2.85c7.028-2.823,14.097-5.545,21.132-8.351c6.455-2.574,12.72-5.539,18.643-9.203
	c1.392-0.861,2.888-1.557,4.336-2.328c0.127,0.158,0.254,0.316,0.381,0.475c-1.082,1.055-2.08,2.215-3.259,3.146
	c-5.684,4.488-12.006,7.859-18.762,10.42c-7.607,2.883-15.227,5.735-22.862,8.542c-1.223,0.449-2.561,0.586-3.845,0.868
	C2041.896,377.671,2041.817,377.431,2041.739,377.191z"/>
<path fill-rule="evenodd" clip-rule="evenodd" fill="#FFFFFF" stroke="#000000" stroke-width="4" stroke-miterlimit="10" d="
	M2123.242,453.833c-3.106,0.754-6.213,1.509-9.452,2.295c0.738-1.884,2.8-1.368,3.884-2.385c-2.791-0.29-4.519,0.194-6.604,1.981
	c-1.393,1.193-2.712,2.471-4.085,3.688c-0.393,0.349-0.855,0.621-1.508,1.086c-0.141-0.67-0.227-1.083-0.295-1.405
	c-3.729-0.871-5.846,2.09-8.342,3.751c-1.1-0.741-0.527-1.372-0.19-1.8c1.64-2.079,3.721-3.643,6.425-3.701
	c2.149-0.047,3.813-1.018,5.535-2.002c0.309-0.177,0.739-0.602,0.701-0.849c-0.248-1.604,1.02-1.869,1.999-2.243
	c0.907-0.346,1.945-0.875,2.778,0.358c0.181,0.269,0.886,0.285,1.338,0.251c4.599-0.339,9.197-0.686,13.791-1.1
	c0.856-0.077,1.684-0.468,2.529-0.698c1.683-0.46,3.353-0.997,5.062-1.323c0.721-0.137,1.529,0.18,2.757,0.355
	c-2.24,1.522-4.438,2.193-6.497,2.211c-3.753,0.033-6.474,1.893-9.176,4.017c-3.12,2.454-6.213,4.941-9.4,7.481
	c-0.828-0.49-0.441-1.065,0.139-1.592c2.124-1.927,4.26-3.841,6.4-5.75c0.809-0.72,1.641-1.412,2.462-2.117
	C2123.409,454.173,2123.326,454.003,2123.242,453.833z"/>
<path fill-rule="evenodd" clip-rule="evenodd" fill="#FFFFFF" stroke="#000000" stroke-width="4" stroke-miterlimit="10" d="
	M2078.819,275.774c-0.036-0.81-0.1-1.574-0.1-2.34c-0.006-10.461-0.041-20.922,0.015-31.381c0.023-4.463,0.24-8.924,0.369-13.385
	c0.005-0.16-0.047-0.359,0.029-0.471c0.237-0.353,0.523-0.672,0.79-1.004c0.261,0.346,0.708,0.671,0.749,1.041
	c0.2,1.816,0.402,3.645,0.406,5.469c0.033,13.095,0.022,26.19,0.014,39.285C2081.091,275.025,2081.063,275.025,2078.819,275.774z"/>
<path fill-rule="evenodd" clip-rule="evenodd" fill="#FFFFFF" stroke="#000000" stroke-width="4" stroke-miterlimit="10" d="
	M2181.732,394.616c-1.663,1.551-2.878,2.689-4.108,3.812c-0.079,0.072-0.28,0.009-0.565,0.009c0.071-0.326,0.043-0.688,0.21-0.892
	c4.268-5.196,8.556-10.376,13.22-16.019c-0.17,0.97-0.121,1.457-0.332,1.768c-1.562,2.299-3.133,4.595-4.796,6.821
	c-0.713,0.954-1.247,1.841-1.579,3.065c-0.531,1.963-1.587,3.825-2.646,5.596c-4.054,6.772-8.162,13.513-12.332,20.215
	c-1.047,1.684-2.295,3.274-3.645,4.727c-0.975,1.048-2.066,2.233-4.182,1.916c0.543-0.684,0.84-1.219,1.278-1.585
	c2.801-2.339,4.815-5.324,6.735-8.349c4.19-6.597,8.262-13.268,12.375-19.914C2181.477,395.606,2181.5,395.371,2181.732,394.616z"/>
<path fill-rule="evenodd" clip-rule="evenodd" fill="#FFFFFF" stroke="#000000" stroke-width="4" stroke-miterlimit="10" d="
	M1956.25,334.38c-0.768,0.059-1.536,0.119-2.321,0.18c1.068,1.188,1.241,1.225,2.9,0.571c1.486,1.001,2.117,2.426,2.051,4.251
	c-0.07,1.976,0.256,3.985-1.348,5.641c-1.324,1.369-4.219,1.943-5.873,0.971c-3.06-1.798-4.075-5.682-2.275-8.736
	c0.282-0.479,0.627-0.924,0.903-1.406c0.79-1.376,1.925-2.033,3.543-1.873c0.788,0.077,1.59,0.013,2.386,0.013
	C1956.228,334.12,1956.239,334.249,1956.25,334.38z M1949.923,340.976c0.003,0,0.006,0,0.008,0c0,0.397-0.025,0.798,0.006,1.193
	c0.062,0.793,0.423,1.475,1.275,1.427c0.797-0.044,1.231-0.661,1.24-1.494c0.008-0.716,0.153-1.478-0.041-2.136
	c-0.176-0.592-0.683-1.458-1.129-1.514c-0.879-0.109-1.37,0.629-1.359,1.567C1949.926,340.339,1949.923,340.657,1949.923,340.976z
	 M1957.218,342.667c0.162,0.021,0.324,0.041,0.486,0.061c0-1.139,0-2.278,0-3.418c-0.341,0.244-0.467,0.516-0.476,0.789
	C1957.201,340.954,1957.218,341.812,1957.218,342.667z"/>
<path fill-rule="evenodd" clip-rule="evenodd" fill="#FFFFFF" stroke="#000000" stroke-width="4" stroke-miterlimit="10" d="
	M1872.283,331.14c0,5.273,0.047,10.549-0.012,15.823c-0.075,6.706-0.203,13.411-0.369,20.116c-0.158,6.377-0.581,12.754-0.552,19.13
	c0.043,9.019,0.29,18.041,0.662,27.053c0.168,4.036,0.875,8.049,1.287,12.076c0.104,1.007,0.016,2.032-0.377,3.187
	c-0.235-0.306-0.636-0.588-0.682-0.92c-0.437-3.142-0.969-6.281-1.168-9.441c-0.257-4.06-0.211-8.139-0.338-12.208
	c-0.053-1.669-0.22-3.335-0.328-5.002c-0.031-0.479-0.064-0.959-0.055-1.438c0.145-7.666,0.009-15.351,0.51-22.993
	c0.941-14.374,0.32-28.752,0.566-43.127c0.014-0.763,0.26-1.522,0.397-2.283C1871.979,331.12,1872.131,331.13,1872.283,331.14z"/>
<path fill-rule="evenodd" clip-rule="evenodd" fill="#FFFFFF" stroke="#000000" stroke-width="4" stroke-miterlimit="10" d="
	M2143.168,401.364c2.448-2.854,4.896-5.707,7.344-8.561c-0.083-0.126-0.166-0.252-0.249-0.379c-1.089,0.344-2.177,0.688-3.265,1.03
	c-0.061-0.152-0.121-0.304-0.182-0.456c1.396-0.524,2.799-1.028,4.183-1.58c0.637-0.254,1.36-0.472,1.831-0.927
	c2.069-2.003,3.355-4.625,5.633-6.555c2.145-1.818,3.832-4.261,5.427-6.627c2.983-4.428,5.778-8.983,8.6-13.519
	c1.175-1.888,2.216-3.857,3.728-5.671c-0.174,0.596-0.301,1.21-0.525,1.784c-2.576,6.586-6.165,12.6-10.361,18.266
	c-3.947,5.33-8.376,10.237-13.078,14.908c-2.608,2.592-5.164,5.237-7.758,7.844c-0.3,0.302-0.691,0.512-1.041,0.765
	C2143.357,401.579,2143.264,401.472,2143.168,401.364z"/>
<path fill-rule="evenodd" clip-rule="evenodd" fill="#FFFFFF" stroke="#000000" stroke-width="4" stroke-miterlimit="10" d="
	M2051.457,299.503c0.002-2.234,0.445-3.709,1.74-4.988c4.019-3.971,8.696-6.682,14.301-7.601c0.82-0.135,1.736,0.318,2.945,0.569
	c1.363-1.154,3.154-2.391,4.576-3.963c1.302-1.439,2.395-3.139,1.936-5.363c-0.226-1.096,0.562-1.334,1.492-1.191
	c1.415,4.582-1.386,9.045-6.429,10.135c-0.148,0.379-0.199,0.959-0.515,1.216c-0.506,0.411-1.594,0.983-1.729,0.837
	c-1.104-1.203-2.034-0.145-3.002,0.088c-4.975,1.193-8.926,4.074-12.483,7.604C2053.47,297.66,2052.604,298.43,2051.457,299.503z"/>
<path fill-rule="evenodd" clip-rule="evenodd" fill="#FFFFFF" stroke="#000000" stroke-width="4" stroke-miterlimit="10" d="
	M2017.221,446.209c1.896-0.955,3.296-0.267,4.646-0.17c3.72,0.268,7.43,0.675,11.139,1.078c2.993,0.325,5.938,0.715,8.874,1.632
	c2.259,0.705,4.88,0.425,7.327,0.31c3.333-0.157,6.651-0.612,9.982-0.858c0.992-0.073,2.107-0.304,3.006,0.818
	c-1.408,0.247-2.714,0.568-4.038,0.692c-5.392,0.505-10.782,1.15-16.211,0.828c-2.611-0.155-5.211-0.512-7.813-0.792
	c-0.395-0.043-0.966-0.036-1.141-0.278c-1.375-1.91-3.477-1.067-5.232-1.392c-2.96-0.546-5.968-0.828-8.951-1.249
	C2018.435,446.775,2018.084,446.554,2017.221,446.209z"/>
<path fill-rule="evenodd" clip-rule="evenodd" fill="#FFFFFF" stroke="#000000" stroke-width="4" stroke-miterlimit="10" d="
	M1919.321,259.884c-1.619,0.591-2.758,1.119-3.953,1.422c-6.088,1.542-12.286,2.415-18.524,3.088
	c-4.645,0.502-9.269,1.195-13.905,1.773c-0.695,0.087-1.411,0.012-2.268,0.012c0.573-1.226,1.675-1.129,2.504-1.262
	c4.932-0.787,9.891-1.401,14.82-2.203c5.943-0.965,11.86-2.088,17.801-3.071C1916.728,259.488,1917.704,258.819,1919.321,259.884z"
	/>
<path fill-rule="evenodd" clip-rule="evenodd" fill="#FFFFFF" stroke="#000000" stroke-width="4" stroke-miterlimit="10" d="
	M1873.314,272.27c1.237,1.852,0.921,3.878,0.834,5.841c-0.167,3.809-0.657,7.607-0.698,11.414c-0.104,9.744-0.02,19.491-0.05,29.236
	c-0.005,1.83-0.157,3.662-0.312,5.486c-0.044,0.512-0.34,1.002-0.635,1.823C1872.146,307.896,1871.715,290.076,1873.314,272.27z"/>
<path fill-rule="evenodd" clip-rule="evenodd" fill="#FFFFFF" stroke="#000000" stroke-width="4" stroke-miterlimit="10" d="
	M1969.001,460.437c-1.66-0.138-3.324-0.242-4.979-0.43c-0.62-0.069-1.263-0.241-1.815-0.523c-1.232-0.627-1.304-1.574-0.187-2.391
	c0.504-0.368,1.11-0.615,1.699-0.845c1.845-0.72,3.672-1.518,5.569-2.059c1.035-0.295,2.211-0.25,3.304-0.15
	c1.571,0.145,3.128,0.463,4.685,0.743c0.462,0.083,0.923,0.247,1.349,0.449c0.748,0.354,1.52,0.892,1.268,1.783
	c-0.188,0.67-0.727,1.479-1.325,1.755c-2.33,1.073-4.85,1.459-7.406,1.551c-0.717,0.026-1.434,0.004-2.15,0.004
	C1969.007,460.362,1969.005,460.399,1969.001,460.437z M1964.272,458.071c3.573,1.245,12.269,0.696,14.495-0.829
	C1975.779,454.941,1968.563,455.298,1964.272,458.071z"/>
<path fill-rule="evenodd" clip-rule="evenodd" fill="#FFFFFF" stroke="#000000" stroke-width="4" stroke-miterlimit="10" d="
	M1884.871,243.622c0.827,0.697,0.799,1.566,0.558,2.399c-0.441,1.518-0.886,3.046-1.496,4.499c-2.064,4.91-4.19,9.795-6.322,14.676
	c-0.357,0.818-0.858,1.575-1.293,2.36c-0.178-0.078-0.354-0.157-0.532-0.235c0.3-1.267,0.464-2.585,0.923-3.791
	c2.482-6.523,5.036-13.021,7.585-19.52C1884.358,243.845,1884.647,243.766,1884.871,243.622z"/>
<path fill-rule="evenodd" clip-rule="evenodd" fill="#FFFFFF" stroke="#000000" stroke-width="4" stroke-miterlimit="10" d="
	M2160.46,373.34c4.747-5.906,9.083-11.595,11.997-18.212c0.3-0.682,1.016-1.283,0.48-2.197c-0.099-0.17,0.139-0.587,0.295-0.844
	c0.661-1.08,1.316-2.168,2.052-3.198c0.222-0.311,0.694-0.442,1.206-0.749C2174.793,355.858,2165.013,371.402,2160.46,373.34z"/>
<path fill-rule="evenodd" clip-rule="evenodd" fill="#FFFFFF" stroke="#000000" stroke-width="4" stroke-miterlimit="10" d="
	M1905.416,467.357c-0.798,1.53-2.469,1.574-3.795,2.141c-4.179,1.783-8.567,1.671-12.945,1.062
	c-2.169-0.303-4.021-1.198-3.974-3.929c-3.17-0.142-5.995-0.973-6.889-4.213c-0.745-2.7,0.052-5.201,2.676-6.959
	c0.701,1.188-0.373,1.94-0.815,2.549c-1.192,1.638-1.598,3.808-0.555,5.305c1.354,1.946,3.412,2.521,5.623,2.608
	c0.466,0.019,0.991-0.407,1.419-0.724c0.557-0.411,1.043-0.918,1.849-1.121c-0.55,0.599-1.126,1.175-1.646,1.799
	c-1.115,1.337-0.953,2.492,0.558,3.326c0.681,0.375,1.489,0.616,2.264,0.704c5.407,0.618,10.665,0.205,15.577-2.417
	c0.193-0.104,0.466-0.057,0.701-0.08L1905.416,467.357z"/>
<path fill-rule="evenodd" clip-rule="evenodd" fill="#FFFFFF" stroke="#000000" stroke-width="4" stroke-miterlimit="10" d="
	M2181.898,337.997c1.68-2.09,3.32-4.212,5.046-6.262c3.355-3.986,6.183-8.27,7.837-13.26c0.267-0.805,0.689-1.559,1.453-2.293
	c0,0.633,0.148,1.311-0.027,1.89c-0.531,1.742-1.018,3.531-1.828,5.148c-2.951,5.891-7.188,10.79-11.949,15.254
	C2182.253,338.315,2182.076,338.156,2181.898,337.997z"/>
<path fill-rule="evenodd" clip-rule="evenodd" fill="#FFFFFF" stroke="#000000" stroke-width="4" stroke-miterlimit="10" d="
	M1931.404,445.894c-1.581-2.744-4.845-2.023-7.208-3.351c0.934-0.933,1.716-1.113,2.721-0.711c1.1,0.441,2.307,0.631,3.379,1.124
	c1.004,0.461,2.045,1.129,2.01,2.428c-0.037,1.337-0.918,2.237-2.132,2.603c-1.586,0.478-3.218,0.845-4.855,1.09
	c-1.094,0.164-2.232,0.062-3.349,0.024c-2.194-0.073-2.857-0.778-2.598-2.696c0.308-2.27,1.014-2.762,3.562-2.223
	c-1.283,0.819-3.107,1.169-2.249,3.462c0.636,0.036,1.397,0.109,2.16,0.117c1.836,0.018,3.673,0.02,5.509,0
	C1929.708,447.745,1930.833,447.326,1931.404,445.894z"/>
<path fill-rule="evenodd" clip-rule="evenodd" fill="#FFFFFF" stroke="#000000" stroke-width="4" stroke-miterlimit="10" d="
	M2186.048,370.597c0.915-2.632,13.308-14.103,15.665-14.953c-0.547,0.844-0.834,1.469-1.281,1.945
	c-2.623,2.795-5.236,5.603-7.951,8.307c-1.292,1.288-2.771,2.398-4.227,3.508C2187.596,369.904,2186.787,370.205,2186.048,370.597z"
	/>
<path fill-rule="evenodd" clip-rule="evenodd" fill="#FFFFFF" stroke="#000000" stroke-width="4" stroke-miterlimit="10" d="
	M1894.846,82.669c3.321-6.413,6.642-12.828,9.983-19.23c0.073-0.141,0.409-0.145,0.885-0.295c-0.124,0.576-0.146,1-0.305,1.365
	c-0.789,1.818-1.713,3.584-2.406,5.438c-1.805,4.828-4.592,9.043-7.757,13.039C1895.112,82.88,1894.979,82.774,1894.846,82.669z"/>
<path fill-rule="evenodd" clip-rule="evenodd" fill="#FFFFFF" stroke="#000000" stroke-width="4" stroke-miterlimit="10" d="
	M1905.464,467.408c0-0.39,0-0.78,0-1.285c-4.78-1.386-9.773-1.745-14.75-3.422c0.975-0.931,1.866-0.695,2.669-0.65
	c2.047,0.116,4.097,0.241,6.13,0.493c0.584,0.072,1.08,0.708,1.676,0.876c1.064,0.301,2.209,0.334,3.254,0.681
	c0.99,0.329,1.896,0.916,2.795,1.367c-0.33,1.244-0.657,2.025-1.821,1.89L1905.464,467.408z"/>
<path fill-rule="evenodd" clip-rule="evenodd" fill="#FFFFFF" stroke="#000000" stroke-width="4" stroke-miterlimit="10" d="
	M2149.163,438.949c1.419,0.897,1.55,1.814,1.354,2.8c-0.415,2.092-1.238,3.955-3.186,5.089c-1.234,0.719-2.463,1.46-3.756,2.06
	c-0.391,0.182-0.985-0.078-1.487-0.135c0.212-0.527,0.301-1.176,0.668-1.551c0.422-0.431,1.102-0.601,1.648-0.92
	c0.886-0.517,1.8-1.002,2.618-1.613c1.002-0.748,1.511-1.758,1.511-3.086C2148.534,440.793,2148.9,439.993,2149.163,438.949z"/>
<path fill-rule="evenodd" clip-rule="evenodd" fill="#FFFFFF" stroke="#000000" stroke-width="4" stroke-miterlimit="10" d="
	M2141.754,408.85c6.036-6.358,12.536-12.227,17.758-19.284C2155.12,397.413,2148.571,403.285,2141.754,408.85z"/>
<path fill-rule="evenodd" clip-rule="evenodd" fill="#FFFFFF" stroke="#000000" stroke-width="4" stroke-miterlimit="10" d="
	M1933.101,344.835c-0.053-6.467,5.72-19.539,9.865-21.959C1938.283,329.912,1934.706,336.958,1933.101,344.835z"/>
<path fill-rule="evenodd" clip-rule="evenodd" fill="#FFFFFF" stroke="#000000" stroke-width="4" stroke-miterlimit="10" d="
	M2187.417,375.601c3.208-3.938,6.381-7.916,10.034-11.479c0.375,1.719-0.877,2.578-1.681,3.499
	C2193.242,370.515,2191.244,373.982,2187.417,375.601z"/>
<path fill-rule="evenodd" clip-rule="evenodd" fill="#FFFFFF" stroke="#000000" stroke-width="4" stroke-miterlimit="10" d="
	M2141.784,214.651c-1.027-4.451-2.205-8.776-4.515-12.728c1.618,0.465,3.319,2.605,4.165,5.392
	C2142.15,209.675,2143.148,212.099,2141.784,214.651z"/>
<path fill-rule="evenodd" clip-rule="evenodd" fill="#FFFFFF" stroke="#000000" stroke-width="4" stroke-miterlimit="10" d="
	M1868.235,462.938c-1.479,0.229-2.971,0.694-4.435,0.622c-1.511-0.076-3.302-0.233-3.917-2.069
	c-0.428-1.281,0.959-3.756,2.427-4.596c1.224-0.7,2.47-1.065,3.796,0.252c-2.306,0.668-4.656,1.178-4.923,4.115
	c1.302,1.204,2.918,1.204,4.472,1.393c0.859,0.104,1.72,0.192,2.579,0.287L1868.235,462.938z"/>
<path fill-rule="evenodd" clip-rule="evenodd" fill="#FFFFFF" stroke="#000000" stroke-width="4" stroke-miterlimit="10" d="
	M2082.963,466.076c0.291-0.944,0.297-1.562,0.607-1.845c0.634-0.575,1.395-1.29,2.17-1.38c2.564-0.299,5.158-0.345,8.212-0.514
	c-0.469,0.677-0.646,1.167-0.835,1.172c-2.137,0.059-4.034,1.546-6.297,0.985c-0.518-0.128-1.196,0.312-1.777,0.549
	C2084.492,465.269,2083.973,465.57,2082.963,466.076z"/>
<path fill-rule="evenodd" clip-rule="evenodd" fill="#FFFFFF" stroke="#000000" stroke-width="4" stroke-miterlimit="10" d="
	M2193.355,374.46c-2.631,4.087-5.152,8.265-8.953,11.403c-0.172-0.137-0.344-0.273-0.516-0.41c3.008-3.794,6.017-7.588,9.025-11.382
	C2193.061,374.2,2193.208,374.33,2193.355,374.46z"/>
<path fill-rule="evenodd" clip-rule="evenodd" fill="#FFFFFF" stroke="#000000" stroke-width="4" stroke-miterlimit="10" d="
	M2016.47,438.24c4.642,2.96,9.98,3.366,15.17,4.794c-0.549,0.088-1.126,0.334-1.643,0.24
	C2025.182,442.398,2020.233,441.855,2016.47,438.24z"/>
<path fill-rule="evenodd" clip-rule="evenodd" fill="#FFFFFF" stroke="#000000" stroke-width="4" stroke-miterlimit="10" d="
	M1971.499,368.735c-0.414,3.529-0.85,7.097-2.115,10.948C1968.653,377.128,1969.806,371.156,1971.499,368.735z"/>
<path fill-rule="evenodd" clip-rule="evenodd" fill="#FFFFFF" stroke="#000000" stroke-width="4" stroke-miterlimit="10" d="
	M1965.359,481.932c-0.245-1.861,0.489-3.06,3.279-5.573c0.764-0.688,1.625-1.359,2.979-0.362
	C1968.71,477.052,1967.717,479.934,1965.359,481.932z"/>
<path fill-rule="evenodd" clip-rule="evenodd" fill="#FFFFFF" stroke="#000000" stroke-width="4" stroke-miterlimit="10" d="
	M1925.374,486.463c-1.287,0-2.385,0-3.482,0c-0.014-0.062-0.029-0.125-0.044-0.188c0.746-0.119,1.492-0.239,2.362-0.379
	c-0.866-1.774-2.729-1.277-4.001-2.14c0.007-0.992,0.646-1.085,1.394-0.961C1924.065,483.203,1925.204,484.257,1925.374,486.463z"/>
<path fill-rule="evenodd" clip-rule="evenodd" fill="#FFFFFF" stroke="#000000" stroke-width="4" stroke-miterlimit="10" d="
	M2003.478,480.414c-2.361,0.626-4.28,2.053-6.474,0.693C1998.626,479.258,2001.37,478.825,2003.478,480.414z"/>
<path fill-rule="evenodd" clip-rule="evenodd" fill="#FFFFFF" stroke="#000000" stroke-width="4" stroke-miterlimit="10" d="
	M1900.126,458.281c0.168,0.674,0.337,1.348,0.595,2.382c-0.925-0.771-1.663-1.265-2.241-1.901c-0.629-0.693-1.113-1.519-1.656-2.289
	c-0.549-0.777-1.027-1.616-1.655-2.323c-0.688-0.774-1.513-1.427-2.276-2.131c0.875-0.362,1.643,0.156,2.278,1.027
	c0.654,0.896,1.222,1.864,1.94,2.704c0.838,0.979,1.798,1.854,2.705,2.773C1899.919,458.442,1900.022,458.361,1900.126,458.281z"/>
<path fill-rule="evenodd" clip-rule="evenodd" fill="#FFFFFF" stroke="#000000" stroke-width="4" stroke-miterlimit="10" d="
	M2100.719,426.77c3.718-1.698,7.435-3.397,11.152-5.096c-3.251,2.663-7.015,4.188-10.877,5.499
	C2100.902,427.038,2100.811,426.904,2100.719,426.77z"/>
<path fill-rule="evenodd" clip-rule="evenodd" fill="#FFFFFF" stroke="#000000" stroke-width="4" stroke-miterlimit="10" d="
	M1868.234,462.941c0.075-1.608-0.74-2.448-2.274-2.773c-0.818-0.174-1.602-0.515-2.506-0.815c1.233-1.342,3.738-0.579,5.592,1.509
	c-0.255,0.651-0.532,1.361-0.811,2.073C1868.235,462.938,1868.234,462.941,1868.234,462.941z"/>
<path fill-rule="evenodd" clip-rule="evenodd" fill="#FFFFFF" stroke="#000000" stroke-width="4" stroke-miterlimit="10" d="
	M2004.722,475.621c0.73,2.543,3.632,2.843,5.113,4.896C2006.568,480.33,2004.186,478.046,2004.722,475.621z"/>
<path fill-rule="evenodd" clip-rule="evenodd" fill="#FFFFFF" stroke="#000000" stroke-width="4" stroke-miterlimit="10" d="
	M2123.167,416.606c0.181,0.348,0.317,0.61,0.552,1.06c-4.389,1.467-8.76,0.592-13.083,0.629
	C2114.762,417.404,2119.183,419.082,2123.167,416.606z"/>
<path fill-rule="evenodd" clip-rule="evenodd" fill="#FFFFFF" stroke="#000000" stroke-width="4" stroke-miterlimit="10" d="
	M2004.206,326.942c-2.592,1.932-4.624,4.574-7.828,5.732c2.478-2.076,4.956-4.152,7.435-6.227
	C2003.943,326.612,2004.075,326.777,2004.206,326.942z"/>
<path fill-rule="evenodd" clip-rule="evenodd" fill="#FFFFFF" stroke="#000000" stroke-width="4" stroke-miterlimit="10" d="
	M1988.708,344.022c1.522-2.92,4.052-4.955,6.62-6.966c-2.072,2.45-4.146,4.901-6.218,7.351
	C1988.977,344.279,1988.842,344.151,1988.708,344.022z"/>
<path fill-rule="evenodd" clip-rule="evenodd" stroke="#000000" stroke-width="4" stroke-miterlimit="10" d="M1682.397,63.343
	c-0.187-2.277-0.346-4.207-0.504-6.139c0.15-0.025,0.302-0.051,0.453-0.076c0.399,1.748,0.833,3.488,1.152,5.251
	C1683.536,62.578,1682.928,62.894,1682.397,63.343z"/>
<path fill-rule="evenodd" clip-rule="evenodd" fill="#FFFFFF" stroke="#000000" stroke-width="4" stroke-miterlimit="10" d="
	M1951.779,331.733c-1.416,1.919-2.524,3.422-3.677,4.984C1947.31,334.976,1948.757,332.878,1951.779,331.733z"/>
<path fill-rule="evenodd" clip-rule="evenodd" fill="#FFFFFF" stroke="#000000" stroke-width="4" stroke-miterlimit="10" d="
	M1947.528,361.708c-1.73-1.572-4.137-2.392-5.343-4.551c0.141-0.161,0.281-0.322,0.421-0.484c1.795,1.508,3.59,3.016,5.385,4.523
	C1947.837,361.367,1947.683,361.537,1947.528,361.708z"/>
<path fill-rule="evenodd" clip-rule="evenodd" fill="#FFFFFF" stroke="#000000" stroke-width="4" stroke-miterlimit="10" d="
	M1966.949,476.226c-0.292-2.395,0.678-3.266,3.361-3.039C1969.193,474.196,1968.147,475.142,1966.949,476.226z"/>
<path fill-rule="evenodd" clip-rule="evenodd" fill="#FFFFFF" stroke="#000000" stroke-width="4" stroke-miterlimit="10" d="
	M2093.314,466.692c-2.018,0.183-3.916-0.38-5.928-1.213C2088.988,464.727,2090.756,465.064,2093.314,466.692z"/>
<path fill-rule="evenodd" clip-rule="evenodd" fill="#FFFFFF" stroke="#000000" stroke-width="4" stroke-miterlimit="10" d="
	M2136.538,402.038c2.159-0.914,3.909-1.655,5.659-2.396C2140.895,401.52,2139.159,402.303,2136.538,402.038z"/>
<path fill-rule="evenodd" clip-rule="evenodd" fill="#FFFFFF" stroke="#000000" stroke-width="4" stroke-miterlimit="10" d="
	M2127.688,413.59c-0.494-0.159-0.979-0.357-1.484-0.467c-0.432-0.094-0.885-0.084-1.358-0.491c1.919-0.297,3.838-0.595,5.757-0.893
	c0.056,0.105,0.111,0.212,0.167,0.317c-1.047,0.489-2.095,0.978-3.142,1.467L2127.688,413.59z"/>
<path fill-rule="evenodd" clip-rule="evenodd" fill="#FFFFFF" stroke="#000000" stroke-width="4" stroke-miterlimit="10" d="
	M1941.649,331.569c0.461-2.095,1.318-3.866,3.17-5.028C1943.763,328.217,1942.706,329.894,1941.649,331.569z"/>
<path fill-rule="evenodd" clip-rule="evenodd" fill="#FFFFFF" stroke="#000000" stroke-width="4" stroke-miterlimit="10" d="
	M1886.091,451.352c-1.495,1.085-2.811,2.038-4.266,3.094C1883.047,452.445,1883.373,452.209,1886.091,451.352z"/>
<path fill-rule="evenodd" clip-rule="evenodd" fill="#FFFFFF" stroke="#000000" stroke-width="4" stroke-miterlimit="10" d="
	M1947.797,445.723c-1.179,1.426-1.797-0.961-2.865-0.285c0.022-0.205,0.046-0.41,0.068-0.614c0.923,0.055,1.846,0.108,2.769,0.163
	C1947.778,445.231,1947.787,445.478,1947.797,445.723z"/>
<path fill-rule="evenodd" clip-rule="evenodd" fill="#FFFFFF" stroke="#000000" stroke-width="4" stroke-miterlimit="10" d="
	M2179.831,343.409c-0.992,0.627-1.984,1.252-3.341,2.109C2177.3,343.825,2178.528,343.562,2179.831,343.409z"/>
<path fill-rule="evenodd" clip-rule="evenodd" fill="#FFFFFF" stroke="#000000" stroke-width="4" stroke-miterlimit="10" d="
	M1935.537,348.87c1.265-0.443,1.595,0.199,2.119,1.079C1936.6,349.997,1936.19,349.492,1935.537,348.87z"/>
<path fill-rule="evenodd" clip-rule="evenodd" fill="#FFFFFF" stroke="#000000" stroke-width="4" stroke-miterlimit="10" d="
	M2004.719,310.688c-0.534-0.337-0.949-0.599-1.385-0.872c0.185-0.213,0.261-0.39,0.364-0.408
	C2004.567,309.259,2005.025,309.515,2004.719,310.688z"/>
<path fill-rule="evenodd" clip-rule="evenodd" fill="#FFFFFF" stroke="#000000" stroke-width="4" stroke-miterlimit="10" d="
	M1955.386,376.894c-0.166-0.496-0.332-0.992-0.497-1.488c0.077-0.028,0.155-0.056,0.232-0.084c0.171,0.476,0.343,0.951,0.515,1.427
	C1955.552,376.797,1955.469,376.845,1955.386,376.894z"/>
<path fill-rule="evenodd" clip-rule="evenodd" fill="#FFFFFF" stroke="#000000" stroke-width="4" stroke-miterlimit="10" d="
	M1953.84,347.708c-0.533,0.201-1.066,0.402-1.6,0.603c-0.068-0.149-0.137-0.3-0.205-0.45c0.519-0.23,1.038-0.459,1.558-0.689
	C1953.675,347.351,1953.758,347.529,1953.84,347.708z"/>
<path fill-rule="evenodd" clip-rule="evenodd" fill="#FFFFFF" stroke="#000000" stroke-width="4" stroke-miterlimit="10" d="
	M1976.621,367.795c-0.088,0.392-0.176,0.783-0.264,1.175c-0.076-0.011-0.153-0.021-0.23-0.032c0.022-0.408,0.044-0.816,0.066-1.226
	C1976.336,367.74,1976.479,367.768,1976.621,367.795z"/>
<path fill-rule="evenodd" clip-rule="evenodd" fill="#FFFFFF" stroke="#000000" stroke-width="4" stroke-miterlimit="10" d="
	M2021.65,444.989c0.572,0,1.145,0,1.716,0c0.001,0.07,0.002,0.141,0.003,0.211c-0.573,0-1.146,0-1.719,0
	C2021.65,445.13,2021.65,445.06,2021.65,444.989z"/>
<path fill-rule="evenodd" clip-rule="evenodd" fill="#FFFFFF" stroke="#000000" stroke-width="4" stroke-miterlimit="10" d="
	M1940.916,343.588c0,0.595,0,1.19,0,1.785c-0.098,0.005-0.195,0.009-0.293,0.015c-0.03-0.59-0.06-1.18-0.089-1.77
	C1940.661,343.608,1940.789,343.599,1940.916,343.588z"/>
<path fill-rule="evenodd" clip-rule="evenodd" fill="#FFFFFF" stroke="#000000" stroke-width="4" stroke-miterlimit="10" d="
	M1977.026,364.586c0-0.604,0-1.21,0-1.814c0.1-0.007,0.2-0.014,0.3-0.02c0.032,0.584,0.065,1.169,0.098,1.754
	C1977.291,364.532,1977.159,364.56,1977.026,364.586z"/>
<path fill-rule="evenodd" clip-rule="evenodd" fill="#FFFFFF" stroke="#000000" stroke-width="4" stroke-miterlimit="10" d="
	M2127.627,413.523c-0.477,0.503-0.952,1.005-1.428,1.508c-0.09-0.106-0.178-0.214-0.268-0.32c0.586-0.372,1.172-0.744,1.758-1.119
	C2127.688,413.59,2127.627,413.523,2127.627,413.523z"/>
<path fill-rule="evenodd" clip-rule="evenodd" fill="#FFFFFF" stroke="#000000" stroke-width="4" stroke-miterlimit="10" d="
	M1957.218,342.667c0-0.855-0.017-1.713,0.011-2.568c0.009-0.273,0.135-0.545,0.476-0.789c0,1.14,0,2.279,0,3.418
	C1957.542,342.708,1957.38,342.688,1957.218,342.667z"/>
<path fill-rule="evenodd" clip-rule="evenodd" fill="#FFFFFF" stroke="#000000" stroke-width="4" stroke-miterlimit="10" d="
	M1864.375,194.722c0,0-220.789-95.798-330.819-135.694c-117.012-42.428-456.658,23.958-512.826,54.562
	c-200.174,109.069-529.196,142-708.296,79.415c-108.479-37.907-288.028-32.176-288.028-32.176s102.01,104.944,99.01,127.387
	s-75.008,66.797-87.009,85.124s213.021,8.187,282.028,36.646c203.646,83.988,680.604-10.908,728.275-75.761
	c57.803-78.636,435.841-153.864,507.848-141.221c72.008,12.644,139.215,15.77,186.252,24.443
	c39.382,7.262,143.123,33.072,143.123,33.072L1864.375,194.722z"/>
</svg>
