<?xml version="1.0" encoding="utf-8"?>
<!-- Generator: Adobe Illustrator 16.0.0, SVG Export Plug-In . SVG Version: 6.00 Build 0)  -->
<!DOCTYPE svg PUBLIC "-//W3C//DTD SVG 1.1//EN" "http://www.w3.org/Graphics/SVG/1.1/DTD/svg11.dtd">
<svg version="1.1" id="Layer_1" xmlns="http://www.w3.org/2000/svg" xmlns:xlink="http://www.w3.org/1999/xlink" x="0px" y="0px"
	 width="864.516px" height="806.452px" viewBox="0 0 864.516 806.452" enable-background="new 0 0 864.516 806.452"
	 xml:space="preserve">
<path fill-rule="evenodd" clip-rule="evenodd" fill="#FFFFFF" stroke="#FFFFFF" stroke-width="4" stroke-miterlimit="10" d="
	M123.951,208.875c0.113,1.67,0.16,3.248,0.334,4.811c0.688,6.159,1.396,12.315,2.134,18.469c0.567,4.73,1.231,9.449,1.767,14.182
	c0.25,2.214,0.324,4.449,0.422,6.676c0.04,0.9,0.166,1.623,0.871,2.35c0.536,0.551,0.848,1.543,0.86,2.346
	c0.139,9.432,0.232,18.865,0.275,28.298c0.022,4.931-0.089,9.86,0.924,14.729c0.128,0.615,0.045,1.275,0.045,1.916
	c0.002,5.839-0.032,11.68,0.011,17.519c0.038,5.272-0.02,10.555,0.299,15.812c0.25,4.113,0.354,8.279,1.541,12.296
	c0.165,0.559,0.183,1.313-0.065,1.81c-0.5,0.996-2.032,0.84-2.433-0.274c-0.482-1.34-0.885-2.742-1.065-4.15
	c-0.335-2.603-0.641-5.228-0.683-7.847c-0.19-12.068,0.275-24.176-0.56-36.196c-0.999-14.386-0.254-28.747-0.636-43.112
	c-0.015-0.557,0.062-1.162-0.125-1.662c-1.181-3.185-1.145-6.557-1.567-9.852c-0.494-3.857-0.891-7.727-1.302-11.594
	c-0.572-5.375-1.1-10.753-1.683-16.125c-0.334-3.075-0.755-6.141-1.095-9.214c-0.049-0.443-0.019-1.073,0.25-1.337
	c0.543-0.533,0.557-0.861,0.25-1.579c-0.44-1.034,0.529-1.739,1.273-1.997c1.554-0.537,3.221-1.14,4.821-1.086
	c6.385,0.212,12.5-1.204,18.619-2.689c0.212-0.051,0.39-0.249,0.823-0.539c-1.157-0.928-2.2-1.826-3.306-2.64
	c-6.3-4.631-11.417-10.411-16.083-16.614c-0.854-1.135-1.426-2.489-2.065-3.774c-1.276-2.564-2.439-5.188-3.78-7.717
	c-0.983-1.854-1.843-3.692-1.929-5.84c-0.031-0.778-0.282-1.569-0.546-2.315c-1.431-4.049-1.271-8.121-0.281-12.221
	c0.093-0.384,0.255-0.799,0.191-1.166c-0.555-3.193,0.906-5.977,1.916-8.789c2.828-7.877,5.924-15.657,8.782-23.524
	c3.432-9.448,6.755-18.938,10.072-28.428c2.158-6.174,3.897-12.516,6.408-18.538c3.216-7.717,4.512-15.912,6.698-23.88
	c0.701-2.556,0.439-5.378,0.584-8.079c0.053-1.004,0.008-2.014,0.008-3.02c0.174-0.023,0.349-0.047,0.523-0.07
	c0.125,0.367,0.364,0.738,0.357,1.104c-0.034,1.672-0.136,3.344-0.215,5.016c-0.011,0.239-0.072,0.486-0.032,0.717
	c0.686,3.914-0.412,7.766-0.408,11.656c0,0.644,0.029,1.158-0.7,1.764c-0.718,0.598-0.746,2.01-1.113,3.051
	c-0.419,1.188-0.875,2.363-1.322,3.541c-0.169,0.447-0.412,0.872-0.527,1.33c-2.292,9.135-5.512,17.982-8.559,26.867
	c-4.993,14.564-10.397,28.988-15.624,43.473c-1.138,3.154-2.255,6.314-3.387,9.471c-0.134,0.375-0.205,0.851-0.474,1.086
	c-2.096,1.834-1.97,4.393-2.222,6.796c-0.419,3.991-0.202,7.886,0.986,11.821c1.721,5.703,4.186,11.01,7.211,16.094
	c0.568,0.954,1.173,1.93,1.945,2.713c4.59,4.661,9.212,9.291,13.875,13.878c1.128,1.109,2.438,1.751,4.186,1.948
	c1.74,0.195,3.467,1.164,5.044,2.066c12.68,7.254,25.303,14.596,37.654,22.411c3.6,2.278,7.753,3.735,11.755,5.308
	c3.638,1.428,7.413,2.512,11.135,3.725c2.051,0.668,4.107,1.326,6.181,1.916c2.298,0.655,4.718,0.946,6.744,2.373
	c0.125,0.09,0.29,0.147,0.443,0.17c6.302,0.916,11.855,4.189,17.965,5.705c0.924,0.229,1.856,0.435,2.796,0.581
	c3.403,0.53,6.64,1.562,9.867,2.777c5.364,2.021,10.839,3.744,16.267,5.595c0.604,0.206,1.233,0.367,1.798,0.652
	c5.017,2.541,10.501,2.984,15.945,3.678c1.882,0.24,3.709,0.88,5.572,1.294c2.014,0.447,4.043,0.823,6.057,1.27
	c1.087,0.241,2.182,0.491,3.229,0.863c2.122,0.756,4.296,1.032,6.532,1.302c3.37,0.409,6.673,1.369,10.002,2.107
	c0.932,0.207,1.858,0.672,2.779,0.65c2.291-0.055,4.369,0.718,6.537,1.228c2.463,0.579,5.022,0.743,7.539,1.101
	c1.336,0.189,2.674,0.381,4.001,0.623c0.737,0.134,1.529,0.492,1.301,1.352c-0.099,0.369-1.011,0.805-1.494,0.742
	c-4.167-0.536-8.438-0.039-12.526-1.492c-1.839-0.654-3.885-0.722-5.831-1.085c-0.938-0.175-1.891-0.337-2.788-0.646
	c-3.866-1.333-7.842-2.04-11.917-2.247c-0.317-0.016-0.642-0.033-0.95-0.107c-4.711-1.146-9.41-2.348-14.135-3.432
	c-2.235-0.514-4.524-0.779-6.781-1.205c-4.354-0.822-8.912-0.812-12.907-3.127c-0.341-0.197-0.73-0.32-1.107-0.447
	c-4.671-1.57-9.349-3.121-14.015-4.71c-1.962-0.669-3.875-1.489-5.854-2.104c-2.122-0.66-4.295-1.152-6.442-1.732
	c-3.611-0.975-7.355-1.626-10.791-3.03c-3.716-1.52-7.58-2.425-11.347-3.69c-4.6-1.547-9.053-3.521-13.629-5.141
	c-3.218-1.14-6.526-2.031-9.813-2.968c-3.291-0.937-6.517-1.946-9.684-3.335c-3.541-1.553-7.447-2.265-11.18-3.387
	c-5.572-1.676-11.159-3.307-16.689-5.112c-5.478-1.788-11.081-2.882-16.768-3.708c-2.584-0.375-5.093-1.244-7.666-1.742
	c-3.66-0.707-7.339-1.326-11.025-1.887C128.892,209.338,126.525,209.158,123.951,208.875z M184.52,219.582
	c0.051-0.141,0.102-0.282,0.153-0.424c-0.646-0.447-1.271-0.931-1.943-1.335c-5.324-3.202-10.639-6.421-15.994-9.571
	c-4.121-2.426-8.293-4.762-12.453-7.121c-0.154-0.087-0.414,0.014-0.675,0.029c0.416,0.649,0.778,1.216,1.447,2.264
	c-1.249-0.238-2.072-0.214-2.703-0.551c-1.422-0.76-2.704-0.453-4.108,0.033c-6.054,2.093-12.269,3.326-18.706,3.264
	c-0.584-0.006-1.17,0.1-2.019,0.178c1.52,0.822,1.52,0.825,2.856,0.779c4.17-0.142,8.238,0.448,12.239,1.615
	c1.753,0.512,3.514,1.092,5.313,1.332c9.259,1.232,18.21,3.679,27.058,6.588C178.142,217.7,181.34,218.612,184.52,219.582z"/>
<path fill-rule="evenodd" clip-rule="evenodd" fill="#FFFFFF" stroke="#FFFFFF" stroke-width="4" stroke-miterlimit="10" d="
	M158.339,65.971c1.869,0.818,3.734,1.646,5.607,2.457c2.082,0.9,4,2.441,6.527,1.625c0.219-0.071,0.556,0.255,0.848,0.371
	c2.943,1.17,5.947,1.741,9.109,1.016c0.442-0.102,0.941,0.009,1.409,0.064c3.549,0.42,7.092,0.896,10.646,1.268
	c4.981,0.52,9.969,0.977,14.957,1.436c4.041,0.371,8.139,0.408,12.114,1.132c4.998,0.909,10.156,0.699,15.05,2.344
	c1.554,0.522,3.299,0.46,4.95,0.712c2.511,0.383,5.012,0.837,7.526,1.207c3.299,0.487,6.655,0.703,9.898,1.428
	c5.508,1.232,10.936,2.82,16.42,4.164c4.708,1.154,9.424,2.264,14.303,2.522c1.489,0.079,2.952,0.614,4.431,0.923
	c5.446,1.133,10.897,2.242,16.339,3.396c2.022,0.428,4,1.131,6.039,1.402c3.7,0.492,7.433,0.732,11.148,1.121
	c2.922,0.305,5.83,0.756,8.757,0.986c1.649,0.13,3.361,0.152,4.979-0.143c4.219-0.766,8.505-1.417,12.559-2.742
	c2.312-0.756,4.441-2.509,6.258-4.229c2.594-2.457,4.849-5.276,7.205-7.979c1.516-1.737,2.954-3.543,4.635-5.246
	c-0.21,0.521-0.389,1.057-0.637,1.561c-2.194,4.447-4.558,8.797-8.14,12.312c-1.531,1.502-3.195,2.886-4.911,4.175
	c-0.805,0.604-1.856,1.156-2.826,1.213c-2.774,0.162-5.097,1.721-7.668,2.271c-3.911,0.837-7.822,1.802-12.006,1.078
	c-4.447-0.77-9.019-0.814-13.535-1.183c-3.73-0.305-7.393-0.963-11.042-1.823c-5.179-1.223-10.414-2.208-15.621-3.312
	c-1.403-0.297-2.779-0.742-4.191-0.969c-1.878-0.301-3.814-0.295-5.666-0.697c-5.591-1.217-11.158-2.541-16.724-3.869
	c-5.107-1.218-10.199-2.5-15.301-3.739c-0.458-0.111-0.99-0.272-1.406-0.145c-2.747,0.849-5.364,0.011-8.015-0.499
	c-4.285-0.824-8.574-1.631-12.865-2.424c-0.273-0.051-0.58,0.078-1.011,0.146c0.208,0.316,0.284,0.574,0.452,0.666
	c7.477,4.123,14.962,8.23,22.445,12.344c9.935,5.459,19.866,10.925,29.804,16.38c6.16,3.382,12.271,6.858,18.513,10.082
	c4.606,2.378,9.38,4.435,14.094,6.601c9.359,4.301,18.715,8.609,28.101,12.852c3.346,1.514,6.765,2.865,10.168,4.247
	c0.708,0.288,1.494,0.382,2.436,0.612c0.32-0.929,0.63-1.646,0.817-2.395c1.942-7.802,3.708-15.65,5.841-23.399
	c1.774-6.446,3.967-12.776,5.987-19.154c0.554-1.749,1.119-3.495,1.736-5.222c0.591-1.654,1.187-3.312,1.901-4.916
	c3.279-7.358,6.627-14.686,9.875-22.058c0.468-1.063,0.517-2.31,0.775-3.468c0.112-0.504,0.262-1.002,0.625-1.482
	c1.043,2.016,0.976,4.067,0.135,6.075c-1.693,4.046-3.475,8.054-5.208,12.083c-1.827,4.245-3.835,8.425-5.411,12.762
	c-2.148,5.913-3.92,11.961-5.928,17.927c-2.852,8.472-4.174,17.321-6.47,25.929c-0.8,2.998-1.446,6.049-2.458,8.973
	c-1.9,5.49-4.074,10.885-6.024,16.357c-1.631,4.58-3.117,9.211-4.646,13.826c-2.078,6.277-4.208,12.538-6.163,18.854
	c-0.701,2.264-0.95,4.665-1.418,7.001c-0.109,0.544-0.206,1.104-0.417,1.612c-1.221,2.94-0.931,6.112-1.438,9.161
	c-0.18,1.081-0.352,2.163-0.967,3.354c-0.24-0.404-0.68-0.806-0.688-1.215c-0.061-3.018-0.341-6.076,0.043-9.043
	c0.456-3.527,1.342-7.025,2.337-10.449c1.624-5.584,3.438-11.114,5.262-16.638c1.95-5.903,3.985-11.779,6.02-17.655
	c1.72-4.968,3.493-9.918,5.294-15.023c-0.577-0.258-1.057-0.482-1.544-0.689c-4.992-2.13-10.049-4.119-14.963-6.414
	c-9.765-4.562-19.465-9.264-29.164-13.967c-6.443-3.125-13.309-5.289-19.618-8.717c-9.331-5.068-18.704-10.061-28.014-15.166
	c-7.771-4.261-15.463-8.664-23.218-12.955c-3.911-2.165-7.874-4.238-11.832-6.318c-4.045-2.126-8.336-3.186-12.934-3.408
	c-4.916-0.237-9.807-0.938-14.715-1.364c-3.487-0.304-6.986-0.47-10.477-0.735c-1.187-0.09-2.366-0.285-3.546-0.451
	c-2.28-0.32-4.561-0.637-6.835-0.988c-1.171-0.182-2.331-0.437-3.496-0.656c-0.702-0.134-1.401-0.354-2.107-0.382
	C166.89,72.488,161.366,69.896,158.339,65.971z"/>
<path fill-rule="evenodd" clip-rule="evenodd" fill="#FFFFFF" stroke="#FFFFFF" stroke-width="4" stroke-miterlimit="10" d="
	M449.886,376.406c1.988-0.219,1.96-0.206,3.112,2.521c0.593,1.403,1.182,2.773,0.49,4.346c3.339,3.054,7.142,5.168,11.264,6.768
	c4.315,1.675,8.702,1.702,13.155,0.67c0.613-0.143,1.268-0.144,1.902-0.147c2.56-0.016,5.121,0.039,7.677-0.021
	c2.531-0.059,5.059-0.226,7.654-0.779c-0.66-0.285-1.32-0.57-2.492-1.076c2.709-0.544,4.924-0.992,7.141-1.432
	c0.938-0.187,1.883-0.335,2.816-0.538c0.738-0.159,1.467-0.139,1.961-1.061c0.271-0.507,1.348-0.749,2.088-0.812
	c3.479-0.299,6.693-1.521,9.805-2.933c10.104-4.583,20.15-9.293,30.221-13.951c1.434-0.663,2.869-1.318,4.305-1.977
	c0.109,0.12,0.219,0.24,0.33,0.36c-0.561,0.56-1.043,1.242-1.695,1.657c-2.887,1.832-5.736,3.75-8.762,5.329
	c-3.959,2.068-8.072,3.841-12.111,5.757c-0.564,0.268-1.086,0.626-1.547,1.243c0.467-0.081,0.939-0.138,1.398-0.249
	c2.551-0.62,5.09-1.284,7.65-1.861c0.688-0.155,1.484-0.238,2.141-0.047c2.039,0.593,3.715-0.288,5.395-1.15
	c4.336-2.229,8.666-4.575,13.455-5.586c5.916-1.248,10.936-4.369,16.17-7.062c6.604-3.4,13.135-6.94,19.713-10.389
	c4.379-2.297,8.787-4.5,13.422-6.299c2.932-1.139,5.486-3.228,8.256-4.81c5.957-3.403,11.941-6.761,17.924-10.118
	c0.623-0.35,1.334-0.535,1.969-0.867c1.459-0.764,2.895-1.516,4.281-2.473c3.885-2.679,8.184-4.632,12.861-5.598
	c0.387-0.078,0.793-0.1,1.188-0.085c0.207,0.008,0.412,0.149,0.846,0.319c-0.459,0.473-0.814,0.844-1.178,1.209
	c-0.053,0.054-0.137,0.082-0.211,0.109c-6.037,2.132-10.666,6.627-16.188,9.633c-5.885,3.205-11.66,6.611-17.551,9.805
	c-1.799,0.977-3.801,1.602-5.75,2.278c-0.959,0.333-1.656,0.765-2.156,1.708c-0.377,0.716-1.012,1.433-1.713,1.815
	c-2.658,1.447-5.391,2.761-8.096,4.12c-8.273,4.16-16.611,8.196-24.805,12.512c-7.781,4.099-15.582,8.06-24.105,10.455
	c-2.588,0.727-5.066,1.917-7.498,3.099c-3.818,1.856-7.709,3.464-11.857,4.417c-1.004,0.231-2.025,0.48-2.965,0.891
	c-7.271,3.174-14.902,5.146-22.617,6.839c-6.461,1.419-12.941,2.751-19.605,2.487c-2.623-0.104-5.244-0.392-7.847-0.725
	c-0.917-0.117-1.994-0.398-2.628-0.997c-1.119-1.054-2.333-1.247-3.721-1.154c-0.159,0.011-0.321-0.014-0.479,0.004
	c-7.87,0.853-14.027-2.959-19.786-7.528c-2.03-1.61-3.667-3.806-2.92-6.843C450.31,377.708,450.021,377.125,449.886,376.406z"/>
<path fill-rule="evenodd" clip-rule="evenodd" fill="#FFFFFF" stroke="#FFFFFF" stroke-width="4" stroke-miterlimit="10" d="
	M840.245,221.575c-0.609,0.46-1.17,1.017-1.838,1.356c-1.207,0.612-2.449,1.173-3.727,1.617c-4.928,1.715-9.398,4.225-13.791,7.057
	c-7.375,4.755-14.992,9.14-22.568,13.576c-6.744,3.949-13.557,7.782-20.367,11.621c-5.631,3.174-11.375,6.156-16.938,9.447
	c-9.484,5.611-18.555,11.826-26.836,19.147c-5.434,4.804-10.945,9.52-16.438,14.257c-2.295,1.979-4.85,3.704-6.898,5.906
	c-3.629,3.904-6.994,8.059-10.396,12.169c-0.664,0.804-0.998,1.884-1.549,2.964c-1.098-0.221-1.234-0.991-0.801-1.891
	c0.445-0.928,0.986-1.83,1.609-2.65c1.541-2.025,3.152-3.996,4.949-6.258c-2.033,0.355-2.941,2.509-5.27,2.342
	c4.092-4.521,9.168-7.369,13.291-11.304c4.15-3.96,8.184-8.045,12.268-12.075c0.135,0.102,0.27,0.203,0.402,0.305
	c-0.541,0.881-1.082,1.76-1.623,2.641c0.072,0.072,0.146,0.146,0.219,0.22c1.291-1.101,2.58-2.202,3.869-3.303
	c4.182-3.572,8.582-6.923,12.496-10.769c6.004-5.899,13.342-9.756,20.459-13.897c16.766-9.755,33.709-19.204,50.572-28.79
	c0.959-0.545,1.855-1.2,2.615-2.189c-1,0.363-2.004,0.725-3.002,1.092c-6.771,2.496-12.973,6.174-19.434,9.319
	c-7.244,3.528-14.666,6.692-21.912,10.22c-6.025,2.934-11.902,6.174-17.854,9.259c-2.412,1.25-4.783,2.618-7.293,3.636
	c-6.092,2.469-11.758,5.737-17.49,8.896c-2.863,1.577-5.752,3.134-8.736,4.456c-3.914,1.731-7.266,4.307-10.744,6.703
	c-8.209,5.658-16.197,11.648-24.971,16.459c-4.971,2.725-9.891,5.545-14.865,8.264c-0.895,0.488-1.898,1.344-3.188,0.128
	c14.471-8.745,29.561-16.312,42.809-27.225c-0.031-0.196-0.346-0.862-0.139-1.149c0.395-0.545,1.039-0.986,1.67-1.271
	c1.887-0.854,3.883-1.482,5.717-2.432c3.471-1.797,6.84-3.793,10.295-5.621c0.879-0.465,1.928-0.602,2.889-0.916
	c0.525-0.172,1.053-0.364,1.547-0.61c5.285-2.632,10.592-5.226,15.842-7.929c8.518-4.384,16.979-8.882,25.508-13.244
	c2.768-1.414,5.713-2.477,8.514-3.831c5.604-2.712,11.141-5.558,16.744-8.265c4.525-2.186,9.072-4.336,13.68-6.342
	c6.072-2.643,12.221-5.111,18.316-7.701c1.17-0.498,2.229-1.248,3.369-1.822c0.922-0.464,1.65-1.184,3.01-0.727
	c0.855,0.289,2.078-0.58,3.156-0.855c0.865-0.221,1.76-0.328,2.641-0.486C840.104,221.244,840.174,221.409,840.245,221.575z"/>
<path fill-rule="evenodd" clip-rule="evenodd" fill="#FFFFFF" stroke="#FFFFFF" stroke-width="4" stroke-miterlimit="10" d="
	M607.181,199.812c-3.625-0.812-6.699-2.645-9.621-4.729c-4.021-2.869-7.861-6.008-11.98-8.725
	c-6.807-4.49-14.102-8.111-21.518-11.504c-3.84-1.756-7.514-3.876-11.248-5.861c-4.369-2.322-8.654-4.818-13.1-6.984
	c-6.195-3.02-11.965-6.699-17.602-10.625c-14.076-9.807-28.258-19.465-42.209-29.445c-6.663-4.766-13.663-8.924-21.034-12.331
	c-10.061-4.649-19.079-10.933-28.395-16.78c-4.591-2.881-9.376-5.451-14.069-8.171c-5.241-3.038-10.537-5.989-15.689-9.173
	c-2.703-1.67-5.012-3.988-7.745-5.594c-3.457-2.03-5.922-5.046-8.69-7.773c-0.437-0.43-0.707-1.029-1.033-1.52
	c1.206-1.406,1.494-1.547,2.494-0.639c1.474,1.34,2.801,2.841,4.213,4.25c0.726,0.725,1.446,1.475,2.265,2.084
	c2.555,1.902,5.154,3.743,7.738,5.605c0.323,0.232,0.644,0.471,0.983,0.676c3.481,2.103,6.939,4.246,10.457,6.287
	c8.208,4.763,16.567,9.256,24.551,14.422c6.353,4.11,12.516,8.598,19.449,11.73c6.783,3.063,13.311,6.598,19.648,10.459
	c4.281,2.607,8.291,5.663,12.421,8.52c7.939,5.488,15.885,10.968,23.814,16.469c6.293,4.363,12.512,8.832,18.873,13.095
	c2.908,1.95,6.057,3.554,9.133,5.247c5.521,3.038,11.043,6.08,16.619,9.018c3.811,2.007,7.674,3.925,11.582,5.732
	c8.057,3.728,15.812,7.986,23.16,12.959c2.301,1.557,4.285,3.58,6.562,5.178c2.932,2.057,6.006,3.914,9.039,5.824
	C607.034,198.008,607.81,198.426,607.181,199.812z"/>
<path fill-rule="evenodd" clip-rule="evenodd" fill="#FFFFFF" stroke="#FFFFFF" stroke-width="4" stroke-miterlimit="10" d="
	M548.94,226.621c-1.477,0.508-2.484,0.938-3.535,1.2c-4.555,1.142-9.123,2.233-13.684,3.349c-0.305,0.075-0.67,0.129-0.881,0.327
	c-2.182,2.039-5.049,2.31-7.736,2.858c-7.865,1.605-15.787,2.928-23.648,4.551c-9.189,1.896-18.334,3.998-27.501,5.996
	c-4.043,0.881-8.095,1.719-12.139,2.594c-0.686,0.148-1.354,0.383-2.132,0.607c0,0.896-0.001,1.691,0,2.484
	c0.007,10.715-0.005,21.43,0.03,32.145c0.01,3.114,0.156,6.228,0.228,9.342c0.013,0.556,0.13,1.185-0.079,1.658
	c-1.131,2.564,0.772,4.023,2.087,5.605c0.405,0.488,1.448,0.459,2.205,0.641c0.761,0.183,1.544,0.285,2.283,0.528
	c0.192,0.063,0.383,0.54,0.343,0.79c-0.04,0.247-0.332,0.551-0.584,0.65c-1.967,0.776-4.944-0.062-6.325-1.709
	c-1.491-1.779-2.233-3.748-2.224-6.137c0.062-14.233,0.029-28.467,0.029-42.7c0-0.86,0-1.722,0-2.792
	c-1.197,0.154-2.129,0.202-3.027,0.4c-9.788,2.154-19.546,4.455-29.365,6.459c-6.3,1.285-12.677,2.209-19.04,3.156
	c-2.433,0.361-4.921,0.393-7.387,0.463c-0.777,0.021-1.564-0.318-2.565-0.541c1.179-1.713,2.767-1.562,4.084-1.8
	c7.664-1.387,15.389-2.458,23.015-4.021c12.075-2.475,24.078-5.295,36.128-7.891c13.84-2.982,27.683-5.954,41.554-8.78
	c6.535-1.331,13.16-2.22,19.707-3.498c2.725-0.532,5.328-1.649,8.027-2.339c6.244-1.596,12.514-3.091,18.773-4.629
	C546.644,225.328,547.591,225.511,548.94,226.621z"/>
<path fill-rule="evenodd" clip-rule="evenodd" fill="#FFFFFF" stroke="#FFFFFF" stroke-width="4" stroke-miterlimit="10" d="
	M343.745,431.215c-0.841,1.394-1.38,1.645-2.836,1.21c-4.032-1.204-8.166-2.109-11.975-3.98c-1.216-0.597-2.394-1.271-3.586-1.914
	c-4.788-2.583-9.763-4.707-14.998-6.214c-5.201-1.497-10.378-3.077-15.592-4.525c-5.28-1.468-10.596-2.805-15.887-4.235
	c-1.15-0.312-2.252-0.794-3.386-1.172c-6.279-2.091-12.63-3.992-18.822-6.314c-5.512-2.066-11.166-3.782-16.417-6.568
	c-3.088-1.639-6.459-2.739-9.688-4.116c-8.527-3.64-17.705-5.267-26.35-8.549c-6.63-2.519-13.287-4.969-19.954-7.388
	c-3.069-1.113-6.266-1.9-9.276-3.148c-5.671-2.352-11.25-4.928-16.866-7.412c-3.346-1.479-6.693-2.955-10.035-4.443
	c-2.393-1.065-4.861-1.999-7.133-3.28c-1.341-0.757-2.356-2.085-3.531-3.141c-0.761-0.684-1.446-1.389-2.65-1.411
	c-0.891-0.017-1.452-1.16-1.144-1.972c0.351-0.92,1.06-1.202,1.92-0.727c0.828,0.457,1.686,0.932,2.359,1.578
	c1.274,1.223,2.583,2.352,4.215,3.076c5.375,2.382,10.254,5.788,15.896,7.639c1.658,0.544,3.199,1.438,4.801,2.156
	c4.44,1.989,8.843,4.07,13.342,5.916c2.646,1.085,5.478,1.704,8.17,2.688c7.64,2.79,15.212,5.768,22.885,8.46
	c5.415,1.9,10.988,3.347,16.423,5.196c5.733,1.951,11.548,3.738,16.912,6.638c7.266,3.929,15.159,6.256,22.883,9.014
	c4.579,1.635,9.159,3.271,13.771,4.81c1.803,0.602,3.694,0.936,5.543,1.398c6.405,1.604,12.786,3.287,19.074,5.32
	c3.482,1.126,7.067,1.937,10.538,3.096c5.218,1.742,10.305,3.769,15.128,6.519c3.288,1.875,6.787,3.467,10.639,4.098
	C339.979,429.819,341.76,430.599,343.745,431.215z"/>
<path fill-rule="evenodd" clip-rule="evenodd" fill="#FFFFFF" stroke="#FFFFFF" stroke-width="4" stroke-miterlimit="10" d="
	M509.722,647.611c1.719-1.005,3.439-2.012,5.441-3.186c0.055-0.509,0.251-1.294,0.208-2.063c-0.432-7.812-0.4-15.631-1.763-23.414
	c-1.261-7.214-1.685-14.577-2.422-21.881c-0.609-6.022-1.194-12.051-1.684-18.087c-0.322-3.979-0.459-7.973-0.676-11.96
	c-0.09-1.724-0.168-3.448-0.255-5.257c-1.343-0.194-2.277-0.317-3.204-0.465c-2.096-0.332-3.133-1.574-2.889-3.677
	c0.224-1.914,1.511-2.785,3.353-2.699c5.265,0.248,10.525,0.534,15.786,0.858c3.349,0.206,6.717,0.319,10.034,0.795
	c9.968,1.429,19.846,3.312,28.981,7.818c8.394,4.144,15.59,9.647,18.711,18.923c2.646,7.859,2.465,15.693-1.539,23.191
	c-1.7,3.181-1.794,3.649,1.17,5.422c13.905,8.315,10.309,30.887-3.192,36.86c-6.493,2.872-13.151,4.208-19.947,4.27
	c-10.871,0.1-21.75-0.711-32.624-1.104c-2.729-0.098-5.461-0.128-8.189-0.068C512.494,651.943,510.625,651.17,509.722,647.611z
	 M521.618,645.305c2.355,0.495,4.813,1.319,7.313,1.475c6.553,0.408,13.132,0.4,19.688,0.793c6.179,0.369,12.194-0.595,18.04-2.266
	c4.915-1.403,9.705-3.384,13.387-7.241c3.223-3.378,4.236-7.412,3.525-11.931c-0.985-6.252-5.508-9.575-10.588-12.204
	c-8.146-4.216-17-6.287-25.938-8.019c-4.542-0.879-9.096-1.723-13.615-2.727c-5.111-1.134-10.188-2.428-15.79-3.776
	C518.967,614.718,520.259,629.605,521.618,645.305z M514.013,561.429c0.746,10.699,1.46,20.402,2.081,30.109
	c0.141,2.188,0.883,3.598,3.176,4.13c7.259,1.687,14.479,3.555,21.749,5.186c8.382,1.883,16.803,3.587,25.208,5.373
	c1.672,0.357,3.341,0.744,5.536,1.232c1.029-3.063,2.379-5.677,2.709-8.413c0.432-3.596,0.196-7.296-0.004-10.939
	c-0.271-4.97-2.501-9.111-5.795-12.792c-3.505-3.918-7.95-6.277-12.692-8.292c-8.97-3.812-18.569-4.43-28.046-5.51
	C523.549,561.014,519.062,561.429,514.013,561.429z"/>
<path fill-rule="evenodd" clip-rule="evenodd" fill="#FFFFFF" stroke="#FFFFFF" stroke-width="4" stroke-miterlimit="10" d="
	M664.618,627.686c14.255,13.501,31.391,20.481,51.182,21.938c0.447,1.908,0.471,3.891-2.136,3.416
	c-14.341-2.604-28.51-5.907-41.453-12.938c-3.357-1.823-6.329-4.348-9.497-6.522c-0.859-0.591-1.79-1.077-3.549-2.126
	c0,4.083-0.11,7.369,0.039,10.644c0.098,2.151,1.154,3.611,3.663,3.487c0.762-0.037,1.786,0.067,2.261,0.538
	c0.816,0.816,1.853,2.022,1.767,2.966c-0.09,0.942-1.334,2.314-2.281,2.513c-1.657,0.348-3.482,0.033-5.218-0.173
	c-2.367-0.28-4.754-0.583-7.066-1.146c-1.264-0.311-3.039-0.903-3.443-1.854c-0.75-1.747,0.766-2.866,2.363-3.523
	c0.593-0.243,1.189-0.465,2.324-0.907c-0.138-7.351,0.361-14.852-0.621-22.355c-0.974-7.422-1.971-14.842-2.807-22.279
	c-0.978-8.726-1.857-17.465-2.658-26.207c-0.333-3.663-0.361-7.355-0.534-11.195c-2.116-0.916-5.033-0.375-6.097-3.615
	c0.357-2.56,2.073-3.679,4.923-3.461c3.981,0.305,7.969,0.509,11.946,0.824c5.418,0.431,10.871,0.645,16.234,1.451
	c10.929,1.643,21.561,4.355,31.034,10.415c5.104,3.263,9.595,7.439,11.931,12.887c2.622,6.116,3.796,12.587,1.967,19.62
	c-3.141,12.062-11.362,18.451-22.315,22.357c-8.052,2.87-16.398,3.955-24.929,3.792c-2.195-0.041-4.389-0.006-6.584-0.006
	C664.916,626.712,664.767,627.198,664.618,627.686z M653.06,561.202c-0.165,1.518-0.326,2.011-0.251,2.466
	c1.366,8.706-0.157,17.59,2.03,26.31c1.351,5.376,1.429,11.079,1.994,16.642c0.275,2.709,0.185,5.461,0.585,8.146
	c0.302,2.045,0.919,4.108,3.655,4.357c10.89,0.995,21.78,1.735,32.408-1.662c5.363-1.716,10.373-4.135,14.314-8.426
	c4.601-5.009,6.329-10.674,5.755-17.517c-0.467-5.603-1.688-10.593-5.135-15.131c-4.864-6.407-11.805-9.263-19.095-11.202
	c-5.826-1.551-11.876-2.431-17.882-3.074C665.438,561.468,659.373,561.487,653.06,561.202z"/>
<path fill-rule="evenodd" clip-rule="evenodd" fill="#FFFFFF" stroke="#FFFFFF" stroke-width="4" stroke-miterlimit="10" d="
	M379.727,57.115c-3.187-0.301-6.165-0.623-9.15-0.855c-5.154-0.402-10.312-0.758-15.469-1.113
	c-3.498-0.241-7.002-0.395-10.495-0.686c-3.48-0.288-6.95-0.715-10.428-1.047c-1.111-0.106-2.234-0.084-3.35-0.156
	c-3.175-0.206-6.352-0.39-9.521-0.66c-2.533-0.215-5.052-0.59-7.584-0.812c-2.931-0.257-5.871-0.398-8.804-0.632
	c-3.489-0.277-6.977-0.585-10.462-0.906c-5.543-0.51-11.094-0.959-16.622-1.596c-3.388-0.39-6.731-1.152-10.112-1.619
	c-4.484-0.621-8.98-1.154-13.479-1.657c-4.582-0.513-9.172-0.956-13.761-1.401c-3.162-0.307-6.332-0.535-9.492-0.859
	c-1.181-0.122-2.336-0.479-3.516-0.624c-4.099-0.507-8.199-1.011-12.308-1.437c-5.14-0.534-10.291-0.956-15.43-1.493
	c-3.237-0.339-6.455-0.862-9.693-1.189c-4.034-0.407-8.089-0.61-12.117-1.062c-3.707-0.417-7.389-1.048-11.083-1.582
	c-1.338-0.193-2.688-0.328-4.007-0.607c-0.363-0.076-0.875-0.566-0.889-0.885c-0.015-0.365,0.375-0.971,0.717-1.082
	c0.65-0.212,1.441-0.336,2.087-0.165c4.081,1.081,8.234,1.582,12.43,1.968c6.643,0.611,13.265,1.444,19.9,2.142
	c2.771,0.291,5.557,0.438,8.33,0.716c3.952,0.395,7.9,0.827,11.846,1.282c3.549,0.409,7.131,0.671,10.629,1.354
	c5.176,1.009,10.419,1.185,15.635,1.704c2.925,0.292,5.849,0.605,8.772,0.909c1.502,0.155,3.012,0.259,4.505,0.479
	c7.067,1.042,14.123,2.163,21.196,3.158c3.222,0.454,6.475,0.694,9.715,1.011c3.64,0.357,7.279,0.719,10.923,1.027
	c3.41,0.289,6.827,0.484,10.237,0.771c3.563,0.302,7.12,0.697,10.684,0.992c3.492,0.291,6.994,0.471,10.485,0.766
	c3.64,0.309,7.272,0.704,10.91,1.044c1.428,0.134,2.86,0.22,4.29,0.325c5.709,0.424,11.419,0.846,17.129,1.271
	c4.676,0.349,9.354,0.686,14.027,1.061C377.908,55.089,379.164,55.66,379.727,57.115z"/>
<path fill-rule="evenodd" clip-rule="evenodd" fill="#FFFFFF" stroke="#FFFFFF" stroke-width="4" stroke-miterlimit="10" d="
	M505.296,306.213c0.752-0.12,1.502-0.324,2.256-0.346c5.109-0.147,10.217-0.282,15.326-0.368c4.23-0.071,8.467-0.203,12.545,1.313
	c0.641,0.238,1.426,0.129,2.143,0.116c6.543-0.114,13.088-0.323,19.631-0.34c4.709-0.012,9.422,0.19,14.129,0.38
	c1.344,0.055,2.682,0.366,4.012,0.617c3.277,0.615,6.549,1.258,9.818,1.91c0.383,0.076,0.744,0.274,1.09,0.463
	c0.025,0.014-0.162,0.415-0.324,0.82c0.66,0.039,1.406,0.113,2.154,0.123c3.98,0.057,7.932,0.125,11.918,0.658
	c4.551,0.607,9.213,0.371,14.002,0.506c0.064-0.963,0.15-1.656,0.152-2.348c0.014-5.039,0.041-10.078,0.006-15.117
	c-0.078-11.35,0.043-22.706-0.367-34.044c-0.287-7.894-0.803-15.78-0.637-23.683c0.1-4.771,0.512-9.525,1.318-14.24
	c0.16-0.936,0.135-1.914,0.1-2.869c-0.062-1.729,0.625-3.213,1.324-4.85c0.885,0.403,1.113,1.031,1.049,1.771
	c-0.33,3.803-0.727,7.601-1.025,11.406c-0.305,3.882-0.689,7.768-0.738,11.656c-0.059,4.545-0.02,9.114,0.377,13.638
	c1.115,12.688,0.43,25.396,0.664,38.092c0.072,3.908,0.24,7.815,0.357,11.722c0.018,0.56,0.166,1.194-0.041,1.668
	c-0.994,2.294-0.293,4.494,0.283,6.979c0.77,0.042,1.615,0.126,2.461,0.128c6,0.012,12.008-0.207,17.994,0.086
	c3.689,0.182,7.324,0.025,10.947-0.426c3.859-0.48,7.678-1.29,11.525-1.877c1.551-0.238,3.135-0.266,5.02-0.414
	c-0.684,1.219-1.592,1.27-2.387,1.436c-1.248,0.258-2.51,0.443-3.771,0.63c-0.916,0.136-1.873-0.024-2.398,1.151
	c-0.18,0.398-1.113,0.567-1.727,0.641c-1.814,0.219-3.645,0.486-5.467,0.471c-9.18-0.081-18.371-0.035-27.539-0.447
	c-7.25-0.326-14.475,0.445-21.709,0.062c-6.125-0.324-12.25-0.684-18.373-1.057c-0.418-0.025-0.822-0.286-1.738-0.623
	c1.377-0.275,2.219-0.443,3.062-0.613c-5.863-1.563-11.611-3.283-17.691-3.112c-1.816,0.052-3.639-0.339-5.461-0.406
	c-4.459-0.165-8.955-0.628-13.371-0.243c-2.59,0.227-5.178,0.745-7.805,0.662c-1.502-0.047-3.049-0.074-4.486-0.451
	c-2.51-0.658-5.029-0.716-7.586-0.727c-3.193-0.014-6.385-0.227-9.576-0.229c-3.033-0.002-6.064,0.17-9.098,0.235
	c-0.775,0.017-1.555-0.079-2.332-0.122C505.306,306.473,505.3,306.344,505.296,306.213z"/>
<path fill-rule="evenodd" clip-rule="evenodd" fill="#FFFFFF" stroke="#FFFFFF" stroke-width="4" stroke-miterlimit="10" d="
	M734.707,554.896c6.207,0,12.233-0.616,18.083,0.128c12.233,1.553,24.144,4.396,34.838,11.122
	c6.717,4.224,12.947,8.919,17.623,15.373c4.621,6.372,9.088,12.863,9.603,21.134c0.047,0.789,0.192,1.645,0.554,2.33
	c4.043,7.612,0.443,14.716-1.99,21.551c-3.463,9.73-11.114,15.909-20.427,19.871c-8.444,3.592-17.396,5.229-26.559,5.441
	c-6.587,0.15-13.183-0.046-19.774,0.064c-2.571,0.041-4.275-0.907-5.661-3.842c1.743-1.145,3.482-2.286,5.779-3.796
	c0.047-0.534,0.35-1.804,0.228-3.031c-0.817-8.122-0.188-16.298-1.728-24.435c-1.449-7.661-1.661-15.554-2.485-23.337
	c-0.738-6.992-1.629-13.967-2.34-20.961c-0.353-3.498-0.451-7.023-0.659-10.46C733.725,560.438,733.379,559.968,734.707,554.896z
	 M752.848,645.128c1.198,0.122,2.132,0.34,3.05,0.293c8.268-0.423,16.509,0.516,24.835-1.288
	c10.195-2.208,18.695-6.652,24.949-14.861c4.519-5.928,6.266-13.147,5.449-20.396c-1.193-10.593-5.916-19.744-13.58-27.358
	c-10.67-10.604-23.532-17.079-38.136-19.812c-4.267-0.799-9.068-2.517-13.108,0.222c0,6.121-0.228,12.025,0.067,17.906
	c0.263,5.247,1.091,10.464,1.676,15.695c1.135,10.141,2.359,20.271,3.376,30.422C752.051,632.136,752.357,638.352,752.848,645.128z"
	/>
<path fill-rule="evenodd" clip-rule="evenodd" fill="#FFFFFF" stroke="#FFFFFF" stroke-width="4" stroke-miterlimit="10" d="
	M375.786,558.984c-2.412-0.927-4.106-1.576-5.878-2.257c2.908-5.128,4.079-5.438,8.943-3.667c1.732,0.63,3.737,0.565,5.625,0.702
	c1.407,0.104,2.828,0.021,4.208,0.021c0.556,3.471,0.231,4.621-3.005,5.175c-3.27,0.562-4.625,2.76-6.554,4.86
	c-4.106,4.472-8.613,8.574-12.917,12.867c-3.508,3.498-6.982,7.029-10.415,10.598c-0.766,0.797-1.353,1.782-1.925,2.74
	c-2.639,4.409-2.61,4.746,1.72,7.521c9.133,5.845,14.788,14.433,19.007,24.101c2.938,6.732,4.826,13.792,5.602,21.125
	c0.082,0.771,0.507,1.504,0.865,2.515c2.035,0.144,4.076,0.288,6.089,0.43c2.249,3.799,1.474,5.816-2.524,6.095
	c-3.201,0.223-6.428,0.081-9.643,0.023c-0.779-0.014-1.756-0.088-2.287-0.547c-1.012-0.872-2.222-1.949-2.453-3.117
	c-0.135-0.682,1.365-2.295,2.314-2.466c2.781-0.5,2.961-2.344,2.485-4.293c-1.966-8.056-3.396-16.267-7.438-23.71
	c-4.313-7.944-10.118-14.453-17.867-19.064c-4.556-2.711-9.558-4.299-15.615-3.996c-1.776,16.755-2.497,33.444-2.271,50.224
	c2.086,0.575,3.77,0.974,5.411,1.508c1.484,0.484,2.628,1.415,2.318,3.168c-0.291,1.639-1.379,2.379-3.101,2.342
	c-3.214-0.071-6.439,0.111-9.643-0.083c-2.419-0.148-4.761-0.818-6.171-3.133c0.349-2.903,2.603-3.288,5.263-3.362
	c0.356-3.765,0.805-7.226,0.989-10.698c0.496-9.278,0.801-18.567,1.33-27.842c0.418-7.322,1.151-14.628,1.567-21.95
	c0.335-5.918,0.399-11.85,0.601-17.776c0.184-5.397,0.192-5.39-4.777-6.997c-0.441-0.144-0.823-0.464-1.351-0.77
	c-0.072-0.579-0.208-1.204-0.211-1.83c-0.004-0.63,0.124-1.26,0.212-2.053c0.632-0.165,1.22-0.437,1.815-0.452
	c3.97-0.117,7.909,0.283,11.46-2.492c2.192-1.716,3.365,0.936,4.453,2.319c1.28,1.628,0.487,3.169-1.146,3.964
	c-1.543,0.75-3.293,1.075-5.552,1.772c0,1.7,0.09,3.594-0.016,5.477c-0.354,6.225-0.677,12.451-1.225,18.659
	c-0.196,2.221,0.629,3.315,2.589,3.889c2.895,0.847,5.805,1.647,8.674,2.574c1.755,0.564,3.174,0.553,3.909-1.441
	c2.851-7.733,9.155-12.58,14.897-17.914c3.283-3.048,6.503-6.169,9.64-9.367C374.625,561.522,375.052,560.267,375.786,558.984z"/>
<path fill-rule="evenodd" clip-rule="evenodd" fill="#FFFFFF" stroke="#FFFFFF" stroke-width="4" stroke-miterlimit="10" d="
	M134.174,561.662c-1.271-0.21-2.602-0.206-3.746-0.67c-1.628-0.657-2.477-2.037-2.15-3.874c0.308-1.737,1.492-2.397,3.157-2.211
	c4.302,0.483,8.247-0.475,11.862-3.172c2.222,1.865,3.933,3.832,3.276,6.639c-0.671,2.87-3.486,2.864-6.326,3.409
	c0.224,2.067,0.529,4.05,0.637,6.04c0.522,9.589,0.657,19.216,1.562,28.768c1.128,11.89,2.583,23.782,7.54,34.885
	c4.518,10.123,11.66,17.358,22.835,19.362c7.834,1.408,15.625,1.196,22.478-4.078c3.331-2.564,5.542-5.942,6.872-9.611
	c1.447-3.99,2.349-8.378,2.456-12.619c0.313-12.373,0.386-24.769,0.019-37.139c-0.26-8.757-1.387-17.488-2.135-26.315
	c-1.822-0.565-3.408-0.87-4.797-1.566c-0.722-0.361-1.576-1.455-1.513-2.14c0.085-0.937,0.922-1.852,1.573-2.664
	c0.25-0.313,0.882-0.471,1.33-0.451c4.472,0.185,8.95,0.326,13.403,0.732c0.771,0.07,1.95,1.281,2.008,2.035
	c0.064,0.82-0.769,2.06-1.558,2.517c-1.208,0.701-2.712,0.892-4.108,1.304c0,5.384-0.094,10.796,0.023,16.202
	c0.152,6.897,0.595,13.789,0.697,20.687c0.126,8.521,0.174,17.049-0.019,25.565c-0.139,6.084-1.083,12.031-3.666,17.704
	c-2.997,6.582-7.708,11.056-14.724,12.663c-4.179,0.958-8.522,1.643-12.795,1.662c-17.941,0.081-29.034-9.198-34.644-25.033
	c-3.806-10.745-5.633-21.887-6.121-33.279c-0.355-8.315-0.868-16.63-1.545-24.926C135.787,568.764,134.888,565.491,134.174,561.662z
	"/>
<path fill-rule="evenodd" clip-rule="evenodd" fill="#FFFFFF" stroke="#FFFFFF" stroke-width="4" stroke-miterlimit="10" d="
	M228.94,603.887c-0.46-9.836,0.76-18.177,3.581-26.266c3.494-10.025,10.482-16.827,20.193-20.631
	c8.368-3.278,17.199-5.739,26.181-4.819c8.74,0.894,17.181,3.599,23.602,10.374c2.914,3.074,3.743,6.598,2.64,10.603
	c-0.644,2.338-3.19,4.812-4.993,4.651c-2.429-0.214-4.031-1.654-4.948-3.969c-0.855-2.157-1.229-4.13-0.341-6.485
	c1.16-3.084,0.755-4.054-2.154-5.387c-2.734-1.25-5.671-2.638-8.586-2.812c-9.923-0.595-19.841-0.657-29.289,3.431
	c-11.417,4.941-17.682,13.399-19.704,25.756c-0.941,5.752-1.521,11.411-1.365,17.16c0.28,10.302,2.938,19.846,9.399,28.141
	c5.749,7.381,13.321,11.542,22.231,14.11c6.524,1.882,13.047,1.771,19.545,1.384c6.409-0.383,12.331-3.111,18.087-5.946
	c1.56-0.768,3.098-1.645,4.746-2.14c0.895-0.269,2.514-0.206,2.909,0.348c0.978,1.376-0.248,2.363-1.404,2.999
	c-1.83,1.006-3.69,1.967-5.6,2.806c-8.979,3.938-18.212,7.404-28.149,6.789c-20.046-1.236-36.024-9.356-43.873-30.562
	c-1.267-3.424-2.138-7.07-2.613-10.69C228.597,609.412,228.94,605.993,228.94,603.887z"/>
<path fill-rule="evenodd" clip-rule="evenodd" fill="#FFFFFF" stroke="#FFFFFF" stroke-width="4" stroke-miterlimit="10" d="
	M544.229,464.108c-0.678-0.147-1.355-0.294-2.039-0.442c-0.018-1.026,0.637-1.09,1.275-1.102c4.906-0.09,9.604-1.147,14.217-2.794
	c3-1.071,4.404-2.681,4.541-5.914c0.055-1.271,0.094-2.544,0.164-3.815c0.006-0.105,0.209-0.2,0.545-0.502
	c0.234,0.481,0.59,0.889,0.615,1.316c0.119,1.989,0.191,3.985,0.176,5.978c-0.004,0.504-0.303,1.077-0.627,1.493
	c-0.832,1.065-1.754,2.061-2.398,2.807c-1.49,0.235-2.684,0.229-3.729,0.622c-3.879,1.459-7.734,2.985-11.549,4.609
	c-3.109,1.324-6.211,2.369-9.688,2.275c-1.871-0.051-3.76,0.548-5.643,0.835c-3.689,0.561-7.381,1.108-11.072,1.662
	c-0.783,0.117-1.576,0.196-2.354,0.357c-3.805,0.785-7.604,1.607-11.412,2.382c-0.91,0.185-1.848,0.238-2.834,0.702
	c0.303,0.114,0.605,0.333,0.904,0.328c2.826-0.044,5.531,0.532,8.191,1.438c1.629,0.554,3.248,0.417,4.943,0.069
	c3.881-0.793,7.764-1.624,11.799-0.9c1.27,0.229,2.25,0.653,3.098,1.558c0.602,0.642,1.207,1.289,1.885,1.847
	c0.859,0.707,1.744,1.607,2.881,0.164c0.41,2.374,0.199,2.779-1.248,3.643c-1.242,0.741-2.256,0.271-2.951-0.65
	c-1.107-1.469-2.736-1.103-4.152-1.419c-0.916-0.205-1.91-0.062-2.869-0.073c-1.527-0.019-2.633,0.617-3.117,2.111
	c-0.467,1.443-1.461,2.011-2.924,1.892c-2.057-0.167-4.115-0.309-6.166-0.513c-0.252-0.024-0.473-0.362-0.996-0.79
	c2.891-0.864,5.633-0.014,8.188-0.562c1.834-3.377,3.891-4.336,7.66-3.691c0.998,0.171,2.02,0.203,3.42,0.336
	c-1.008-1.579-1.873-2.343-3.52-2.503c-2.395-0.232-4.643-0.399-7.047,0.344c-2.145,0.663-4.537,0.814-6.799,0.722
	c-2.111-0.086-4.189-0.825-6.293-1.213c-1.324-0.244-2.666-0.388-4.004-0.542c-1.029-0.119-2.074-0.129-3.098-0.286
	c-3.959-0.609-5.508-0.171-9.186,2.882c2.518,0.333,4.773,0.461,6.941,0.964c2.256,0.524,4.477,0.925,6.805,1.093
	c2.238,0.162,4.527-1.37,7.086,0.357c-0.77,0.361-1.266,0.765-1.795,0.814c-3.973,0.376-7.928,0.709-11.838-0.668
	c-1.479-0.521-3.141-0.519-4.719-0.753c-0.629-0.093-1.305-0.063-1.881-0.29c-1.898-0.744-3.781-1.144-5.812-0.514
	c-0.377,0.116-0.914-0.287-1.377-0.451c0.004-0.182,0.006-0.362,0.01-0.544c1.191-0.269,2.414-0.446,3.566-0.833
	c1.086-0.363,2.1-0.948,3.154-1.439c-0.711-1.009-1.354-1.923-1.996-2.837c0.102-0.074,0.203-0.149,0.305-0.225
	c0.484,0.528,0.918,1.118,1.467,1.569c0.799,0.656,1.75,0.817,2.678,0.271c3.025-1.779,5.645-2.547,8.746-2.61
	c1.029-0.021,2.07-0.141,3.078-0.348c3.961-0.815,7.906-1.701,11.867-2.521c1.008-0.208,2.049-0.24,3.068-0.396
	c4.078-0.627,8.152-1.291,12.234-1.899c1.723-0.257,3.463-0.571,5.193-0.569c2.094,0.002,3.863-0.848,5.686-1.637
	c0.367-0.16,0.715-0.371,1.07-0.559C544.448,464.532,544.339,464.32,544.229,464.108z"/>
<path fill-rule="evenodd" clip-rule="evenodd" fill="#FFFFFF" stroke="#FFFFFF" stroke-width="4" stroke-miterlimit="10" d="
	M351.464,434.939c1.401-0.319,2.296-0.709,3.185-0.695c5.04,0.077,9.728-1.63,14.489-2.86c4.703-1.214,9.301-2.829,13.959-4.221
	c8.164-2.438,16.307-4.952,24.515-7.229c9.439-2.619,18.932-5.045,28.418-7.489c2.77-0.713,5.599-1.195,8.396-1.807
	c0.534-0.117,1.042-0.349,1.788-0.604c-0.359-0.56-0.596-1.022-0.917-1.415c-3.435-4.188-6.92-8.334-10.31-12.557
	c-1.376-1.715-1.291-1.97-0.043-3.537c-1.373-4.571-3.784-8.918-3.981-13.879c-0.013-0.337,0.26-0.685,0.824-1.073
	c0.332,1.099,0.665,2.197,0.997,3.296c0.108-0.019,0.216-0.036,0.324-0.055c0-1.58,0-3.159,0-5.299
	c1.373,2.57,1.144,4.778,0.681,6.873c-0.222,1.007-0.251,1.824,0.094,2.73c0.737,1.938,1.511,3.862,2.175,5.824
	c0.346,1.024,0.411,2.144,0.746,3.173c0.392,1.203,0.73,2.507,1.457,3.502c2.534,3.47,5.264,6.796,7.838,10.237
	c1.125,1.505,2.412,1.939,4.127,1.218c0.279-0.117,0.594-0.152,0.896-0.227c0.252,1.428,0.252,1.428-1.766,2.763
	c1.583,1.891,3.128,3.791,4.731,5.641c3.342,3.854,6.67,7.723,10.086,11.51c3.281,3.639,7.008,6.772,11.446,8.914
	c2.791,1.346,5.711,2.422,8.553,3.664c1.156,0.506,2.26,1.13,3.33,2.074c-0.779-0.108-1.605-0.088-2.33-0.346
	c-6.043-2.151-11.961-4.678-16.807-8.948c-4.79-4.224-9.21-8.866-13.789-13.329c-0.228-0.222-0.536-0.446-0.614-0.725
	c-0.839-2.978-3.336-4.783-4.988-7.182c-0.74-1.075-1.54-1.182-2.659-0.908c-4.869,1.185-9.747,2.338-14.623,3.494
	c-5.266,1.248-10.561,2.38-15.792,3.754c-6.473,1.7-12.9,3.572-19.334,5.415c-6.433,1.842-12.904,3.574-19.26,5.656
	c-6.451,2.113-13.038,3.607-19.661,4.985c-1.548,0.321-3.161,0.35-4.749,0.438C352.595,435.733,352.274,435.394,351.464,434.939z"/>
<path fill-rule="evenodd" clip-rule="evenodd" fill="#FFFFFF" stroke="#FFFFFF" stroke-width="4" stroke-miterlimit="10" d="
	M466.469,479.925c-2.764,1.758-8.841,1.852-12.557,0.414c-1.958,0.554-3.201,1.789-3.907,3.766c-0.827,2.313-0.93,2.277-3.878,2.18
	c-0.442-1.803-0.524-3.518,0.727-5.15c0.517-0.675,0.983-1.531,1.084-2.354c0.275-2.22,1.724-3.036,3.619-3.522
	c0.643-0.165,1.238-0.513,1.963-0.823c-1.787-1.659-7.278-4.026-10.314-4.568c-1.537,1.279-3.236,2.395-4.538,3.861
	c-1.287,1.448-2.172,3.253-3.358,5.096c-0.628-1.378-0.585-2.695,0.361-3.711c1.782-1.913,3.729-3.673,5.621-5.481
	c0.558-0.533,1.163-1.016,1.817-1.583c2.621,1.079,5.404,2.216,8.176,3.374c0.883,0.369,1.846,0.662,2.589,1.229
	c1.923,1.47,4.086,1.611,6.355,1.497c0.707-0.035,1.424,0.164,2.134,0.151c0.668-0.012,1.35-0.101,1.997-0.267
	c0.994-0.256,1.959-0.848,2.947-0.875c3.746-0.106,7.496-0.043,11.621-0.043c0.853-0.918,1.978-2.135,3.109-3.345
	c0.273-0.292,0.523-0.646,0.859-0.83c3.287-1.788,6.602-3.854,10.414-3.832c5.867,0.032,11.576-0.699,17.277-1.995
	c5.645-1.283,11.338-2.373,17.043-3.368c3.281-0.573,6.623-0.822,9.945-1.148c1.064-0.104,2-0.251,2.744-1.691
	c-2.881-0.483-5.488-0.882-8.08-1.366c-2.658-0.496-5.33-0.964-7.939-1.65c-2.525-0.664-5.082-1.3-7.494-2.415
	c1.34-0.73,2.609-0.544,3.922-0.253c4.891,1.082,9.766,2.258,14.695,3.116c3.824,0.665,7.723,0.898,11.586,1.357
	c0.502,0.06,0.982,0.314,1.707,0.558c-0.371,0.316-0.541,0.575-0.668,0.556c-3.301-0.506-5.494,1.604-7.863,3.299
	c-0.195,0.14-0.367,0.309-0.65,0.55c-2.42-1.167-4.957-0.268-7.389,0.104c-6.428,0.979-12.84,2.084-19.189,3.568
	c-4.549,1.063-9.195,1.762-13.828,2.403c-2.119,0.294-4.311,0.104-6.469,0.053c-1.479-0.035-2.852,0.205-4.145,0.945
	c-0.551,0.315-1.137,0.613-1.746,0.776c-1.848,0.494-3.338,1.495-4.504,2.989c-1.832,2.347-4.243,3.156-7.167,2.992
	c-2.534-0.143-5.083-0.029-7.626-0.029c-0.132,0.244-0.265,0.488-0.397,0.732c0.365,0.094,0.729,0.188,1.279,0.328
	c-1.56,1.114-3.026,0.594-4.146,0.259c-4.69-1.403-9.141-0.246-13.621,0.855c-0.315,0.078-0.548,0.494-0.904,0.835
	c0.955,0.711,1.802,1.341,2.201,1.638c2.799,0.309,5.111,0.66,7.438,0.792C461.576,480.024,463.842,479.925,466.469,479.925z
	 M449.994,480.854c-2.5,0.939-3.124,2.213-2.026,4.198C448.662,483.614,449.27,482.353,449.994,480.854z"/>
<path fill-rule="evenodd" clip-rule="evenodd" fill="#FFFFFF" stroke="#FFFFFF" stroke-width="4" stroke-miterlimit="10" d="
	M114.543,648.373c-0.669,2.974-2.626,3.957-5.334,3.473c-13.21-2.368-26.547-1.418-39.832-1.428
	c-5.728-0.004-11.452,0.909-17.186,1.284c-4.954,0.323-9.918,0.55-14.883,0.671c-2.108,0.052-3.114-1.337-3.291-3.262
	c1.351-3.447,5.136-2.283,7.163-3.948c2.869-9.498,0.961-18.921,0.187-28.25c-0.843-10.164-2.537-20.258-3.928-30.375
	c-1.171-8.515-2.441-17.019-3.656-25.457c-1.918-0.742-4.073-1.578-6.154-2.385c0.588-5.738,5.266-5.599,8.325-6.325
	c3.449-0.816,7.626-1.757,10.804,1.653c1.923,2.064,1.711,3.666-0.804,4.807c-1.842,0.837-4.295,1.271-5.304,2.707
	c-0.858,1.221,0.043,3.62,0.017,5.496c-0.165,11.423,2.261,22.557,3.634,33.812c1.275,10.455,1.961,20.98,3.217,31.437
	c0.406,3.375,0.742,6.584-0.073,9.94c-0.5,2.063,0.591,3.436,2.923,3.302c5.267-0.3,10.527-0.799,15.797-0.917
	c7.529-0.168,15.066-0.206,22.595-0.041c6.553,0.142,13.096,0.729,19.648,0.938C110.973,645.588,113.141,646.049,114.543,648.373z"
	/>
<path fill-rule="evenodd" clip-rule="evenodd" fill="#FFFFFF" stroke="#FFFFFF" stroke-width="4" stroke-miterlimit="10" d="
	M419.617,363.121c0.93,0.409,1.86,0.817,2.79,1.227c0,1.322,0,2.586,0,3.85c-0.085,0.013-0.171,0.024-0.256,0.037
	c-0.161-0.864-0.322-1.729-0.483-2.592c-1.911-0.087-1.111,1.639-1.882,2.581c-0.786-0.493-1.554-0.977-2.418-1.519
	c-1.628,0.645-3.294,1.42-5.032,1.966c-3.942,1.238-7.901,2.437-11.897,3.481c-1.013,0.265-2.238,0.054-3.283-0.236
	c-1.01-0.279-1.76-0.166-2.303,0.659c-1.703,2.586-4.228,3.157-7.06,2.919c-1.636-0.138-2.656-1.186-2.632-2.841
	c0.039-2.593,0.906-4.856,3.339-6.152c0.847-0.451,1.331-1.035,1.667-1.901c1.202-3.096,3.099-5.716,5.451-8.061
	c2.766-2.758,5.418-5.629,8.128-8.443c0.373-0.388,0.795-0.729,1.556-1.419c-0.847,2.34-2.161,3.778-3.454,5.235
	c-2.853,3.215-5.715,6.421-8.526,9.671c-0.591,0.684-0.979,1.542-1.462,2.319c0.126,0.144,0.253,0.286,0.379,0.429
	c6.75-3.444,13.5-6.89,20.377-10.399c0.311,0.705,0.523,1.188,0.859,1.95c-2.488,2.616-4.869,5.424-7.573,7.874
	c-2.612,2.367-5.558,4.366-8.655,6.757c1.579,0.582,2.833,0.585,3.979,0.125c3.483-1.396,7.158-2.062,10.75-3.045
	c1.6-0.438,3.133-1.188,4.616-1.951c0.43-0.221,0.75-0.961,0.822-1.503c0.13-0.982,0.037-1.994,0.488-3.149
	c0.597,0.733,1.194,1.468,1.792,2.202c-0.272,0.267-0.546,0.532-0.82,0.797c0.285,0.204,0.57,0.408,1.303,0.934
	C419.872,363.944,419.745,363.532,419.617,363.121z M388.747,367.547c-1.958,1.768-2.894,4.902-2.001,6.147
	c0.876,1.223,3.857,0.998,5.94-0.47c0.168-0.118,0.237-0.377,0.348-0.562c-1.634-1.376-1.635-1.361-3.368-1.444
	c-0.544-0.026-1.092-0.12-1.617-0.26c-0.156-0.041-0.243-0.345-0.434-0.639c0.578-0.35,1.092-0.661,1.641-0.993
	C389.095,368.763,388.948,368.249,388.747,367.547z M392.839,370.124c0.498,0.911,0.941,1.397,1.956,1.006
	c1.646-0.635,2.561-1.798,3.239-3.908C396.017,368.349,394.452,369.224,392.839,370.124z M390.519,369.203
	c2.522-0.805,2.522-0.805,2.454-3.435C390.737,366.921,390.737,366.921,390.519,369.203z M410.247,356.434
	c-1.275,0.43-2.091,0.905-3.122,2.132C408.594,358.158,409.667,358.162,410.247,356.434z"/>
<path fill-rule="evenodd" clip-rule="evenodd" fill="#FFFFFF" stroke="#FFFFFF" stroke-width="4" stroke-miterlimit="10" d="
	M489.051,553.557c-1.525,3.504-2.461,6.174-3.791,8.632c-7.812,14.438-18.377,26.617-31.079,36.929
	c-2.593,2.104-3.044,4.766-3.339,7.6c-0.815,7.791-1.386,15.609-2.279,23.391c-0.418,3.636-1.402,7.2-2.052,10.812
	c-0.589,3.264-0.239,3.908,2.99,4.569c1.533,0.314,3.009,0.575,3.231,2.273c0.285,2.163-1.49,3.256-3.113,3.718
	c-1.621,0.459-3.498,0.341-5.209,0.102c-3.141-0.438-6.242-1.152-9.452-1.769c-0.83-3.197-0.701-4.104,2.122-4.754
	c2.935-0.674,3.431-2.215,4.053-4.909c1.794-7.795,3.306-15.568,3.594-23.591c0.144-3.973,1.039-7.915,1.26-11.89
	c0.1-1.778-0.12-3.924-1.042-5.356c-8.362-12.989-18.384-24.527-30.453-34.254c-2.917-2.352-5.985-3.429-9.755-3.09
	c-3.895,0.348-4.713-0.597-5.202-5.113c4.771-2.188,9.388-1.283,13.507,1.457c11.825,7.869,22.246,17.293,30.61,28.862
	c2.049,2.837,4.065,5.699,6.26,8.774c1.066-0.753,1.995-1.305,2.801-1.998c10.895-9.334,20.836-19.496,27.742-32.257
	c0.683-1.26,1.127-2.648,1.79-3.92C483.581,555.214,484.452,554.633,489.051,553.557z"/>
<path fill-rule="evenodd" clip-rule="evenodd" fill="#FFFFFF" stroke="#FFFFFF" stroke-width="4" stroke-miterlimit="10" d="
	M271.758,719.675c-0.241-0.196-0.449-0.497-0.72-0.575c-1.475-0.428-3.696-0.357-3.102-2.619c0.216-0.816,2.293-1.646,3.504-1.619
	c11.066,0.239,22.12,0.946,32.332,5.764c7.178,3.388,12.597,8.568,12.739,17.114c0.065,3.848-1.085,7.717-1.818,12.424
	c-0.295-0.19,0.251,0.163,0.799,0.511c5.313,3.372,5.73,8.565,5.02,14.032c-0.62,4.788-3.842,7.689-8.018,9.45
	c-4.406,1.856-8.917,3.452-13.893,2.899c-2.064-0.23-4.18,0.068-6.262-0.06c-5.709-0.349-11.417-0.752-17.114-1.268
	c-0.772-0.071-1.897-0.799-2.087-1.451c-0.187-0.636,0.409-1.98,1.02-2.276c1.708-0.833,1.697-2.203,1.62-3.651
	c-0.234-4.468-0.263-8.967-0.835-13.392c-1.478-11.418-3.041-22.816-2.934-34.366C272.013,720.285,271.848,719.979,271.758,719.675z
	 M277.674,743.472c0.527,8.689,1.094,16.797,1.46,24.913c0.105,2.316,0.777,3.698,3.226,3.816c5.586,0.269,11.17,0.626,16.759,0.785
	c5.259,0.147,10.125-1.382,14.618-4.062c5.809-3.465,6.301-10.827,0.778-14.7c-2.586-1.816-5.544-3.439-8.575-4.223
	C296.667,747.604,287.278,745.654,277.674,743.472z M310.427,746.974c4.612-7.402,2.482-17.606-4.465-22.174
	c-3.969-2.608-8.384-3.941-13.001-4.699c-5.643-0.925-11.298-1.821-17.578-0.618c0.294,4.997,0.599,9.764,0.851,14.533
	c0.297,5.618,0.292,5.754,5.773,6.953C291.361,743.016,300.745,744.936,310.427,746.974z"/>
<path fill-rule="evenodd" clip-rule="evenodd" fill="#FFFFFF" stroke="#FFFFFF" stroke-width="4" stroke-miterlimit="10" d="
	M581.728,325.26c-0.215-0.814-0.727-1.646-0.535-2.266c0.336-1.094,1.037-2.1,1.719-3.047c0.195-0.273,0.992-0.443,1.252-0.27
	c0.475,0.32,1.111,0.986,1.045,1.408c-0.164,1.051-0.6,2.09-1.088,3.051c-0.6,1.183-1.494,2.224-2.027,3.43
	c-1.195,2.703-3.18,4.734-5.295,6.685c-2.803,2.582-5.6,5.169-8.682,8.017c1.168-0.146,1.965-0.246,3.041-0.38
	c-0.373,1.762-1.264,2.917-2.492,3.794c-2.594,1.851-5.191,3.699-7.863,5.431c-3.342,2.164-6.762,4.208-10.146,6.306
	c-0.338,0.209-0.65,0.537-1.014,0.606c-0.488,0.093-1.336,0.156-1.455-0.071c-0.244-0.461-0.354-1.328-0.076-1.67
	c0.846-1.039,1.793-2.065,2.893-2.814c3.953-2.691,7.984-5.268,11.988-7.887c0.645-0.423,1.295-0.84,1.984-1.286
	c-2.686-2.116-2.576-2.591,0.002-4.644c2.736-2.178,5.355-4.518,7.889-6.93c2.6-2.473,5.053-5.092,8.273-6.806
	C581.397,325.779,581.558,325.455,581.728,325.26z"/>
<path fill-rule="evenodd" clip-rule="evenodd" fill="#FFFFFF" stroke="#FFFFFF" stroke-width="4" stroke-miterlimit="10" d="
	M503.253,437.271c4.072,2.213,8.457,3.468,12.9,4.716c3.766,1.058,7.482,1.28,11.293,1.284c6.238,0.007,12.48,0.118,18.717-0.035
	c4.928-0.121,9.869-0.376,14.766-0.93c6.059-0.687,11.775-2.768,17.369-5.125c5.604-2.36,10.949-5.221,16.057-8.522
	c0.85-0.549,1.908-0.856,2.139-2.08c0.041-0.221,0.443-0.495,0.709-0.535c3.055-0.457,4.889-2.868,7.217-4.479
	c1.178-0.814,2.314-1.689,3.439-2.576c1.689-1.333,3.441-2.603,5.002-4.075c2.719-2.564,5.311-5.263,7.955-7.906
	c0.121,0.103,0.242,0.204,0.363,0.306c-0.988,1.267-1.928,2.577-2.977,3.793c-5.344,6.194-11.197,11.812-18.283,16.019
	c-5.01,2.975-9.91,6.15-15.051,8.878c-7.574,4.021-15.605,6.921-24.139,8.117c-2.654,0.371-5.389,0.14-8.086,0.22
	c-1.27,0.038-2.535,0.228-3.805,0.231c-7.039,0.024-14.08,0.138-21.115-0.04c-3.721-0.094-7.525-0.321-11.117-1.2
	c-4.471-1.095-8.797-2.839-12.863-5.098c-0.283-0.158-0.566-0.316-0.852-0.475C503.013,437.597,503.132,437.434,503.253,437.271z"/>
<path fill-rule="evenodd" clip-rule="evenodd" fill="#FFFFFF" stroke="#FFFFFF" stroke-width="4" stroke-miterlimit="10" d="
	M484.513,309.127c0.143,2.377,0.279,4.625,0.414,6.873c-0.197,0.02-0.395,0.041-0.592,0.061c-1.338-2.281-1.281-4.805-1.016-7.616
	c-6.134-0.84-12.273,0.116-18.451,0.657c-0.74,1.962-1.948,2.514-5.986,2.592c0.638-1.541,2.398-1.05,3.567-2.33
	c-1.106,0.125-1.902,0.111-2.639,0.314c-3.077,0.849-6.219,1.234-9.372,1.681c-3.277,0.464-6.456,1.589-9.7,2.328
	c-1.931,0.44-3.928,0.598-5.852,1.062c-1.825,0.44-3.694,0.912-5.363,1.737c-2.483,1.229-5.118,2.302-6.996,4.506
	c-0.144,0.17-0.382,0.373-0.574,0.37c-3.076-0.036-4.581,2.235-6.245,4.25c-0.392,0.475-0.648,1.06-1.262,1.298
	c1.298-2.91,2.999-5.409,6.163-6.461c0.439-0.146,0.872-0.389,1.234-0.68c6.417-5.146,13.885-8.062,21.702-10.229
	c0.439-0.123,0.941-0.016,1.993-0.016c-2.633,1.894-5.486,2.107-8.257,3.711c5.056-0.432,9.111-2.709,13.678-3.117
	c4.564-0.408,9.026-1.857,13.583-2.473c4.481-0.605,9.026-0.737,13.581-1.232c-3.373-1.819-7.294-2.283-10.587-4.232
	c0.047-0.166,0.095-0.332,0.143-0.498c2.41,0.607,4.854,1.107,7.221,1.851c2.506,0.786,4.891,1.987,7.419,2.665
	c2.281,0.612,4.678,0.859,7.041,1.092c3.562,0.352,7.137,0.61,10.713,0.795c3.42,0.176,6.848,0.195,10.271,0.31
	c0.73,0.024,1.592-0.253,2.346,0.923c-3.977,0-7.668,0-11.664,0c0.557,0.588,0.836,0.885,1.303,1.379
	c-2.266,0.334-4.15-0.352-5.988-0.893c-3.168-0.934-6.396-1.244-9.656-1.357C485.974,308.422,485.245,308.885,484.513,309.127z"/>
<path fill-rule="evenodd" clip-rule="evenodd" fill="#FFFFFF" stroke="#FFFFFF" stroke-width="4" stroke-miterlimit="10" d="
	M483.842,719.182c-1.196-0.679-4.295-0.271-2.872-4.043c1.202-0.108,2.611-0.412,3.995-0.332c8.125,0.482,16.29,0.688,24.196,2.95
	c10.851,3.105,17.278,9.249,15.778,23.117c-0.157,1.432-0.149,2.901-0.499,4.281c-1.566,6.168-5.084,10.597-11.408,12.443
	c-1.351,0.395-2.67,0.903-4.048,1.376c2.674,2.766,5.182,5.547,7.895,8.115c2.638,2.502,5.484,4.789,8.472,7.37
	c-2.112,1.074-3.518-0.224-4.912-0.974c-2.536-1.362-5.068-2.773-7.412-4.436c-1.531-1.088-2.913-2.513-4.032-4.032
	c-2.563-3.492-5.9-5.241-10.203-5.366c-2.053-0.06-4.099-0.334-6.536-0.544c0,4.021,0,7.949,0,12.197
	c1.389,0.686,2.999,1.477,5.786,2.849c-2.167,0.844-3.184,1.505-4.248,1.596c-2.069,0.175-4.184,0.175-6.253-0.027
	c-1.808-0.179-2.814-2.175-1.578-2.998c4.256-2.828,2.521-7.031,2.246-10.435C487.075,748.144,485.396,734.037,483.842,719.182z
	 M488.364,719.209c-0.534,12.192,1.533,23.638,2.933,34.979c5.415,2.135,10.679,1.864,15.642,1.101
	c10.329-1.592,14.852-8.403,14.188-16.321c-0.082-0.958,0.004-1.928-0.016-2.892c-0.125-7.243-3.235-11.794-9.976-14.28
	C503.959,719.148,496.527,718.521,488.364,719.209z"/>
<path fill-rule="evenodd" clip-rule="evenodd" fill="#FFFFFF" stroke="#FFFFFF" stroke-width="4" stroke-miterlimit="10" d="
	M605.505,560.82c-5.249-0.954-5.249-0.954-4.88-5.608c1.198-0.104,2.45-0.344,3.687-0.291c3.113,0.134,5.987-0.259,8.692-2.084
	c2.014-1.362,4.346-0.23,5.229,2.157c0.722,1.951-0.165,3.681-2.45,4.43c-1.174,0.383-2.442,0.464-3.785,0.703
	c0,3.343-0.212,6.528,0.039,9.678c0.754,9.383,1.583,18.762,2.583,28.12c0.781,7.287,2.092,14.521,2.748,21.816
	c0.612,6.837,0.714,13.723,0.962,20.59c0.157,4.34,0.075,4.451,4.468,5.176c2.029,0.336,3.411,1.042,3.384,3.226
	c-0.027,2.255-1.657,2.978-3.568,3.077c-1.268,0.069-2.556-0.086-3.816-0.259c-2.678-0.367-5.375-0.679-8.001-1.288
	c-1.064-0.247-2.395-0.991-2.85-1.89c-0.821-1.632,0.373-2.794,1.912-3.196c3.781-0.989,3.82-3.866,3.584-6.851
	c-0.723-9.22-1.441-18.443-2.297-27.653c-0.365-3.962-1.138-7.884-1.605-11.839c-0.687-5.865-1.272-11.74-1.893-17.611
	C606.946,574.572,606.251,567.922,605.505,560.82z"/>
<path fill-rule="evenodd" clip-rule="evenodd" fill="#FFFFFF" stroke="#FFFFFF" stroke-width="4" stroke-miterlimit="10" d="
	M334.923,753.989c0,6.352,0,12.054,0,17.994c1.115,0.271,2.436,0.591,3.765,0.912c-1.312,4.79-5.565,5.375-11.061,1.557
	c6.108-4.705,4.548-10.979,3.682-17.232c-0.629-4.544-2.106-8.959-1.07-13.762c2.288-10.61,9.048-17.401,18.118-22.382
	c5.829-3.201,12.286-4.483,18.735-5.638c1.239-0.222,2.656,0.556,3.357,0.721c-0.562,4.907-1.31,9.267-1.5,13.652
	c-0.25,5.769-0.083,11.558-0.056,17.337c0.036,7.84-0.164,15.656-2.042,22.723c1.065,1.839,2.743,3.431,2.47,4.546
	c-0.518,2.114-2.925,1.271-4.602,1.382c-1.279,0.085-2.612,0.21-3.837-0.061c-0.925-0.204-2.247-0.852-2.459-1.574
	c-0.46-1.57,0.795-2.19,2.242-2.367c0.766-0.097,1.518-0.309,2.64-0.544c0.385-6.394,3.05-12.408,2.118-19.409
	c-1.862-0.322-3.735-1.066-5.512-0.882C351.558,751.833,343.232,752.958,334.923,753.989z M335.405,749.535
	c10.181,0.96,19.817-3.09,30.077-0.717c0-9.857,0-19.225,0-28.971c-11.092,1.413-20.615,5.83-27.375,14.79
	C335.014,738.736,332.431,743.67,335.405,749.535z"/>
<path fill-rule="evenodd" clip-rule="evenodd" fill="#FFFFFF" stroke="#FFFFFF" stroke-width="4" stroke-miterlimit="10" d="
	M602.003,474.495c1.283-1.853,3.877,0.208,5.199-1.988c-0.977-1-2.006-1.896-3.514-2.045c-0.83-0.081-1.518-0.232-1.73-1.286
	c-0.074-0.363-0.785-0.766-1.26-0.852c-2.891-0.523-5.787-1.029-8.699-1.403c-2.123-0.273-4.277-0.321-6.414-0.512
	c-0.275-0.024-0.527-0.298-1.016-0.59c2.564-1.234,5.09-0.892,7.5-0.713c2.68,0.199,5.357,0.729,7.973,1.369
	c1.668,0.409,3.225,1.278,4.83,1.946c1.74,0.725,3.477,1.463,5.223,2.179c0.514,0.21,1.08,0.306,1.574,0.551
	c1.568,0.777,3.131,1.575,4.67,2.412c1.787,0.973,1.707,2.633-0.252,3.793c-0.176-0.223-0.436-0.431-0.531-0.698
	c-0.307-0.871-0.207-1.957-1.334-2.365c-1.559-0.564-3.109-1.163-4.691-1.656c-0.258-0.08-0.75,0.235-0.982,0.5
	c-1.172,1.327-2.451,2.161-4.379,1.855c-0.664-0.105-1.441,0.509-2.389,0.882c-2.514-2.08-5.727-2.98-8.904-4.019
	c-1.334-0.437-2.559-1.299-3.74-2.104c-2.727-1.858-5.748-1.654-8.779-1.366c-2.049,0.195-4.08,0.633-6.133,0.74
	c-2.088,0.108-4.15,0.12-5.824,1.507c-2.539-1.529-5.189-0.857-7.779-0.811c-3.59,0.064-7.178,0.208-10.766,0.164
	c-1.555-0.019-1.789-0.524-1.492-1.848c0.877,0.198,1.738,0.568,2.594,0.557c4.143-0.06,8.283-0.195,12.424-0.355
	c2.844-0.11,5.762,1.272,8.529-0.409c3.607,0.262,7.102-0.348,10.615-1.126c1.832-0.406,3.783-0.189,5.537,0.805
	c3.541,2.008,7.174,3.811,11.057,5.097C600.063,473.019,600.864,473.771,602.003,474.495z"/>
<path fill-rule="evenodd" clip-rule="evenodd" fill="#FFFFFF" stroke="#FFFFFF" stroke-width="4" stroke-miterlimit="10" d="
	M427.665,717.778c0.751-2.899,2.5-3.046,4.326-2.997c5.29,0.149,10.578,0.418,15.868,0.457c4.004,0.027,8.011-0.292,12.017-0.328
	c2.293-0.02,4.866-1.046,6.674,1.42c-0.283,2.07-1.698,2.471-3.451,2.524c-8.951,0.272-17.898,0.579-27.298,0.887
	c-1.484,6.062,1.14,12.441,0.396,19.039c5.655,1.613,10.924,2.179,16.351,0.84c1.215-0.299,2.575-0.263,3.822-0.07
	c0.628,0.096,1.506,0.816,1.622,1.386c0.118,0.589-0.408,1.776-0.899,1.936c-1.951,0.634-3.989,1.268-6.015,1.349
	c-4.758,0.188-9.53,0.061-14.473,0.061c0,8.907,0,17.899,0,27.503c1.6,0,3.162,0,4.723,0c8.519,0,17.039-0.042,25.556,0.035
	c1.906,0.018,4.935-0.762,4.811,2.267c-0.112,2.742-3.048,1.696-4.752,1.667c-4.951-0.082-9.897-0.686-14.844-0.669
	c-5.913,0.02-11.825,0.473-17.739,0.728c-0.803,0.035-1.619,0.091-2.409-0.016c-1.449-0.194-3.698,0.818-4-1.411
	c-0.294-2.188,2.173-1.839,3.479-2.534c0.281-0.149,0.554-0.318,1.213-0.701c2.108-17.019-0.282-34.228-0.608-51.609
	C430.648,718.981,429.27,718.424,427.665,717.778z"/>
<path fill-rule="evenodd" clip-rule="evenodd" fill="#FFFFFF" stroke="#FFFFFF" stroke-width="4" stroke-miterlimit="10" d="
	M422.423,773.958c-1.129,0.614-2.252,1.733-3.386,1.743c-2.89,0.025-6.137,1.087-8.807-2.046c1.164-0.96,2.204-1.817,3.268-2.695
	c-0.892-10.258-2.292-20.33-13.745-25.383c-4.407,7.381-7.855,14.601-6.796,23.247c0.224,1.818,0.595,3.102,2.544,3.467
	c1.458,0.275,2.937,0.56,2.521,3.158c-2.945,0.734-6.115,0.435-9.212,0.23c-1.999-0.134-2.78-2.505-1.117-3.365
	c2.589-1.334,2.188-3.347,2.055-5.312c-0.419-6.207-0.961-12.407-1.541-18.604c-0.877-9.377-1.827-18.746-2.782-28.484
	c-1.18-0.883-4.557-0.636-3.166-4.208c2.775-0.446,5.562-1.008,8.376-1.271c0.716-0.066,1.858,0.64,2.19,1.302
	c0.354,0.702,0.302,2.018-0.157,2.62c-0.621,0.812-1.8,1.199-2.964,1.906c-1.05,10.448,1.327,20.781,2.223,31.33
	c2.705-2.014,11.154-20.316,14.471-31.215c-0.9-0.812-1.895-1.709-2.861-2.583c2.252-3.467,2.252-3.467,11.113-2.002
	c0.95,3.78-2.656,2.638-3.897,3.598c-3.176,7.441-6.257,14.651-9.317,21.869c-0.114,0.271-0.014,0.631-0.014,1.41
	c11.505,5.627,13.619,16.959,15.863,28.325c1.684,0.614,3.352,1.223,5.019,1.831C422.344,773.204,422.384,773.581,422.423,773.958z"
	/>
<path fill-rule="evenodd" clip-rule="evenodd" fill="#FFFFFF" stroke="#FFFFFF" stroke-width="4" stroke-miterlimit="10" d="
	M683.968,339.182c-1.1,0.278-1.773,0.448-2.779,0.703c0.598-1.25,1.553-1.493,2.359-1.748c1.822-0.574,3.215-1.684,4.48-3.054
	c1.244-1.349,2.559-2.632,3.799-3.9c0.6,0.272,1.428,0.304,2.004,0.058c-0.531-0.292-0.959-0.527-1.686-0.928
	c3.07-2.754,6.676-4.462,9.949-7.203c-1.014-0.21-1.666-0.346-2.314-0.48c0.328-1.887,0.82-2.146,2.314-1.535
	c0.838,0.343,1.77,0.457,2.768,0.701c-0.174,1.895-1.74,2.461-2.84,3.361c-1.092,0.894-2.305,1.639-3.316,2.802
	c0.648-0.214,1.297-0.429,1.947-0.642c0.094,0.129,0.188,0.26,0.281,0.39c-0.723,0.661-1.398,1.385-2.178,1.971
	c-3.311,2.489-6.746,4.817-9.943,7.441c-1.959,1.608-3.744,3.509-5.299,5.518c-3.836,4.961-8.516,9.044-13.17,13.167
	c-1.969,1.744-3.928,3.498-5.936,5.198c-0.564,0.479-1.279,0.785-1.926,1.17c-0.129-0.119-0.256-0.238-0.385-0.357
	c0.184-0.445,0.254-1.006,0.568-1.317c1.303-1.285,2.648-2.535,4.039-3.726c1.812-1.551,3.416-3.232,4.908-5.134
	c1.953-2.489,4.523-4.488,6.789-6.738C680.198,343.116,681.935,341.273,683.968,339.182z"/>
<path fill-rule="evenodd" clip-rule="evenodd" fill="#FFFFFF" stroke="#FFFFFF" stroke-width="4" stroke-miterlimit="10" d="
	M337.802,216.745c0.331,0.485,0.689,0.955,0.99,1.458c1.918,3.216,3.647,6.563,5.799,9.613c1.304,1.847,3.088,3.471,4.944,4.793
	c8.931,6.359,18.453,11.697,28.485,16.145c3.498,1.551,6.859,3.408,10.269,5.153c0.403,0.206,0.716,0.589,1.347,1.125
	c-1.994,0.348-3.509-0.29-4.973-0.868c-2.446-0.967-4.845-2.056-7.239-3.146c-6.757-3.076-13.609-6.005-19.759-10.211
	c-4.597-3.146-9.175-6.388-13.361-10.044c-3.589-3.134-5.427-7.615-7.113-12.03c-0.199-0.521-0.027-1.185-0.027-1.781
	C337.376,216.883,337.589,216.813,337.802,216.745z"/>
<path fill-rule="evenodd" clip-rule="evenodd" fill="#FFFFFF" stroke="#FFFFFF" stroke-width="4" stroke-miterlimit="10" d="
	M569.517,451.686c-0.078-1.189,0.434-1.541,1.141-1.519c8.047,0.256,15.326-2.872,22.662-5.428
	c11.064-3.854,22.031-8.015,32.889-12.416c4.777-1.936,9.182-4.785,13.758-7.217c0.717-0.382,1.447-0.743,2.281-0.929
	c-0.473,1.525-1.502,2.325-2.84,2.959c-1.566,0.741-3.047,1.682-4.498,2.634c-3.338,2.188-6.836,4.066-10.568,5.47
	c-10.451,3.929-20.861,7.971-31.4,11.646c-5.621,1.962-11.455,3.341-17.234,4.816C573.731,452.208,571.634,452.047,569.517,451.686z
	"/>
<path fill-rule="evenodd" clip-rule="evenodd" fill="#FFFFFF" stroke="#FFFFFF" stroke-width="4" stroke-miterlimit="10" d="
	M562.05,225.504c0.949-0.932,2.094-1.545,3.357-2.027c7.006-2.672,14.039-5.278,20.986-8.098c4.654-1.889,9.178-4.1,13.768-6.148
	c1.092-0.487,2.201-0.943,3.332-1.33c0.51-0.174,1.203-0.357,1.617-0.148c0.641,0.324,1.371,0.902,1.562,1.525
	c0.115,0.379-0.623,1.401-1.131,1.531c-6.396,1.629-11.992,5.146-18.035,7.602c-6.662,2.707-13.369,5.213-20.361,6.9
	c-1.6,0.386-3.242,0.594-4.865,0.883C562.204,225.963,562.126,225.733,562.05,225.504z"/>
<path fill-rule="evenodd" clip-rule="evenodd" fill="#FFFFFF" stroke="#FFFFFF" stroke-width="4" stroke-miterlimit="10" d="
	M514.702,376.669c1.189-1.388,2.822-2.187,4.471-2.85c7.029-2.823,14.098-5.545,21.133-8.351c6.455-2.574,12.719-5.539,18.643-9.203
	c1.391-0.861,2.887-1.557,4.336-2.328c0.127,0.158,0.254,0.316,0.381,0.475c-1.082,1.055-2.08,2.215-3.26,3.146
	c-5.684,4.488-12.006,7.859-18.762,10.42c-7.607,2.883-15.227,5.735-22.861,8.542c-1.223,0.449-2.561,0.586-3.846,0.868
	C514.858,377.148,514.78,376.908,514.702,376.669z"/>
<path fill-rule="evenodd" clip-rule="evenodd" fill="#FFFFFF" stroke="#FFFFFF" stroke-width="4" stroke-miterlimit="10" d="
	M596.204,453.311c-3.105,0.754-6.213,1.509-9.451,2.295c0.738-1.884,2.799-1.368,3.883-2.385c-2.791-0.29-4.518,0.194-6.604,1.981
	c-1.393,1.193-2.713,2.471-4.086,3.688c-0.393,0.349-0.855,0.621-1.508,1.086c-0.141-0.67-0.227-1.083-0.295-1.405
	c-3.729-0.871-5.846,2.09-8.342,3.751c-1.1-0.741-0.527-1.372-0.189-1.8c1.639-2.079,3.721-3.643,6.424-3.701
	c2.15-0.047,3.814-1.018,5.535-2.002c0.309-0.177,0.74-0.602,0.701-0.849c-0.248-1.604,1.02-1.869,2-2.243
	c0.906-0.346,1.945-0.875,2.777,0.358c0.182,0.269,0.887,0.285,1.338,0.251c4.6-0.339,9.197-0.686,13.791-1.1
	c0.857-0.077,1.684-0.468,2.529-0.698c1.684-0.46,3.354-0.997,5.062-1.323c0.721-0.137,1.529,0.18,2.758,0.355
	c-2.24,1.522-4.439,2.193-6.498,2.211c-3.752,0.033-6.473,1.893-9.176,4.017c-3.119,2.454-6.213,4.941-9.4,7.481
	c-0.828-0.49-0.441-1.065,0.139-1.592c2.125-1.927,4.26-3.841,6.4-5.75c0.809-0.72,1.641-1.412,2.463-2.117
	C596.372,453.65,596.288,453.48,596.204,453.311z"/>
<path fill-rule="evenodd" clip-rule="evenodd" fill="#FFFFFF" stroke="#FFFFFF" stroke-width="4" stroke-miterlimit="10" d="
	M551.782,275.252c-0.037-0.81-0.1-1.574-0.1-2.34c-0.006-10.461-0.041-20.922,0.014-31.381c0.023-4.463,0.24-8.924,0.369-13.385
	c0.006-0.16-0.047-0.359,0.029-0.471c0.238-0.353,0.523-0.672,0.791-1.004c0.26,0.346,0.707,0.671,0.748,1.041
	c0.201,1.816,0.402,3.645,0.406,5.469c0.033,13.095,0.023,26.19,0.014,39.285C554.054,274.503,554.026,274.503,551.782,275.252z"/>
<path fill-rule="evenodd" clip-rule="evenodd" fill="#FFFFFF" stroke="#FFFFFF" stroke-width="4" stroke-miterlimit="10" d="
	M566.746,773.61c-1.959,1.073-3.07,2.218-3.93,2.056c-2.956-0.562-6.289,0.156-9.43-2.318c4.507-2.322,3.737-6.184,3.655-9.76
	c-0.086-3.683-0.212-7.381-0.655-11.032c-0.401-3.294-1.457-6.316-3.321-9.284c-5.025-7.995-9.544-16.311-14.589-25.065
	c-1.307-0.263-3.639-0.477-4.519-3.446c3.753-1.529,7.294-0.849,10.726,0.333c1.468,0.507,1.774,1.765,0.196,2.786
	c-0.495,0.323-1.092,0.494-1.865,0.83c3.195,10.284,8.735,18.991,15.381,27.874c2.363-5.271,4.228-10.152,6.686-14.713
	c2.501-4.64,5.587-8.967,8.602-13.721c-0.77-0.573-1.676-1.248-2.63-1.959c2.583-2.408,2.583-2.408,11.938-2.035
	c0.192,2.061-1.178,2.52-2.744,3.135c-1.382,0.541-2.886,1.358-3.769,2.494c-6.623,8.553-11.762,17.982-15.743,28.023
	c-0.687,1.735-1.028,3.747-0.966,5.614c0.192,5.743,0.66,11.479,1.029,17.36C562.423,771.553,564.048,772.326,566.746,773.61z"/>
<path fill-rule="evenodd" clip-rule="evenodd" fill="#FFFFFF" stroke="#FFFFFF" stroke-width="4" stroke-miterlimit="10" d="
	M654.694,394.094c-1.662,1.551-2.877,2.689-4.107,3.812c-0.08,0.072-0.281,0.009-0.566,0.009c0.072-0.326,0.043-0.688,0.211-0.892
	c4.268-5.196,8.555-10.376,13.219-16.019c-0.17,0.97-0.121,1.457-0.332,1.768c-1.562,2.299-3.133,4.595-4.795,6.821
	c-0.713,0.954-1.248,1.841-1.58,3.065c-0.531,1.963-1.586,3.825-2.646,5.596c-4.053,6.772-8.162,13.513-12.332,20.215
	c-1.047,1.684-2.295,3.274-3.645,4.727c-0.975,1.048-2.066,2.233-4.182,1.916c0.543-0.684,0.84-1.219,1.279-1.585
	c2.801-2.339,4.814-5.324,6.734-8.349c4.191-6.597,8.262-13.268,12.375-19.914C654.438,395.084,654.462,394.849,654.694,394.094z"/>
<path fill-rule="evenodd" clip-rule="evenodd" fill="#FFFFFF" stroke="#FFFFFF" stroke-width="4" stroke-miterlimit="10" d="
	M429.212,333.857c-0.768,0.059-1.536,0.119-2.321,0.18c1.068,1.188,1.241,1.225,2.9,0.571c1.486,1.001,2.118,2.426,2.051,4.251
	c-0.071,1.976,0.255,3.985-1.348,5.641c-1.324,1.369-4.218,1.943-5.873,0.971c-3.06-1.798-4.075-5.682-2.276-8.736
	c0.283-0.479,0.627-0.924,0.904-1.406c0.79-1.376,1.925-2.033,3.543-1.873c0.788,0.077,1.59,0.013,2.386,0.013
	C429.189,333.598,429.201,333.727,429.212,333.857z M422.885,340.453c0.003,0,0.005,0,0.008,0c0,0.397-0.025,0.798,0.005,1.193
	c0.062,0.793,0.423,1.475,1.276,1.427c0.796-0.044,1.231-0.661,1.24-1.494c0.008-0.716,0.153-1.478-0.042-2.136
	c-0.175-0.592-0.682-1.458-1.128-1.514c-0.878-0.109-1.37,0.629-1.36,1.567C422.888,339.816,422.885,340.135,422.885,340.453z
	 M430.181,342.145c0.162,0.021,0.324,0.041,0.486,0.061c0-1.139,0-2.278,0-3.418c-0.341,0.244-0.467,0.516-0.476,0.789
	C430.164,340.432,430.181,341.289,430.181,342.145z"/>
<path fill-rule="evenodd" clip-rule="evenodd" fill="#FFFFFF" stroke="#FFFFFF" stroke-width="4" stroke-miterlimit="10" d="
	M345.246,330.617c0,5.273,0.047,10.549-0.012,15.823c-0.075,6.706-0.203,13.411-0.369,20.116c-0.158,6.377-0.582,12.754-0.551,19.13
	c0.042,9.019,0.29,18.041,0.662,27.053c0.167,4.036,0.875,8.049,1.287,12.076c0.103,1.007,0.016,2.032-0.377,3.187
	c-0.236-0.306-0.636-0.588-0.682-0.92c-0.437-3.142-0.969-6.281-1.168-9.441c-0.257-4.06-0.211-8.139-0.338-12.208
	c-0.052-1.669-0.219-3.335-0.328-5.002c-0.031-0.479-0.064-0.959-0.055-1.438c0.145-7.666,0.009-15.351,0.51-22.993
	c0.941-14.374,0.321-28.752,0.567-43.127c0.013-0.763,0.26-1.522,0.397-2.283C344.941,330.598,345.093,330.607,345.246,330.617z"/>
<path fill-rule="evenodd" clip-rule="evenodd" fill="#FFFFFF" stroke="#FFFFFF" stroke-width="4" stroke-miterlimit="10" d="
	M616.13,400.842c2.449-2.854,4.896-5.707,7.344-8.561c-0.082-0.126-0.166-0.252-0.248-0.379c-1.09,0.344-2.178,0.688-3.266,1.03
	c-0.061-0.152-0.121-0.304-0.182-0.456c1.396-0.524,2.799-1.028,4.184-1.58c0.637-0.254,1.359-0.472,1.83-0.927
	c2.07-2.003,3.355-4.625,5.633-6.555c2.145-1.818,3.832-4.261,5.428-6.627c2.982-4.428,5.777-8.983,8.6-13.519
	c1.174-1.888,2.215-3.857,3.727-5.671c-0.174,0.596-0.301,1.21-0.525,1.784c-2.576,6.586-6.164,12.6-10.361,18.266
	c-3.947,5.33-8.375,10.237-13.078,14.908c-2.607,2.592-5.164,5.237-7.758,7.844c-0.299,0.302-0.691,0.512-1.041,0.765
	C616.319,401.057,616.226,400.949,616.13,400.842z"/>
<path fill-rule="evenodd" clip-rule="evenodd" fill="#FFFFFF" stroke="#FFFFFF" stroke-width="4" stroke-miterlimit="10" d="
	M524.419,298.98c0.002-2.234,0.445-3.709,1.74-4.988c4.02-3.971,8.697-6.682,14.301-7.601c0.82-0.135,1.736,0.318,2.945,0.569
	c1.363-1.154,3.154-2.391,4.576-3.963c1.303-1.439,2.395-3.139,1.936-5.363c-0.225-1.096,0.562-1.334,1.492-1.191
	c1.416,4.582-1.385,9.045-6.428,10.135c-0.148,0.379-0.199,0.959-0.516,1.216c-0.506,0.411-1.594,0.983-1.729,0.837
	c-1.104-1.203-2.033-0.145-3.002,0.088c-4.975,1.193-8.926,4.074-12.482,7.604C526.433,297.138,525.567,297.907,524.419,298.98z"/>
<path fill-rule="evenodd" clip-rule="evenodd" fill="#FFFFFF" stroke="#FFFFFF" stroke-width="4" stroke-miterlimit="10" d="
	M490.183,445.687c1.896-0.955,3.297-0.267,4.646-0.17c3.721,0.268,7.43,0.675,11.139,1.078c2.994,0.325,5.938,0.715,8.875,1.632
	c2.258,0.705,4.879,0.425,7.326,0.31c3.334-0.157,6.652-0.612,9.982-0.858c0.992-0.073,2.107-0.304,3.006,0.818
	c-1.408,0.247-2.713,0.568-4.037,0.692c-5.393,0.505-10.783,1.15-16.211,0.828c-2.611-0.155-5.211-0.512-7.814-0.792
	c-0.395-0.043-0.965-0.036-1.141-0.278c-1.375-1.91-3.477-1.067-5.232-1.392c-2.959-0.546-5.967-0.828-8.951-1.249
	C491.397,446.253,491.046,446.031,490.183,445.687z"/>
<path fill-rule="evenodd" clip-rule="evenodd" fill="#FFFFFF" stroke="#FFFFFF" stroke-width="4" stroke-miterlimit="10" d="
	M392.283,259.361c-1.619,0.591-2.757,1.119-3.953,1.422c-6.087,1.542-12.286,2.415-18.524,3.088
	c-4.645,0.502-9.269,1.195-13.905,1.773c-0.695,0.087-1.411,0.012-2.268,0.012c0.574-1.226,1.675-1.129,2.504-1.262
	c4.932-0.787,9.891-1.401,14.82-2.203c5.943-0.965,11.861-2.088,17.801-3.071C389.689,258.966,390.667,258.297,392.283,259.361z"/>
<path fill-rule="evenodd" clip-rule="evenodd" fill="#FFFFFF" stroke="#FFFFFF" stroke-width="4" stroke-miterlimit="10" d="
	M346.277,271.747c1.237,1.852,0.92,3.878,0.834,5.841c-0.167,3.809-0.658,7.607-0.699,11.414c-0.104,9.744-0.02,19.491-0.049,29.236
	c-0.005,1.83-0.157,3.662-0.312,5.486c-0.044,0.512-0.34,1.002-0.635,1.823C345.108,307.373,344.677,289.554,346.277,271.747z"/>
<path fill-rule="evenodd" clip-rule="evenodd" fill="#FFFFFF" stroke="#FFFFFF" stroke-width="4" stroke-miterlimit="10" d="
	M441.963,459.914c-1.66-0.138-3.325-0.242-4.979-0.43c-0.62-0.069-1.263-0.241-1.816-0.523c-1.232-0.627-1.303-1.574-0.186-2.391
	c0.504-0.368,1.111-0.615,1.699-0.845c1.845-0.72,3.672-1.518,5.57-2.059c1.035-0.295,2.21-0.25,3.303-0.15
	c1.571,0.145,3.128,0.463,4.685,0.743c0.462,0.083,0.923,0.247,1.349,0.449c0.748,0.354,1.52,0.892,1.268,1.783
	c-0.188,0.67-0.727,1.479-1.325,1.755c-2.33,1.073-4.849,1.459-7.407,1.551c-0.716,0.026-1.433,0.004-2.15,0.004
	C441.97,459.84,441.967,459.877,441.963,459.914z M437.235,457.549c3.573,1.245,12.269,0.696,14.495-0.829
	C448.742,454.419,441.525,454.775,437.235,457.549z"/>
<path fill-rule="evenodd" clip-rule="evenodd" fill="#FFFFFF" stroke="#FFFFFF" stroke-width="4" stroke-miterlimit="10" d="
	M357.833,243.1c0.827,0.697,0.799,1.566,0.557,2.399c-0.441,1.518-0.885,3.046-1.496,4.499c-2.064,4.91-4.19,9.795-6.322,14.676
	c-0.357,0.818-0.858,1.575-1.293,2.36c-0.177-0.078-0.354-0.157-0.532-0.235c0.3-1.267,0.463-2.585,0.923-3.791
	c2.483-6.523,5.036-13.021,7.585-19.52C357.321,243.322,357.61,243.243,357.833,243.1z"/>
<path fill-rule="evenodd" clip-rule="evenodd" fill="#FFFFFF" stroke="#FFFFFF" stroke-width="4" stroke-miterlimit="10" d="
	M633.423,372.817c4.746-5.906,9.082-11.595,11.996-18.212c0.301-0.682,1.016-1.283,0.48-2.197c-0.098-0.17,0.139-0.587,0.295-0.844
	c0.662-1.08,1.316-2.168,2.053-3.198c0.221-0.311,0.693-0.442,1.205-0.749C647.755,355.336,637.976,370.88,633.423,372.817z"/>
<path fill-rule="evenodd" clip-rule="evenodd" fill="#FFFFFF" stroke="#FFFFFF" stroke-width="4" stroke-miterlimit="10" d="
	M378.378,466.835c-0.798,1.53-2.469,1.574-3.795,2.141c-4.179,1.783-8.567,1.671-12.945,1.062c-2.169-0.303-4.02-1.198-3.973-3.929
	c-3.17-0.142-5.996-0.973-6.889-4.213c-0.745-2.7,0.052-5.201,2.676-6.959c0.701,1.188-0.373,1.94-0.816,2.549
	c-1.192,1.638-1.598,3.808-0.555,5.305c1.354,1.946,3.412,2.521,5.623,2.608c0.466,0.019,0.992-0.407,1.419-0.724
	c0.556-0.411,1.042-0.918,1.848-1.121c-0.55,0.599-1.126,1.175-1.646,1.799c-1.115,1.337-0.953,2.492,0.558,3.326
	c0.68,0.375,1.489,0.616,2.264,0.704c5.407,0.618,10.665,0.205,15.577-2.417c0.193-0.104,0.466-0.057,0.701-0.08L378.378,466.835z"
	/>
<path fill-rule="evenodd" clip-rule="evenodd" fill="#FFFFFF" stroke="#FFFFFF" stroke-width="4" stroke-miterlimit="10" d="
	M654.86,337.475c1.68-2.09,3.32-4.212,5.047-6.262c3.355-3.986,6.182-8.27,7.836-13.26c0.268-0.805,0.689-1.559,1.453-2.293
	c0,0.633,0.148,1.311-0.027,1.89c-0.531,1.742-1.018,3.531-1.828,5.148c-2.951,5.891-7.188,10.79-11.949,15.254
	C655.216,337.793,655.038,337.634,654.86,337.475z"/>
<path fill-rule="evenodd" clip-rule="evenodd" fill="#FFFFFF" stroke="#FFFFFF" stroke-width="4" stroke-miterlimit="10" d="
	M404.367,445.371c-1.582-2.744-4.845-2.023-7.208-3.351c0.934-0.933,1.716-1.113,2.72-0.711c1.1,0.441,2.308,0.631,3.379,1.124
	c1.003,0.461,2.045,1.129,2.01,2.428c-0.037,1.337-0.917,2.237-2.132,2.603c-1.586,0.478-3.218,0.845-4.855,1.09
	c-1.094,0.164-2.232,0.062-3.349,0.024c-2.194-0.073-2.856-0.778-2.597-2.696c0.308-2.27,1.013-2.762,3.562-2.223
	c-1.282,0.819-3.106,1.169-2.249,3.462c0.636,0.036,1.397,0.109,2.16,0.117c1.836,0.018,3.673,0.02,5.509,0
	C402.67,447.223,403.796,446.804,404.367,445.371z"/>
<path fill-rule="evenodd" clip-rule="evenodd" fill="#FFFFFF" stroke="#FFFFFF" stroke-width="4" stroke-miterlimit="10" d="
	M659.011,370.074c0.914-2.632,13.307-14.103,15.664-14.953c-0.547,0.844-0.834,1.469-1.281,1.945
	c-2.623,2.795-5.236,5.603-7.951,8.307c-1.291,1.288-2.77,2.398-4.227,3.508C660.558,369.382,659.749,369.683,659.011,370.074z"/>
<path fill-rule="evenodd" clip-rule="evenodd" fill="#FFFFFF" stroke="#FFFFFF" stroke-width="4" stroke-miterlimit="10" d="
	M367.808,82.146c3.322-6.413,6.641-12.828,9.983-19.23c0.073-0.141,0.409-0.145,0.885-0.295c-0.125,0.576-0.147,1-0.306,1.365
	c-0.789,1.818-1.713,3.584-2.406,5.438c-1.805,4.828-4.592,9.043-7.757,13.039C368.075,82.357,367.941,82.252,367.808,82.146z"/>
<path fill-rule="evenodd" clip-rule="evenodd" fill="#FFFFFF" stroke="#FFFFFF" stroke-width="4" stroke-miterlimit="10" d="
	M378.426,466.886c0-0.39,0-0.78,0-1.285c-4.78-1.386-9.774-1.745-14.75-3.422c0.975-0.931,1.867-0.695,2.669-0.65
	c2.047,0.116,4.097,0.241,6.129,0.493c0.584,0.072,1.081,0.708,1.677,0.876c1.064,0.301,2.209,0.334,3.253,0.681
	c0.991,0.329,1.896,0.916,2.795,1.367c-0.33,1.244-0.657,2.025-1.821,1.89L378.426,466.886z"/>
<path fill-rule="evenodd" clip-rule="evenodd" fill="#FFFFFF" stroke="#FFFFFF" stroke-width="4" stroke-miterlimit="10" d="
	M622.126,438.427c1.418,0.897,1.549,1.814,1.354,2.8c-0.414,2.092-1.238,3.955-3.186,5.089c-1.234,0.719-2.463,1.46-3.756,2.06
	c-0.391,0.182-0.984-0.078-1.486-0.135c0.211-0.527,0.301-1.176,0.668-1.551c0.422-0.431,1.102-0.601,1.648-0.92
	c0.885-0.517,1.799-1.002,2.617-1.613c1.002-0.748,1.512-1.758,1.512-3.086C621.497,440.271,621.862,439.471,622.126,438.427z"/>
<path fill-rule="evenodd" clip-rule="evenodd" fill="#FFFFFF" stroke="#FFFFFF" stroke-width="4" stroke-miterlimit="10" d="
	M614.716,408.327c6.037-6.358,12.537-12.227,17.758-19.284C628.083,396.891,621.534,402.763,614.716,408.327z"/>
<path fill-rule="evenodd" clip-rule="evenodd" fill="#FFFFFF" stroke="#FFFFFF" stroke-width="4" stroke-miterlimit="10" d="
	M406.063,344.312c-0.052-6.467,5.72-19.539,9.865-21.959C411.246,329.39,407.669,336.436,406.063,344.312z"/>
<path fill-rule="evenodd" clip-rule="evenodd" fill="#FFFFFF" stroke="#FFFFFF" stroke-width="4" stroke-miterlimit="10" d="
	M660.38,375.078c3.207-3.938,6.381-7.916,10.033-11.479c0.375,1.719-0.877,2.578-1.68,3.499
	C666.204,369.992,664.206,373.46,660.38,375.078z"/>
<path fill-rule="evenodd" clip-rule="evenodd" fill="#FFFFFF" stroke="#FFFFFF" stroke-width="4" stroke-miterlimit="10" d="
	M614.747,214.129c-1.027-4.451-2.205-8.776-4.516-12.728c1.619,0.465,3.32,2.605,4.166,5.392
	C615.112,209.152,616.11,211.576,614.747,214.129z"/>
<path fill-rule="evenodd" clip-rule="evenodd" fill="#FFFFFF" stroke="#FFFFFF" stroke-width="4" stroke-miterlimit="10" d="
	M341.197,462.415c-1.479,0.229-2.97,0.694-4.434,0.622c-1.511-0.076-3.302-0.233-3.917-2.069c-0.428-1.281,0.959-3.756,2.427-4.596
	c1.224-0.7,2.47-1.065,3.795,0.252c-2.305,0.668-4.656,1.178-4.922,4.115c1.302,1.204,2.918,1.204,4.472,1.393
	c0.859,0.104,1.719,0.192,2.579,0.287L341.197,462.415z"/>
<path fill-rule="evenodd" clip-rule="evenodd" fill="#FFFFFF" stroke="#FFFFFF" stroke-width="4" stroke-miterlimit="10" d="
	M555.925,465.554c0.291-0.944,0.297-1.562,0.607-1.845c0.635-0.575,1.395-1.29,2.17-1.38c2.564-0.299,5.158-0.345,8.213-0.514
	c-0.469,0.677-0.646,1.167-0.836,1.172c-2.137,0.059-4.033,1.546-6.297,0.985c-0.518-0.128-1.195,0.312-1.777,0.549
	C557.454,464.746,556.935,465.048,555.925,465.554z"/>
<path fill-rule="evenodd" clip-rule="evenodd" fill="#FFFFFF" stroke="#FFFFFF" stroke-width="4" stroke-miterlimit="10" d="
	M273.124,609.579c-3.573-0.053-5.565-1.466-5.479-3.887c0.098-2.779,1.886-4.68,4.37-4.646c2.905,0.04,5.039,2.372,4.859,5.314
	C276.73,608.72,275.684,609.618,273.124,609.579z"/>
<path fill-rule="evenodd" clip-rule="evenodd" fill="#FFFFFF" stroke="#FFFFFF" stroke-width="4" stroke-miterlimit="10" d="
	M666.317,373.938c-2.631,4.087-5.152,8.265-8.953,11.403c-0.172-0.137-0.344-0.273-0.516-0.41c3.008-3.794,6.018-7.588,9.025-11.382
	C666.022,373.678,666.171,373.808,666.317,373.938z"/>
<path fill-rule="evenodd" clip-rule="evenodd" fill="#FFFFFF" stroke="#FFFFFF" stroke-width="4" stroke-miterlimit="10" d="
	M489.433,437.718c4.641,2.96,9.98,3.366,15.17,4.794c-0.549,0.088-1.127,0.334-1.643,0.24
	C498.144,441.876,493.196,441.333,489.433,437.718z"/>
<path fill-rule="evenodd" clip-rule="evenodd" fill="#FFFFFF" stroke="#FFFFFF" stroke-width="4" stroke-miterlimit="10" d="
	M444.462,368.213c-0.414,3.529-0.851,7.097-2.116,10.948C441.616,376.605,442.769,370.634,444.462,368.213z"/>
<path fill-rule="evenodd" clip-rule="evenodd" fill="#FFFFFF" stroke="#FFFFFF" stroke-width="4" stroke-miterlimit="10" d="
	M438.322,481.409c-0.245-1.861,0.489-3.06,3.279-5.573c0.764-0.688,1.625-1.359,2.979-0.362
	C441.672,476.529,440.679,479.411,438.322,481.409z"/>
<path fill-rule="evenodd" clip-rule="evenodd" fill="#FFFFFF" stroke="#FFFFFF" stroke-width="4" stroke-miterlimit="10" d="
	M398.337,485.94c-1.288,0-2.385,0-3.482,0c-0.015-0.062-0.03-0.125-0.044-0.188c0.746-0.119,1.492-0.239,2.362-0.379
	c-0.866-1.774-2.729-1.277-4.001-2.14c0.007-0.992,0.646-1.085,1.394-0.961C397.028,482.681,398.167,483.734,398.337,485.94z"/>
<path fill-rule="evenodd" clip-rule="evenodd" fill="#FFFFFF" stroke="#FFFFFF" stroke-width="4" stroke-miterlimit="10" d="
	M476.44,479.892c-2.361,0.626-4.28,2.053-6.474,0.693C471.588,478.735,474.333,478.303,476.44,479.892z"/>
<path fill-rule="evenodd" clip-rule="evenodd" fill="#FFFFFF" stroke="#FFFFFF" stroke-width="4" stroke-miterlimit="10" d="
	M373.088,457.759c0.168,0.674,0.337,1.348,0.595,2.382c-0.925-0.771-1.663-1.265-2.241-1.901c-0.629-0.693-1.113-1.519-1.657-2.289
	c-0.548-0.777-1.027-1.616-1.655-2.323c-0.688-0.774-1.513-1.427-2.276-2.131c0.875-0.362,1.643,0.156,2.278,1.027
	c0.654,0.896,1.222,1.864,1.94,2.704c0.838,0.979,1.798,1.854,2.705,2.773C372.881,457.92,372.985,457.839,373.088,457.759z"/>
<path fill-rule="evenodd" clip-rule="evenodd" fill="#FFFFFF" stroke="#FFFFFF" stroke-width="4" stroke-miterlimit="10" d="
	M573.681,426.247c3.719-1.698,7.436-3.397,11.152-5.096c-3.25,2.663-7.014,4.188-10.877,5.499
	C573.864,426.516,573.772,426.382,573.681,426.247z"/>
<path fill-rule="evenodd" clip-rule="evenodd" fill="#FFFFFF" stroke="#FFFFFF" stroke-width="4" stroke-miterlimit="10" d="
	M341.197,462.419c0.075-1.608-0.74-2.448-2.275-2.773c-0.818-0.174-1.602-0.515-2.505-0.815c1.233-1.342,3.738-0.579,5.592,1.509
	c-0.255,0.651-0.533,1.361-0.811,2.073C341.197,462.415,341.197,462.419,341.197,462.419z"/>
<path fill-rule="evenodd" clip-rule="evenodd" fill="#FFFFFF" stroke="#FFFFFF" stroke-width="4" stroke-miterlimit="10" d="
	M477.684,475.099c0.73,2.543,3.631,2.843,5.114,4.896C479.531,479.808,477.148,477.523,477.684,475.099z"/>
<path fill-rule="evenodd" clip-rule="evenodd" fill="#FFFFFF" stroke="#FFFFFF" stroke-width="4" stroke-miterlimit="10" d="
	M596.13,416.084c0.18,0.348,0.316,0.61,0.551,1.06c-4.389,1.467-8.76,0.592-13.082,0.629
	C587.724,416.882,592.146,418.56,596.13,416.084z"/>
<path fill-rule="evenodd" clip-rule="evenodd" fill="#FFFFFF" stroke="#FFFFFF" stroke-width="4" stroke-miterlimit="10" d="
	M477.168,326.42c-2.592,1.932-4.624,4.574-7.828,5.732c2.478-2.076,4.956-4.152,7.435-6.227
	C476.906,326.09,477.038,326.255,477.168,326.42z"/>
<path fill-rule="evenodd" clip-rule="evenodd" fill="#FFFFFF" stroke="#FFFFFF" stroke-width="4" stroke-miterlimit="10" d="
	M461.67,343.5c1.522-2.92,4.052-4.955,6.62-6.966c-2.072,2.45-4.146,4.901-6.218,7.351
	C461.939,343.757,461.804,343.629,461.67,343.5z"/>
<path fill-rule="evenodd" clip-rule="evenodd" stroke="#FFFFFF" stroke-width="4" stroke-miterlimit="10" d="M155.36,62.82
	c-0.187-2.277-0.346-4.207-0.505-6.139c0.151-0.025,0.302-0.051,0.454-0.076c0.399,1.748,0.833,3.488,1.153,5.251
	C156.498,62.056,155.89,62.371,155.36,62.82z"/>
<path fill-rule="evenodd" clip-rule="evenodd" fill="#FFFFFF" stroke="#FFFFFF" stroke-width="4" stroke-miterlimit="10" d="
	M424.742,331.211c-1.416,1.919-2.525,3.422-3.677,4.984C420.271,334.453,421.719,332.355,424.742,331.211z"/>
<path fill-rule="evenodd" clip-rule="evenodd" fill="#FFFFFF" stroke="#FFFFFF" stroke-width="4" stroke-miterlimit="10" d="
	M420.491,361.186c-1.73-1.572-4.137-2.392-5.343-4.551c0.141-0.161,0.281-0.322,0.421-0.484c1.794,1.508,3.589,3.016,5.384,4.523
	C420.799,360.845,420.645,361.015,420.491,361.186z"/>
<path fill-rule="evenodd" clip-rule="evenodd" fill="#FFFFFF" stroke="#FFFFFF" stroke-width="4" stroke-miterlimit="10" d="
	M439.912,475.703c-0.292-2.395,0.678-3.266,3.361-3.039C442.156,473.674,441.11,474.619,439.912,475.703z"/>
<path fill-rule="evenodd" clip-rule="evenodd" fill="#FFFFFF" stroke="#FFFFFF" stroke-width="4" stroke-miterlimit="10" d="
	M566.276,466.17c-2.018,0.183-3.916-0.38-5.928-1.213C561.95,464.204,563.718,464.542,566.276,466.17z"/>
<path fill-rule="evenodd" clip-rule="evenodd" fill="#FFFFFF" stroke="#FFFFFF" stroke-width="4" stroke-miterlimit="10" d="
	M609.501,401.516c2.158-0.914,3.908-1.655,5.658-2.396C613.856,400.997,612.122,401.78,609.501,401.516z"/>
<path fill-rule="evenodd" clip-rule="evenodd" fill="#FFFFFF" stroke="#FFFFFF" stroke-width="4" stroke-miterlimit="10" d="
	M600.649,413.067c-0.494-0.159-0.979-0.357-1.484-0.467c-0.432-0.094-0.885-0.084-1.357-0.491c1.918-0.297,3.838-0.595,5.756-0.893
	c0.057,0.105,0.111,0.212,0.168,0.317c-1.047,0.489-2.096,0.978-3.143,1.467L600.649,413.067z"/>
<path fill-rule="evenodd" clip-rule="evenodd" fill="#FFFFFF" stroke="#FFFFFF" stroke-width="4" stroke-miterlimit="10" d="
	M414.611,331.047c0.462-2.095,1.319-3.866,3.17-5.028C416.725,327.694,415.668,329.371,414.611,331.047z"/>
<path fill-rule="evenodd" clip-rule="evenodd" fill="#FFFFFF" stroke="#FFFFFF" stroke-width="4" stroke-miterlimit="10" d="
	M359.053,450.829c-1.495,1.085-2.811,2.038-4.266,3.094C356.009,451.923,356.335,451.687,359.053,450.829z"/>
<path fill-rule="evenodd" clip-rule="evenodd" fill="#FFFFFF" stroke="#FFFFFF" stroke-width="4" stroke-miterlimit="10" d="
	M420.759,445.2c-1.178,1.426-1.797-0.961-2.865-0.285c0.023-0.205,0.046-0.41,0.068-0.614c0.923,0.055,1.846,0.108,2.768,0.163
	C420.74,444.709,420.75,444.955,420.759,445.2z"/>
<path fill-rule="evenodd" clip-rule="evenodd" fill="#FFFFFF" stroke="#FFFFFF" stroke-width="4" stroke-miterlimit="10" d="
	M652.794,342.887c-0.992,0.627-1.984,1.252-3.342,2.109C650.263,343.303,651.491,343.039,652.794,342.887z"/>
<path fill-rule="evenodd" clip-rule="evenodd" fill="#FFFFFF" stroke="#FFFFFF" stroke-width="4" stroke-miterlimit="10" d="
	M408.5,348.348c1.265-0.443,1.595,0.199,2.119,1.079C409.562,349.475,409.153,348.97,408.5,348.348z"/>
<path fill-rule="evenodd" clip-rule="evenodd" fill="#FFFFFF" stroke="#FFFFFF" stroke-width="4" stroke-miterlimit="10" d="
	M477.681,310.165c-0.534-0.337-0.949-0.599-1.385-0.872c0.185-0.213,0.261-0.39,0.364-0.408
	C477.53,308.736,477.988,308.992,477.681,310.165z"/>
<path fill-rule="evenodd" clip-rule="evenodd" fill="#FFFFFF" stroke="#FFFFFF" stroke-width="4" stroke-miterlimit="10" d="
	M428.348,376.371c-0.166-0.496-0.331-0.992-0.497-1.488c0.077-0.028,0.155-0.056,0.232-0.084c0.171,0.476,0.343,0.951,0.514,1.427
	C428.514,376.274,428.431,376.322,428.348,376.371z"/>
<path fill-rule="evenodd" clip-rule="evenodd" fill="#FFFFFF" stroke="#FFFFFF" stroke-width="4" stroke-miterlimit="10" d="
	M426.802,347.186c-0.533,0.201-1.066,0.402-1.6,0.603c-0.068-0.149-0.137-0.3-0.205-0.45c0.519-0.23,1.038-0.459,1.558-0.689
	C426.637,346.828,426.72,347.007,426.802,347.186z"/>
<path fill-rule="evenodd" clip-rule="evenodd" fill="#FFFFFF" stroke="#FFFFFF" stroke-width="4" stroke-miterlimit="10" d="
	M449.583,367.272c-0.088,0.392-0.176,0.783-0.264,1.175c-0.076-0.011-0.153-0.021-0.23-0.032c0.022-0.408,0.044-0.816,0.066-1.226
	C449.298,367.218,449.441,367.245,449.583,367.272z"/>
<path fill-rule="evenodd" clip-rule="evenodd" fill="#FFFFFF" stroke="#FFFFFF" stroke-width="4" stroke-miterlimit="10" d="
	M494.612,444.467c0.572,0,1.145,0,1.717,0c0,0.07,0.002,0.141,0.002,0.211c-0.572,0-1.145,0-1.719,0
	C494.612,444.607,494.612,444.537,494.612,444.467z"/>
<path fill-rule="evenodd" clip-rule="evenodd" fill="#FFFFFF" stroke="#FFFFFF" stroke-width="4" stroke-miterlimit="10" d="
	M413.878,343.065c0,0.595,0,1.19,0,1.785c-0.098,0.005-0.195,0.009-0.293,0.015c-0.03-0.59-0.059-1.18-0.089-1.77
	C413.624,343.086,413.751,343.076,413.878,343.065z"/>
<path fill-rule="evenodd" clip-rule="evenodd" fill="#FFFFFF" stroke="#FFFFFF" stroke-width="4" stroke-miterlimit="10" d="
	M449.989,364.063c0-0.604,0-1.21,0-1.814c0.1-0.007,0.2-0.014,0.3-0.02c0.032,0.584,0.065,1.169,0.098,1.754
	C450.253,364.01,450.122,364.037,449.989,364.063z"/>
<path fill-rule="evenodd" clip-rule="evenodd" fill="#FFFFFF" stroke="#FFFFFF" stroke-width="4" stroke-miterlimit="10" d="
	M600.589,413.001c-0.477,0.503-0.951,1.005-1.428,1.508c-0.09-0.106-0.178-0.214-0.268-0.32c0.586-0.372,1.172-0.744,1.758-1.119
	C600.649,413.067,600.589,413.001,600.589,413.001z"/>
<path fill-rule="evenodd" clip-rule="evenodd" fill="#FFFFFF" stroke="#FFFFFF" stroke-width="4" stroke-miterlimit="10" d="
	M775.229,604.627c-0.612,5.761,0,7.261,2.945,8.345c2.41,0.885,5.115-0.95,5.967-4.048c0.644-2.33-0.338-3.852-3.113-4.248
	C779.21,604.417,777.326,604.627,775.229,604.627z"/>
<path fill-rule="evenodd" clip-rule="evenodd" fill="#FFFFFF" stroke="#FFFFFF" stroke-width="4" stroke-miterlimit="10" d="
	M430.181,342.145c0-0.855-0.017-1.713,0.01-2.568c0.009-0.273,0.135-0.545,0.476-0.789c0,1.14,0,2.279,0,3.418
	C430.505,342.186,430.343,342.165,430.181,342.145z"/>
<path fill-rule="evenodd" clip-rule="evenodd" fill="#FFFFFF" stroke="#FFFFFF" stroke-width="4" stroke-miterlimit="10" d="
	M775.229,604.627c2.097,0,3.981-0.21,5.799,0.049c2.775,0.396,3.757,1.918,3.113,4.248c-0.852,3.098-3.557,4.933-5.967,4.048
	C775.229,611.888,774.617,610.388,775.229,604.627z"/>
</svg>
